<svg width="35" height="35" viewBox="0 0 35 35" fill="none" xmlns="http://www.w3.org/2000/svg">
<path d="M23.8175 26.5004V24.8773L23.7836 24.8948C23.4194 25.0709 23.0202 25.1737 22.6155 25.1912C22.1944 25.2251 21.7777 25.1004 21.4419 24.8434C21.2023 24.6607 21.0208 24.4048 20.9289 24.1204C20.8261 23.801 20.8152 23.4652 20.895 23.1459C20.9694 22.8155 21.1509 22.5246 21.4134 22.3146C21.6475 22.121 21.9319 22.0018 22.2337 21.9613C22.7697 21.9045 23.3045 22.0073 23.7836 22.2523L23.8175 22.2698V20.6401L23.7431 20.6226C23.2641 20.4684 22.7631 20.406 22.2677 20.429C21.8116 20.4399 21.362 20.5427 20.9519 20.7309C20.5308 20.9245 20.16 21.2034 19.8756 21.5621C18.9645 22.7127 18.9361 24.3304 19.8133 25.504C20.2464 26.0563 20.8502 26.4501 21.5283 26.6087C22.2458 26.7848 22.9983 26.7563 23.6983 26.5343L23.8175 26.5004ZM7.78203 26.5004V24.8773L7.74813 24.8948C7.38391 25.0709 6.99016 25.1737 6.58 25.1912C6.15891 25.2251 5.74219 25.1004 5.40641 24.8434C5.16687 24.6607 4.99078 24.4048 4.89344 24.1204C4.79063 23.8076 4.77969 23.4652 4.85953 23.1459C4.93391 22.8155 5.11547 22.5246 5.37797 22.3146C5.61203 22.121 5.89641 22.0018 6.19828 21.9613C6.73422 21.9045 7.26906 22.0073 7.74813 22.2523L7.78203 22.2698V20.6401L7.70766 20.6226C7.22859 20.4684 6.73312 20.406 6.23219 20.429C5.77609 20.4399 5.33203 20.5427 4.91641 20.7309C4.50078 20.9245 4.13 21.2034 3.84016 21.5621C2.92906 22.7127 2.90609 24.3304 3.77781 25.504C4.20547 26.0563 4.81469 26.4501 5.49281 26.6087C6.21031 26.7848 6.95734 26.7563 7.66281 26.5343L7.78203 26.5004ZM13.5067 25.1562L13.5013 26.5518L13.5986 26.5693C13.9234 26.6262 14.2428 26.6666 14.5666 26.6951C14.8509 26.718 15.1419 26.7235 15.4263 26.7126C15.6997 26.6896 15.9677 26.6382 16.2291 26.5584C16.5364 26.473 16.8153 26.3188 17.0603 26.1143C17.2769 25.9262 17.4475 25.6866 17.5448 25.4198C17.7209 24.9637 17.7155 24.4682 17.5339 24.0187C17.4431 23.7846 17.2944 23.5746 17.1008 23.4149C16.9181 23.2498 16.6961 23.1185 16.4631 23.0441L15.4088 22.6515C15.283 22.6001 15.1812 22.4973 15.1244 22.378C15.0784 22.2752 15.0784 22.156 15.1353 22.0587C15.1867 21.9679 15.2666 21.899 15.3573 21.8476C15.4766 21.7907 15.6023 21.7568 15.7336 21.7393C15.9556 21.7109 16.1831 21.7109 16.4062 21.7502C16.6688 21.7787 16.9247 21.8246 17.1806 21.887L17.2375 21.8979V20.6105L17.1347 20.5876C16.8722 20.5307 16.6108 20.4793 16.3428 20.4509C16.0005 20.4049 15.6483 20.3995 15.3005 20.4454C14.8673 20.4848 14.4517 20.651 14.1039 20.9245C13.8698 21.1126 13.6937 21.3521 13.5909 21.631C13.4433 22.0521 13.4433 22.5202 13.5909 22.9413C13.6708 23.1579 13.7966 23.346 13.9617 23.4991C14.1039 23.6359 14.2636 23.7496 14.4408 23.8415C14.6683 23.9673 14.9133 24.058 15.1638 24.1259C15.2436 24.1543 15.3289 24.1773 15.4088 24.2057L15.5345 24.2516L15.5684 24.2691C15.6942 24.3085 15.808 24.3829 15.8988 24.4682C15.9677 24.5305 16.018 24.6049 16.0464 24.6902C16.0694 24.7701 16.0694 24.8499 16.0464 24.9243C16.007 25.0501 15.9206 25.1518 15.8069 25.2152C15.6811 25.2776 15.5444 25.3235 15.4022 25.341C15.1966 25.3749 14.992 25.3804 14.7809 25.3695C14.5075 25.352 14.2395 25.3126 13.9661 25.2612C13.8294 25.2327 13.6872 25.1988 13.5505 25.1638L13.5067 25.1562ZM9.89516 26.6032H11.4275V20.5307H9.89516V26.6032ZM27.6281 22.3245C28.3172 21.7666 29.3202 21.8684 29.878 22.552C30.4358 23.2355 30.3341 24.244 29.6505 24.8018L29.622 24.8193C27.9639 26.0957 26.0214 23.6566 27.6281 22.3245ZM25.4067 23.567C25.4406 25.5948 27.3208 27.0823 29.2972 26.6437C32.1114 26.1077 32.7775 22.377 30.3166 20.9015C28.1969 19.5912 25.457 21.0776 25.4056 23.568L25.4067 23.567ZM33.4852 15.6427C33.5245 16.6107 34.9606 16.6107 35 15.6427V13.9627C34.9606 12.9948 33.5245 12.9948 33.4852 13.9627V15.6427ZM29.3377 15.6427C29.4066 16.5823 30.7847 16.5823 30.8525 15.6427V11.8715C30.7956 10.9199 29.4 10.9199 29.3377 11.8715V15.6427ZM25.1278 17.1641C25.2022 18.1037 26.5748 18.1037 26.6427 17.1641V9.00039C26.6033 8.03242 25.1727 8.03242 25.1278 9.00039V17.1641ZM20.9923 15.6427C21.0492 16.5943 22.4448 16.5943 22.5072 15.6427V11.8715C22.4612 10.9035 21.0317 10.9035 20.9923 11.8715V15.6427ZM16.7595 15.6427C16.8503 16.5604 18.1891 16.5604 18.2744 15.6427V13.9627C18.235 12.9948 16.8044 12.9948 16.7595 13.9627V15.6427ZM12.5781 15.6427C12.6175 16.6107 14.0481 16.6107 14.093 15.6427V11.8715C14.047 10.9035 12.6175 10.9035 12.5781 11.8715V15.6427ZM8.36828 17.1641C8.40766 18.1321 9.83828 18.1321 9.88313 17.1641V9.00039C9.83719 8.03242 8.40766 8.03242 8.36828 9.00039V17.1641ZM4.19234 15.6427C4.27766 16.5713 5.62844 16.5713 5.70719 15.6427V11.8715C5.66781 10.9035 4.23719 10.9035 4.19781 11.8715V15.6427H4.19234ZM0 15.6427C0.0689062 16.5823 1.44156 16.5823 1.51484 15.6427V13.9627C1.47547 12.9948 0.039375 12.9948 0 13.9627V15.6427Z" fill="black"/>
</svg>
