<svg width="35" height="35" viewBox="0 0 35 35" fill="none" xmlns="http://www.w3.org/2000/svg">
<g clip-path="url(#clip0_30_825)">
<path d="M31.1111 4.86133H3.8889C3.3732 4.86133 2.87863 5.06619 2.51397 5.43084C2.14932 5.7955 1.94446 6.29007 1.94446 6.80577V28.1947C1.94446 28.7104 2.14932 29.2049 2.51397 29.5696C2.87863 29.9342 3.3732 30.1391 3.8889 30.1391H31.1111C31.6268 30.1391 32.1214 29.9342 32.4861 29.5696C32.8507 29.2049 33.0556 28.7104 33.0556 28.1947V6.80577C33.0556 6.29007 32.8507 5.7955 32.4861 5.43084C32.1214 5.06619 31.6268 4.86133 31.1111 4.86133ZM6.61112 15.3711V12.8044L16.3333 17.2669V19.2891L6.61112 23.7516V21.1752L12.9403 18.2586L6.61112 15.3711ZM22.75 24.6947H16.5278V22.3613H22.75V24.6947ZM3.8889 8.94466V6.80577H31.1111V8.94466H3.8889Z" fill="black"/>
</g>
<defs>
<clipPath id="clip0_30_825">
<rect width="35" height="35" fill="white"/>
</clipPath>
</defs>
</svg>
