<svg width="36" height="36" viewBox="0 0 36 36" fill="none" xmlns="http://www.w3.org/2000/svg">
<g clip-path="url(#clip0_17_222)">
<path d="M31.6111 5.36133H4.3889C3.8732 5.36133 3.37863 5.56619 3.01397 5.93084C2.64932 6.2955 2.44446 6.79007 2.44446 7.30577V28.6947C2.44446 29.2104 2.64932 29.7049 3.01397 30.0696C3.37863 30.4342 3.8732 30.6391 4.3889 30.6391H31.6111C32.1268 30.6391 32.6214 30.4342 32.9861 30.0696C33.3507 29.7049 33.5556 29.2104 33.5556 28.6947V7.30577C33.5556 6.79007 33.3507 6.2955 32.9861 5.93084C32.6214 5.56619 32.1268 5.36133 31.6111 5.36133ZM7.11112 15.8711V13.3044L16.8333 17.7669V19.7891L7.11112 24.2516V21.6752L13.4403 18.7586L7.11112 15.8711ZM23.25 25.1947H17.0278V22.8613H23.25V25.1947ZM4.3889 9.44466V7.30577H31.6111V9.44466H4.3889Z" fill="black"/>
</g>
<defs>
<clipPath id="clip0_17_222">
<rect width="35" height="35" fill="white" transform="translate(0.5 0.5)"/>
</clipPath>
</defs>
</svg>
