<svg width="92" height="69" viewBox="0 0 92 69" fill="none" xmlns="http://www.w3.org/2000/svg">
<path d="M25.1137 42.1543L22.6941 48.9669H29.5274L25.1137 42.1543Z" fill="#FFBC0E"/>
<path d="M29.5274 49.1969H22.6941C22.6575 49.1968 22.6214 49.1879 22.5889 49.171C22.5564 49.1541 22.5284 49.1296 22.5072 49.0997C22.4861 49.0698 22.4724 49.0352 22.4673 48.9989C22.4622 48.9626 22.4658 48.9256 22.4779 48.8911L24.8975 42.0899C24.9117 42.0496 24.9369 42.014 24.9702 41.9872C25.0035 41.9604 25.0437 41.9434 25.0861 41.9381C25.1304 41.9311 25.1757 41.9372 25.2166 41.9556C25.2574 41.9739 25.292 42.0039 25.3161 42.0416L29.7298 48.8542C29.7521 48.889 29.7646 48.929 29.7661 48.9703C29.7676 49.0115 29.7579 49.0524 29.7381 49.0886C29.7184 49.1248 29.6893 49.155 29.6538 49.1761C29.6183 49.1972 29.5779 49.2084 29.5366 49.2084L29.5274 49.1969ZM23.0207 48.7369H29.1042L25.1735 42.6718L23.0207 48.7369Z" fill="#093F68"/>
<path d="M50.3125 18.2942C49.7475 18.1644 49.1592 18.1746 48.599 18.3241C46.6436 18.9081 44.9707 20.1898 43.8978 21.9259C43.8065 21.5006 43.8321 21.0587 43.9718 20.6468C44.1115 20.235 44.3602 19.8687 44.6913 19.5868C44.0481 19.5975 43.4185 19.7743 42.8636 20.0999C42.3088 20.4255 41.8474 20.8889 41.5242 21.4452C40.9929 22.3813 40.7744 24.0166 41.4851 24.9343C42.1107 25.7393 43.2538 25.5921 43.8978 26.2338C44.298 26.634 44.4406 28.0738 44.6522 28.6281C45.1904 30.0748 45.8275 31.4824 46.414 32.9107L59.1928 30.5325C59.1928 30.5325 58.9789 27.3562 58.5028 24.7595C58.0267 22.1628 56.2212 18.9083 53.1714 20.2101C52.9993 19.8611 52.749 19.5565 52.44 19.32C51.8249 18.8099 51.0946 18.4578 50.3125 18.2942Z" fill="#725858"/>
<path d="M46.414 33.1408C46.3686 33.1405 46.3243 33.1269 46.2866 33.1015C46.249 33.0761 46.2197 33.0402 46.2024 32.9982C46 32.509 45.7938 32.0191 45.5837 31.5285C45.195 30.6085 44.7902 29.6609 44.4337 28.7087C44.3432 28.43 44.271 28.1457 44.2175 27.8577C44.1025 27.331 43.9461 26.6111 43.7322 26.3949C43.4378 26.1538 43.0913 25.9845 42.7202 25.9004C42.2349 25.744 41.6829 25.5692 41.3011 25.0747C40.5513 24.1087 40.7284 22.3791 41.3218 21.3303C41.664 20.7383 42.154 20.2453 42.7438 19.8994C43.3336 19.5535 44.003 19.3666 44.6867 19.3569C44.734 19.3569 44.7801 19.3715 44.8188 19.3986C44.8575 19.4258 44.8868 19.4642 44.9029 19.5087C44.9191 19.5532 44.9211 19.6015 44.9088 19.6472C44.8964 19.6929 44.8703 19.7337 44.8339 19.764C44.616 19.9487 44.4368 20.1746 44.3065 20.4288C44.1762 20.683 44.0975 20.9604 44.0749 21.2452C45.1792 19.7417 46.7431 18.6389 48.53 18.1034C49.1313 17.9416 49.7631 17.9298 50.37 18.0689C51.1854 18.2426 51.9464 18.612 52.5872 19.1453C52.8588 19.3625 53.092 19.6237 53.2772 19.9181C53.7011 19.7418 54.1588 19.6617 54.6174 19.6836C55.0759 19.7055 55.5239 19.8288 55.9291 20.0446C57.5046 20.8887 58.4062 23.0116 58.7236 24.7182C59.2043 27.2988 59.4136 30.4843 59.4251 30.5165C59.426 30.5709 59.4075 30.6239 59.373 30.6661C59.3385 30.7082 59.2901 30.7367 59.2365 30.7465L46.46 33.1385L46.414 33.1408ZM44.114 19.8721C43.6173 19.9631 43.1464 20.1611 42.7337 20.4522C42.3211 20.7433 41.9767 21.1206 41.7243 21.558C41.1999 22.478 41.0527 24.0029 41.6668 24.7941C41.9612 25.1736 42.4005 25.3139 42.8628 25.4611C43.305 25.5641 43.7155 25.7733 44.0588 26.0706C44.3693 26.3811 44.5188 27.0826 44.6683 27.7611C44.7185 28.027 44.7845 28.2897 44.8661 28.5477C45.218 29.4907 45.6205 30.436 46.0161 31.3491C46.2001 31.7838 46.3841 32.2162 46.5658 32.6509L58.9582 30.3509C58.9007 29.6103 58.6845 26.9883 58.2682 24.8079C57.9853 23.2807 57.1435 21.2245 55.7106 20.4563C54.9677 20.0584 54.142 20.0492 53.2565 20.4287C53.2285 20.4404 53.1984 20.4464 53.168 20.4464C53.1376 20.4464 53.1075 20.4404 53.0794 20.4287C53.0512 20.4174 53.0254 20.4006 53.0037 20.3793C52.982 20.3579 52.9647 20.3325 52.9529 20.3045C52.7933 19.9878 52.5627 19.7123 52.279 19.4995C51.6975 19.0156 51.0067 18.6808 50.2665 18.5243C49.7359 18.4003 49.1829 18.409 48.6565 18.5496C46.7557 19.1172 45.13 20.364 44.0887 22.0525C44.0649 22.0907 44.0305 22.1211 43.9896 22.1399C43.9487 22.1587 43.9032 22.1651 43.8587 22.1583C43.8139 22.1508 43.7722 22.1302 43.7391 22.0991C43.7059 22.068 43.6827 22.0278 43.6724 21.9835C43.594 21.6202 43.5928 21.2446 43.6688 20.8808C43.7449 20.5171 43.8966 20.1734 44.114 19.8721Z" fill="#093F68"/>
<path d="M45.375 34.4584C46.3553 34.2759 46.9846 33.24 46.7807 32.1449C46.5767 31.0497 45.6167 30.3099 44.6364 30.4924C43.6561 30.675 43.0267 31.7108 43.2307 32.806C43.4347 33.9012 44.3947 34.641 45.375 34.4584Z" fill="#FFC9B0"/>
<path d="M45.08 34.73C44.1002 34.73 43.2101 33.9549 43.01 32.8624C42.78 31.6434 43.4976 30.4842 44.5993 30.2795C44.8702 30.2303 45.1486 30.2398 45.4156 30.3072C45.6826 30.3747 45.9321 30.4986 46.1472 30.6705C46.6007 31.0327 46.9087 31.546 47.0147 32.1166C47.1207 32.6873 47.0177 33.277 46.7245 33.7778C46.5858 34.0153 46.3978 34.2202 46.1733 34.3789C45.9487 34.5376 45.6928 34.6464 45.4227 34.6978C45.3098 34.7201 45.195 34.7309 45.08 34.73ZM43.4585 32.7773C43.6379 33.7456 44.4797 34.4034 45.3353 34.247C45.5415 34.2064 45.7366 34.1222 45.9075 34C46.0785 33.8779 46.2214 33.7205 46.3266 33.5386C46.5608 33.1348 46.6432 32.6606 46.5589 32.2014C46.4746 31.7422 46.2291 31.3282 45.8666 31.0339C45.7023 30.9024 45.512 30.8073 45.3081 30.7549C45.1043 30.7026 44.8917 30.6942 44.6844 30.7303C43.8311 30.889 43.2814 31.809 43.4631 32.7773H43.4585Z" fill="#093F68"/>
<path d="M52.417 37.7866C56.3132 37.0621 58.9076 31.6042 58.1923 27.7701L57.3321 28.2899C57.3321 28.2899 54.3743 25.7967 53.866 22.7998C53.866 22.7998 53.0357 24.7594 49.5949 25.5782C45.8505 26.466 43.6011 26.0842 43.6011 26.0842L44.62 32.055C45.3353 35.8799 48.53 38.5134 52.417 37.7866Z" fill="#FFC9B0"/>
<path d="M51.1474 38.1363C49.7175 38.1443 48.3251 37.6793 47.1868 36.8138C45.7006 35.6437 44.7035 33.9619 44.39 32.0965L43.3688 26.1165C43.3628 26.0804 43.3656 26.0434 43.3767 26.0086C43.3879 25.9738 43.4072 25.9421 43.4331 25.9163C43.4589 25.8904 43.4906 25.8711 43.5254 25.8599C43.5603 25.8487 43.5972 25.846 43.6333 25.852C43.6563 25.852 45.8873 26.2131 49.5328 25.346C52.8057 24.5709 53.6406 22.7217 53.6475 22.7033C53.6667 22.6572 53.7003 22.6185 53.7434 22.5932C53.7865 22.5679 53.8366 22.5573 53.8862 22.563C53.9359 22.5688 53.9823 22.5905 54.0185 22.6249C54.0546 22.6593 54.0786 22.7046 54.0868 22.7539C54.5169 25.2839 56.7939 27.4919 57.3505 27.9979L58.0658 27.5609C58.0976 27.5417 58.1335 27.5304 58.1706 27.5281C58.2077 27.5259 58.2447 27.5326 58.2786 27.5477C58.3125 27.5628 58.3423 27.586 58.3653 27.6151C58.3883 27.6442 58.4039 27.6785 58.4108 27.715C58.7696 29.6447 58.328 32.0091 57.2286 34.0423C56.0556 36.2112 54.3145 37.6556 52.4515 38.0029C52.0217 38.0865 51.5852 38.1311 51.1474 38.1363ZM43.8817 26.3557L44.85 32.016C45.1417 33.7666 46.0738 35.3463 47.4651 36.4481C48.1586 36.9698 48.9548 37.3388 49.8011 37.5307C50.6475 37.7225 51.5249 37.733 52.3756 37.5613C54.1006 37.2393 55.7244 35.8823 56.8307 33.8353C57.8197 31.9953 58.2544 29.9069 58.0198 28.1451L57.4517 28.4901C57.4104 28.5154 57.3621 28.5271 57.3138 28.5234C57.2655 28.5196 57.2196 28.5007 57.1826 28.4694C57.0676 28.3728 54.51 26.1901 53.7625 23.4094C53.268 24.0787 52.0996 25.2241 49.6478 25.806C46.6624 26.5144 44.62 26.4293 43.8817 26.3557Z" fill="#093F68"/>
<path d="M50.7738 29.8815C51.1285 29.8155 51.3624 29.4744 51.2964 29.1198C51.2303 28.7651 50.8893 28.5311 50.5346 28.5972C50.18 28.6633 49.946 29.0043 50.0121 29.359C50.0781 29.7136 50.4192 29.9476 50.7738 29.8815Z" fill="#093F68"/>
<path d="M45.977 30.5002C46.3377 30.5002 46.6302 30.2078 46.6302 29.847C46.6302 29.4863 46.3377 29.1938 45.977 29.1938C45.6162 29.1938 45.3238 29.4863 45.3238 29.847C45.3238 30.2078 45.6162 30.5002 45.977 30.5002Z" fill="#093F68"/>
<path d="M48.5806 32.0688H48.4863C48.4288 32.0655 48.3729 32.0488 48.323 32.02C48.2731 31.9913 48.2306 31.9513 48.1988 31.9032C47.9297 31.5168 48.2402 30.3668 48.3874 29.8884C48.3956 29.8587 48.4097 29.831 48.4288 29.8068C48.4479 29.7826 48.4716 29.7626 48.4987 29.7478C48.5257 29.733 48.5554 29.7237 48.586 29.7206C48.6167 29.7176 48.6476 29.7206 48.677 29.7297C48.7065 29.7388 48.7338 29.7537 48.7573 29.7736C48.7809 29.7934 48.8002 29.8178 48.8142 29.8452C48.8281 29.8727 48.8364 29.9027 48.8386 29.9334C48.8408 29.9641 48.8367 29.995 48.8267 30.0241C48.6197 30.7026 48.5047 31.4041 48.5622 31.6111C48.877 31.5994 49.1877 31.5364 49.4822 31.4248C49.5383 31.4074 49.5989 31.4121 49.6516 31.438C49.7044 31.4638 49.7452 31.5088 49.7658 31.5638C49.7864 31.6188 49.7852 31.6796 49.7624 31.7337C49.7396 31.7879 49.6969 31.8312 49.6432 31.8549C49.3019 31.9797 48.9436 32.0518 48.5806 32.0688Z" fill="#093F68"/>
<path d="M49.5926 27.1768C49.5322 27.1819 49.4714 27.1751 49.4136 27.1568C49.3558 27.1384 49.3022 27.1088 49.2559 27.0697C49.1623 26.9908 49.1039 26.8779 49.0935 26.7559C49.0831 26.6339 49.1217 26.5128 49.2006 26.4192C49.2795 26.3256 49.3924 26.2672 49.5144 26.2568L52.5872 25.7255C52.6468 25.7148 52.708 25.716 52.7672 25.729C52.8263 25.7419 52.8823 25.7665 52.932 25.8012C52.9817 25.8359 53.024 25.88 53.0565 25.9311C53.0891 25.9822 53.1112 26.0392 53.1216 26.0989C53.1321 26.1586 53.1306 26.2197 53.1174 26.2788C53.1042 26.3379 53.0794 26.3939 53.0445 26.4434C53.0096 26.4929 52.9652 26.535 52.914 26.5673C52.8627 26.5996 52.8056 26.6215 52.7459 26.6317L49.68 27.1699C49.6512 27.1749 49.6219 27.1772 49.5926 27.1768Z" fill="#093F68"/>
<path d="M44.1968 27.9864C44.0748 27.9934 43.955 27.9517 43.8638 27.8703C43.7726 27.789 43.7174 27.6748 43.7104 27.5528C43.7033 27.4308 43.7451 27.311 43.8264 27.2198C43.9077 27.1286 44.0219 27.0734 44.1439 27.0664L47.2397 26.7007C47.3001 26.6936 47.3613 26.6984 47.4199 26.715C47.4784 26.7316 47.5331 26.7595 47.5808 26.7972C47.6285 26.8349 47.6684 26.8816 47.6981 26.9347C47.7277 26.9878 47.7467 27.0462 47.7538 27.1066C47.7609 27.167 47.756 27.2282 47.7394 27.2868C47.7229 27.3453 47.6949 27.4 47.6572 27.4477C47.6195 27.4955 47.5728 27.5353 47.5197 27.565C47.4666 27.5947 47.4082 27.6136 47.3478 27.6207L44.252 27.9864H44.1968Z" fill="#093F68"/>
<path d="M56.8882 28.5201C56.8882 28.5201 58.3648 27.0297 59.5585 28.3706C60.7522 29.7115 60.352 32.4531 57.408 32.2254" fill="#FFC9B0"/>
<path d="M57.7553 32.4692C57.638 32.4692 57.5253 32.4692 57.3919 32.4531C57.3617 32.4508 57.3322 32.4426 57.3052 32.429C57.2782 32.4153 57.2541 32.3965 57.2343 32.3735C57.1944 32.3271 57.1746 32.2668 57.1792 32.2058C57.1837 32.1448 57.2123 32.0881 57.2587 32.0482C57.3051 32.0083 57.3654 31.9885 57.4264 31.9931C58.5511 32.0805 59.3791 31.7125 59.754 30.9558C59.9327 30.5574 59.9933 30.1161 59.9285 29.6843C59.8636 29.2525 59.6762 28.8484 59.3883 28.5201C59.2751 28.3781 59.1332 28.2617 58.9719 28.1785C58.8106 28.0953 58.6335 28.0471 58.4522 28.0371C57.7231 28.0141 57.0561 28.6696 57.0515 28.6765C57.0301 28.698 57.0047 28.7151 56.9767 28.7268C56.9486 28.7385 56.9186 28.7445 56.8882 28.7445C56.8578 28.7445 56.8278 28.7385 56.7998 28.7268C56.7717 28.7151 56.7463 28.698 56.7249 28.6765C56.6821 28.6334 56.658 28.5751 56.658 28.5143C56.658 28.4536 56.6821 28.3953 56.7249 28.3522C56.7571 28.32 57.5391 27.5564 58.4637 27.5771C58.7079 27.5878 58.9471 27.6501 59.1656 27.7599C59.384 27.8697 59.5767 28.0245 59.731 28.2142C60.0819 28.609 60.3099 29.0977 60.3871 29.6202C60.4643 30.1427 60.3874 30.6764 60.1657 31.1559C59.9173 31.6642 59.2779 32.4692 57.7553 32.4692Z" fill="#093F68"/>
<path d="M49.6984 30.9051C49.4786 30.904 49.2668 30.8228 49.1025 30.6767C48.9383 30.5307 48.8329 30.3298 48.806 30.1116L48.576 28.2509C48.5688 28.1911 48.5853 28.1308 48.622 28.083C48.6406 28.059 48.6639 28.0389 48.6903 28.0239C48.7168 28.0089 48.7459 27.9993 48.7761 27.9956L53.13 27.4735C53.1602 27.4699 53.1907 27.4724 53.2199 27.4807C53.2492 27.489 53.2764 27.5029 53.3002 27.5218C53.3238 27.5407 53.3435 27.564 53.3581 27.5904C53.3727 27.6169 53.3819 27.6459 53.3853 27.6759L53.6153 29.5343C53.6294 29.652 53.6202 29.7713 53.5882 29.8854C53.5562 29.9995 53.502 30.1061 53.4288 30.1993C53.3555 30.2924 53.2646 30.3702 53.1612 30.4282C53.0579 30.4861 52.9441 30.5232 52.8264 30.5371L49.8249 30.8982C49.783 30.9035 49.7407 30.9058 49.6984 30.9051ZM49.0659 28.4303L49.2637 30.061C49.2775 30.1772 49.3369 30.2831 49.4287 30.3556C49.5206 30.428 49.6374 30.461 49.7536 30.4474L52.7551 30.0863C52.8715 30.0719 52.9774 30.0121 53.0498 29.9199C53.1222 29.8277 53.1552 29.7106 53.1415 29.5941L52.946 27.9634L49.0659 28.4303Z" fill="#093F68"/>
<path d="M44.3164 31.5538C44.096 31.5537 43.8834 31.4729 43.7185 31.3267C43.5537 31.1805 43.4481 30.979 43.4217 30.7603L43.1917 28.8996C43.1844 28.8398 43.2009 28.7795 43.2377 28.7317C43.2563 28.7077 43.2795 28.6876 43.306 28.6726C43.3324 28.6576 43.3616 28.648 43.3918 28.6443L47.7273 28.1222C47.7876 28.1151 47.8484 28.1321 47.8962 28.1696C47.944 28.2071 47.9751 28.262 47.9826 28.3223L48.2126 30.183C48.2411 30.4203 48.1743 30.6592 48.0268 30.8472C47.8793 31.0353 47.6632 31.157 47.426 31.1858L44.436 31.5469L44.3164 31.5538ZM43.6816 29.079L43.8794 30.7097C43.8856 30.7674 43.9033 30.8232 43.9315 30.874C43.9597 30.9247 43.9977 30.9692 44.0433 31.005C44.089 31.0408 44.1414 31.0671 44.1973 31.0824C44.2533 31.0976 44.3118 31.1015 44.3693 31.0938L47.38 30.7281C47.4961 30.7143 47.6021 30.6549 47.6745 30.5631C47.747 30.4712 47.78 30.3544 47.7664 30.2382L47.5686 28.6075L43.6816 29.079Z" fill="#093F68"/>
<path d="M53.2312 28.6441C53.1702 28.6477 53.1103 28.627 53.0645 28.5865C53.0188 28.5459 52.9911 28.4889 52.9874 28.4279C52.9838 28.3669 53.0045 28.3069 53.045 28.2612C53.0856 28.2155 53.1426 28.1877 53.2036 28.1841L56.143 27.8299C56.204 27.8229 56.2653 27.8404 56.3134 27.8785C56.3615 27.9167 56.3924 27.9724 56.3995 28.0334C56.4065 28.0944 56.389 28.1557 56.3508 28.2038C56.3126 28.2519 56.2569 28.2829 56.1959 28.2899L53.2588 28.6441H53.2312Z" fill="#093F68"/>
<path d="M49.5006 34.3688C49.0315 34.3632 48.5661 34.2857 48.1206 34.1388C48.0917 34.1297 48.065 34.1151 48.0418 34.0957C48.0186 34.0763 47.9995 34.0525 47.9855 34.0257C47.9715 33.9989 47.9629 33.9696 47.9602 33.9395C47.9576 33.9093 47.9609 33.879 47.9699 33.8502C47.979 33.8213 47.9936 33.7945 48.0131 33.7714C48.0325 33.7482 48.0563 33.729 48.0831 33.7151C48.1099 33.7011 48.1392 33.6925 48.1693 33.6898C48.1994 33.6872 48.2297 33.6904 48.2586 33.6995C48.8899 33.9237 49.5713 33.9671 50.2259 33.8248C50.8806 33.6826 51.4825 33.3604 51.9639 32.8945C52.4674 32.43 52.8807 31.8763 53.1829 31.2615C53.2076 31.2057 53.2535 31.162 53.3104 31.14C53.3673 31.118 53.4307 31.1195 53.4865 31.1442C53.5423 31.1689 53.586 31.2148 53.608 31.2717C53.63 31.3286 53.6285 31.392 53.6038 31.4478C53.59 31.4915 52.2813 34.3688 49.5006 34.3688Z" fill="#093F68"/>
<path d="M48.9325 29.2261L47.8768 29.3181L48.9325 29.2261Z" fill="#FFC9B0"/>
<path d="M47.8768 29.5481C47.8192 29.5483 47.7637 29.5269 47.7211 29.4882C47.6785 29.4494 47.652 29.3961 47.6468 29.3388C47.644 29.3086 47.6471 29.2781 47.6561 29.2491C47.6651 29.2201 47.6798 29.1931 47.6993 29.1698C47.7187 29.1465 47.7426 29.1273 47.7695 29.1133C47.7964 29.0992 47.8259 29.0907 47.8561 29.0881L48.9095 28.9984C48.9698 28.9933 49.0297 29.0121 49.0762 29.0509C49.1227 29.0896 49.1521 29.1451 49.1579 29.2054C49.1608 29.2356 49.1576 29.2661 49.1486 29.2951C49.1396 29.3241 49.125 29.351 49.1055 29.3743C49.086 29.3976 49.0622 29.4169 49.0352 29.4309C49.0083 29.4449 48.9789 29.4535 48.9486 29.4561L47.8952 29.5481H47.8768Z" fill="#093F68"/>
<path d="M40.7997 32.752H22.54C22.4192 32.7518 22.3002 32.7812 22.1934 32.8376C22.0866 32.8939 21.9952 32.9756 21.9272 33.0753C21.8591 33.1751 21.8165 33.29 21.8031 33.4101C21.7896 33.5301 21.8057 33.6516 21.85 33.764L26.7881 46.4807H46.644L41.4897 33.2189C41.4345 33.081 41.3393 32.9628 41.2163 32.8796C41.0933 32.7964 40.9482 32.7519 40.7997 32.752Z" fill="#FFBC0E"/>
<path d="M46.6417 46.7107H26.7927C26.7464 46.7105 26.7011 46.6964 26.663 46.6702C26.6248 46.6439 26.5955 46.6067 26.5788 46.5635L21.6407 33.8491C21.5832 33.7021 21.5624 33.5434 21.58 33.3867C21.5975 33.2299 21.6529 33.0797 21.7414 32.9491C21.8299 32.8185 21.9489 32.7114 22.088 32.637C22.2271 32.5625 22.3822 32.5231 22.54 32.522H40.7951C40.9901 32.5211 41.1809 32.5793 41.3422 32.6889C41.5036 32.7985 41.6279 32.9544 41.699 33.1361L46.8533 46.3979C46.8665 46.4326 46.871 46.4699 46.8666 46.5068C46.8622 46.5436 46.849 46.5789 46.828 46.6095C46.8073 46.6401 46.7796 46.6652 46.7472 46.6828C46.7148 46.7004 46.6786 46.71 46.6417 46.7107ZM26.9514 46.2507H46.3059L41.2758 33.304C41.2379 33.2087 41.1723 33.1271 41.0874 33.0696C41.0024 33.0122 40.9022 32.9817 40.7997 32.982H22.54C22.4576 32.9823 22.3766 33.0025 22.3037 33.0409C22.2309 33.0794 22.1684 33.1348 22.1217 33.2026C22.0749 33.2704 22.0452 33.3485 22.0352 33.4302C22.0251 33.5119 22.035 33.5949 22.0639 33.672L26.9514 46.2507Z" fill="#093F68"/>
<path d="M40.0798 33.9803L23.6026 33.9619L28.2601 45.7517L44.6798 45.7678L40.0798 33.9803Z" fill="white"/>
<path d="M44.6798 46L28.2601 45.9839C28.214 45.9839 28.169 45.9701 28.1309 45.9443C28.0927 45.9184 28.0632 45.8817 28.0462 45.839L23.3887 34.04C23.3748 34.0051 23.3696 33.9674 23.3736 33.9301C23.3776 33.8929 23.3907 33.8571 23.4117 33.8261C23.4328 33.7948 23.4612 33.7693 23.4945 33.7516C23.5278 33.734 23.5649 33.7248 23.6026 33.7249L40.0798 33.741C40.1261 33.7411 40.1713 33.7552 40.2095 33.7815C40.2477 33.8077 40.277 33.8449 40.2937 33.8882L44.8937 45.678C44.9072 45.713 44.912 45.7508 44.9076 45.788C44.9032 45.8253 44.8897 45.861 44.8684 45.8919C44.8483 45.924 44.8206 45.9507 44.7877 45.9696C44.7548 45.9885 44.7177 45.9989 44.6798 46ZM28.4165 45.5239L44.344 45.54L39.9234 34.2102L23.9407 34.1941L28.4165 45.5239Z" fill="#093F68"/>
<path d="M38.272 37.3841C38.0167 37.3841 37.7671 37.3082 37.555 37.166C37.3429 37.0239 37.1778 36.8219 37.0808 36.5858C36.9837 36.3496 36.959 36.0899 37.0098 35.8397C37.0607 35.5895 37.1847 35.36 37.3662 35.1805C37.5477 35.0009 37.7785 34.8793 38.0293 34.8312C38.28 34.7831 38.5394 34.8106 38.7745 34.9102C39.0096 35.0098 39.2098 35.177 39.3497 35.3906C39.4895 35.6042 39.5627 35.8546 39.56 36.1099C39.5546 36.4485 39.4167 36.7716 39.1759 37.0098C38.9352 37.248 38.6107 37.3823 38.272 37.3841ZM38.272 35.2704C38.1087 35.2704 37.9491 35.3187 37.8132 35.4092C37.6773 35.4997 37.5712 35.6283 37.5082 35.7789C37.4452 35.9296 37.4281 36.0955 37.4592 36.2558C37.4902 36.4161 37.5679 36.5636 37.6826 36.6798C37.7972 36.7961 37.9437 36.8758 38.1035 36.9091C38.2634 36.9423 38.4295 36.9275 38.581 36.8666C38.7325 36.8057 38.8625 36.7014 38.9549 36.5667C39.0472 36.4321 39.0977 36.2732 39.1 36.1099C39.1012 35.8889 39.0147 35.6764 38.8595 35.519C38.7043 35.3616 38.493 35.2722 38.272 35.2704Z" fill="#DFEAEF"/>
<path d="M39.33 39.0263C39.2922 39.0261 39.2551 39.0167 39.2219 38.9987L33.2833 35.7787L29.0421 38.9711C29.0179 38.9894 28.9904 39.0027 28.9611 39.0104C28.9318 39.018 28.9012 39.0198 28.8712 39.0156C28.8412 39.0115 28.8123 39.0014 28.7862 38.9861C28.7601 38.9708 28.7372 38.9504 28.7189 38.9263C28.7007 38.9021 28.6873 38.8746 28.6797 38.8453C28.6721 38.8159 28.6703 38.7854 28.6744 38.7554C28.6786 38.7254 28.6886 38.6965 28.704 38.6704C28.7193 38.6442 28.7396 38.6214 28.7638 38.6031L33.1338 35.321C33.169 35.2944 33.2112 35.2785 33.2553 35.2753C33.2993 35.272 33.3434 35.2815 33.3822 35.3026L39.4496 38.5847C39.4947 38.6091 39.5304 38.6478 39.551 38.6948C39.5716 38.7418 39.5759 38.7943 39.5632 38.844C39.5505 38.8937 39.5216 38.9378 39.481 38.9691C39.4404 39.0005 39.3905 39.0174 39.3392 39.0171L39.33 39.0263Z" fill="#DFEAEF"/>
<path d="M65.366 48.967H21.8362C21.3878 48.967 21.0243 49.3305 21.0243 49.7789V50.2964C21.0243 50.7448 21.3878 51.1083 21.8362 51.1083H65.366C65.8144 51.1083 66.1779 50.7448 66.1779 50.2964V49.7789C66.1779 49.3305 65.8144 48.967 65.366 48.967Z" fill="#093F68"/>
<path d="M65.366 51.3384H21.85C21.5734 51.3384 21.3082 51.2287 21.1124 51.0333C20.9167 50.838 20.8064 50.573 20.8058 50.2965V49.7813C20.8064 49.5045 20.9166 49.2393 21.1123 49.0436C21.308 48.8479 21.5732 48.7377 21.85 48.7371H65.366C65.6427 48.7377 65.908 48.8479 66.1037 49.0436C66.2994 49.2393 66.4096 49.5045 66.4102 49.7813V50.2965C66.4096 50.573 66.2993 50.838 66.1035 51.0333C65.9078 51.2287 65.6425 51.3384 65.366 51.3384ZM21.85 49.1971C21.695 49.1971 21.5465 49.2586 21.4369 49.3682C21.3273 49.4777 21.2658 49.6263 21.2658 49.7813V50.2965C21.2664 50.451 21.3282 50.599 21.4377 50.7081C21.5472 50.8171 21.6954 50.8784 21.85 50.8784H65.366C65.5205 50.8784 65.6688 50.8171 65.7783 50.7081C65.8878 50.599 65.9496 50.451 65.9502 50.2965V49.7813C65.9502 49.7045 65.9351 49.6286 65.9057 49.5577C65.8764 49.4868 65.8333 49.4224 65.7791 49.3682C65.7248 49.3139 65.6604 49.2709 65.5896 49.2415C65.5187 49.2122 65.4427 49.1971 65.366 49.1971H21.85Z" fill="#093F68"/>
<path d="M56.166 51.3935C56.105 51.3935 56.0465 51.3692 56.0033 51.3261C55.9602 51.283 55.936 51.2245 55.936 51.1635V41.4644C55.936 41.4034 55.9602 41.3449 56.0033 41.3017C56.0465 41.2586 56.105 41.2344 56.166 41.2344C56.227 41.2344 56.2855 41.2586 56.3286 41.3017C56.3717 41.3449 56.396 41.4034 56.396 41.4644V51.1635C56.396 51.2245 56.3717 51.283 56.3286 51.3261C56.2855 51.3692 56.227 51.3935 56.166 51.3935Z" fill="#093F68"/>
<path d="M35.9973 38.9873L35.0428 40.457L34.7484 41.7174L34.8703 41.8094L35.9168 41.009L36.9426 39.6152L35.9973 38.9873Z" fill="#093F68"/>
<path d="M34.8703 42.0395C34.8205 42.0395 34.7721 42.0233 34.7323 41.9935L34.6104 41.9015C34.5759 41.8751 34.5497 41.8395 34.5346 41.7988C34.5196 41.7581 34.5163 41.7139 34.5253 41.6715L34.8174 40.4111C34.8243 40.385 34.8352 40.3602 34.8496 40.3375L35.8041 38.8678C35.8206 38.8419 35.8422 38.8197 35.8675 38.8023C35.8927 38.7849 35.9212 38.7728 35.9513 38.7666C36.0111 38.7548 36.0731 38.7672 36.1238 38.8011L37.0691 39.429C37.0951 39.4462 37.1174 39.4686 37.1345 39.4948C37.1516 39.5209 37.1632 39.5503 37.1685 39.5811C37.1739 39.6118 37.173 39.6434 37.1658 39.6738C37.1585 39.7042 37.1452 39.7328 37.1266 39.7579L36.11 41.1471L36.064 41.1931L35.0152 41.9935C34.9735 42.0248 34.9224 42.041 34.8703 42.0395ZM35.2567 40.5491L35.0658 41.3702L35.7558 40.8481L36.6183 39.6751L36.0686 39.3071L35.2567 40.5491Z" fill="#093F68"/>
<path d="M40.2224 38.946C40.2224 38.946 40.3098 36.8967 39.5324 36.6805C38.755 36.4643 37.1588 36.0319 36.7264 36.6805C36.294 37.3291 35.2153 38.5849 35.5166 39.2956C35.8179 40.0063 38.755 41.5542 38.755 41.5542L42.1866 45.6942L45.977 41.476L40.2224 38.946Z" fill="#FFC9B0"/>
<path d="M42.1866 45.9126C42.154 45.9117 42.1219 45.9038 42.0926 45.8895C42.0632 45.8753 42.0373 45.8549 42.0164 45.8298L38.6124 41.7358C38.0282 41.4253 35.6224 40.1143 35.3096 39.3852C34.9968 38.6561 35.7397 37.6694 36.2733 36.9311C36.3745 36.7908 36.4665 36.662 36.5401 36.5516C37.0714 35.7558 38.778 36.2296 39.5991 36.4596C40.4202 36.6896 40.4708 38.2168 40.4616 38.7987L46.0736 41.2528C46.1072 41.2674 46.1369 41.2899 46.1601 41.3183C46.1833 41.3467 46.1994 41.3802 46.207 41.4161C46.2148 41.4516 46.2141 41.4885 46.2049 41.5237C46.1957 41.5589 46.1783 41.5914 46.1541 41.6185L42.3637 45.8344C42.3416 45.8595 42.3143 45.8796 42.2838 45.8931C42.2532 45.9066 42.22 45.9132 42.1866 45.9126ZM37.6349 36.57C37.3083 36.57 37.0369 36.6321 36.9173 36.8C36.8414 36.915 36.7448 37.0484 36.6413 37.1933C36.225 37.7683 35.5304 38.732 35.7213 39.1989C35.9122 39.6658 37.7499 40.7583 38.8562 41.3425C38.8821 41.3578 38.9055 41.3772 38.9252 41.4L42.1866 45.3238L45.586 41.5403L40.1235 39.1506C40.0793 39.1315 40.0422 39.0991 40.0175 39.0578C39.9927 39.0166 39.9815 38.9686 39.9855 38.9206C40.0177 38.1455 39.8774 37.0001 39.4634 36.8851C38.8684 36.7084 38.2547 36.6027 37.6349 36.57Z" fill="#093F68"/>
<path d="M38.4514 35.3578L36.2641 38.6399C36.2641 38.6399 36.6137 39.2218 37.168 39.1896L39.33 35.8799C39.33 35.8799 38.824 35.1324 38.4514 35.3578Z" fill="#093F68"/>
<path d="M37.122 39.4105C36.4734 39.4105 36.0847 38.7757 36.0663 38.7458C36.043 38.709 36.0306 38.6663 36.0306 38.6227C36.0306 38.5792 36.043 38.5365 36.0663 38.4997L38.2536 35.2314C38.2707 35.2024 38.2954 35.1785 38.3249 35.1624C38.8677 34.8312 39.4588 35.6638 39.5232 35.7581C39.5489 35.7961 39.5627 35.841 39.5627 35.8869C39.5627 35.9328 39.5489 35.9777 39.5232 36.0157L37.3497 39.3047C37.3302 39.3345 37.3041 39.3593 37.2734 39.3773C37.2426 39.3952 37.2081 39.4058 37.1726 39.4082L37.122 39.4105ZM36.5447 38.6216C36.6686 38.7848 36.8462 38.8989 37.0461 38.9436L39.0586 35.8984C38.9045 35.7075 38.709 35.5465 38.5986 35.5465L36.5447 38.6216Z" fill="#093F68"/>
<path d="M34.9807 41.4644L34.5161 42.1544L34.9807 41.4644Z" fill="#093F68"/>
<path d="M34.5161 42.3843C34.4702 42.3844 34.4254 42.3708 34.3873 42.3452C34.3372 42.3111 34.3026 42.2587 34.291 42.1993C34.2794 42.1398 34.2917 42.0782 34.3252 42.0278L34.7852 41.3378C34.8021 41.3127 34.8238 41.2913 34.849 41.2746C34.8742 41.2579 34.9025 41.2463 34.9322 41.2406C34.9619 41.2348 34.9924 41.2349 35.022 41.241C35.0517 41.247 35.0798 41.2588 35.1049 41.2757C35.13 41.2926 35.1514 41.3143 35.1681 41.3395C35.1848 41.3648 35.1964 41.393 35.2021 41.4227C35.2079 41.4524 35.2078 41.4829 35.2017 41.5126C35.1957 41.5422 35.1839 41.5703 35.167 41.5954L34.707 42.2854C34.6856 42.3162 34.6571 42.3413 34.6238 42.3585C34.5905 42.3758 34.5536 42.3846 34.5161 42.3843Z" fill="#093F68"/>
<path d="M48.9325 38.2765C48.9325 38.2765 49.2959 36.5929 50.1124 36.0984C50.9289 35.6039 55.8946 34.8932 56.8882 35.7442C57.5 36.3097 57.8837 37.0796 57.9669 37.9085L48.9325 38.2765Z" fill="#68E1FD"/>
<path d="M48.9325 38.5067C48.8989 38.507 48.8656 38.5 48.835 38.4861C48.8044 38.4722 48.7772 38.4518 48.7554 38.4262C48.7327 38.3992 48.7165 38.3673 48.7082 38.3329C48.6998 38.2986 48.6994 38.2629 48.7071 38.2284C48.7232 38.1571 49.1027 36.4436 49.9928 35.9008C50.8829 35.358 55.9521 34.6427 57.0377 35.5696C57.6934 36.1764 58.1027 37.0033 58.1877 37.8926C58.1897 37.923 58.1857 37.9535 58.1758 37.9823C58.1659 38.0112 58.1504 38.0377 58.1302 38.0605C58.1097 38.0839 58.0846 38.1029 58.0566 38.1164C58.0285 38.1298 57.998 38.1374 57.9669 38.1387L48.9325 38.5067ZM54.855 35.5811C53.1116 35.5811 50.7817 35.9606 50.232 36.2941C49.7352 36.5954 49.3902 37.4855 49.2315 38.0352L57.7024 37.6879C57.5853 37.0081 57.2464 36.3862 56.7387 35.9192C56.4535 35.6754 55.7267 35.5811 54.855 35.5811Z" fill="#093F68"/>
<path d="M61.962 51.1636L59.57 38.1801C59.4481 38.0352 59.3791 37.9501 59.3791 37.9501C58.9383 37.5265 58.3506 37.2899 57.7392 37.29H48.5576C48.3069 37.29 47.3823 37.1704 45.9011 38.4124C43.7621 40.2087 40.7261 42.465 39.1276 43.9968L40.4938 50.8968C40.7629 50.9612 45.1444 48.9579 45.1444 48.9579L45.5768 51.1544L61.962 51.1636Z" fill="#68E1FD"/>
<path d="M61.962 51.3935H45.5768C45.523 51.3946 45.4705 51.3768 45.4285 51.3431C45.3865 51.3095 45.3576 51.2622 45.3468 51.2095L44.9696 49.2982C40.7744 51.2095 40.5283 51.1382 40.4363 51.1382C40.3934 51.128 40.3543 51.1056 40.3237 51.0738C40.2931 51.042 40.2723 51.0021 40.2638 50.9588L38.8976 44.0588C38.8904 44.0211 38.8927 43.9822 38.9044 43.9457C38.916 43.9091 38.9366 43.876 38.9643 43.8495C39.9694 42.8858 41.5564 41.6254 43.0882 40.3995C44.0082 39.6727 44.9489 38.9206 45.7493 38.2467C47.196 37.0346 48.1413 37.0622 48.4978 37.0714H57.7392C58.41 37.0706 59.0548 37.3304 59.5378 37.7959C59.5516 37.8097 59.6229 37.8902 59.7448 38.0259C59.7705 38.0562 59.788 38.0926 59.7954 38.1317L62.1851 51.1221C62.1912 51.1556 62.1899 51.19 62.1811 51.2229C62.1723 51.2557 62.1563 51.2863 62.1343 51.3122C62.1123 51.3382 62.0848 51.3589 62.0539 51.373C62.0229 51.387 61.9891 51.394 61.9551 51.3935H61.962ZM45.7654 50.9335H61.686L59.3584 38.2835L59.2112 38.111C58.8149 37.7358 58.2895 37.5275 57.7438 37.5291H48.4909C48.1827 37.5291 47.3616 37.4969 46.0483 38.5986C45.2433 39.2748 44.2957 40.0269 43.378 40.756C41.8991 41.9313 40.3719 43.148 39.3783 44.0841L40.6732 50.6391C41.3011 50.4344 43.2837 49.5719 45.0432 48.7646C45.0748 48.7504 45.1092 48.7436 45.1438 48.7446C45.1783 48.7456 45.2123 48.7544 45.243 48.7703C45.2737 48.7862 45.3005 48.8088 45.3212 48.8365C45.342 48.8642 45.3562 48.8962 45.3629 48.9302L45.7654 50.9335Z" fill="#093F68"/>
<path d="M53.7832 38.5688H62.008C62.3745 38.5603 62.7384 38.6316 63.0747 38.7776C63.4109 38.9237 63.7113 39.1411 63.9553 39.4147C64.1992 39.6884 64.3807 40.0118 64.4873 40.3625C64.5938 40.7133 64.6229 41.083 64.5725 41.4461L63.5168 51.1636H49.5374L50.6 41.4461C50.6983 40.6649 51.0737 39.9449 51.6578 39.4169C52.2419 38.8889 52.9961 38.588 53.7832 38.5688Z" fill="#093F68"/>
<path d="M63.5168 51.3935H49.5374C49.5053 51.3935 49.4736 51.3867 49.4443 51.3736C49.4149 51.3605 49.3887 51.3415 49.3672 51.3176C49.3458 51.2937 49.3296 51.2657 49.3197 51.2352C49.3098 51.2047 49.3064 51.1724 49.3097 51.1405L50.37 41.4207C50.4766 40.583 50.8801 39.8113 51.5072 39.2458C52.1344 38.6802 52.9435 38.3584 53.7878 38.3387H62.008C62.4065 38.3305 62.8021 38.4086 63.1675 38.5678C63.5329 38.727 63.8596 38.9635 64.1249 39.2609C64.3902 39.5584 64.588 39.9098 64.7045 40.291C64.8211 40.6721 64.8537 41.074 64.8002 41.469L63.7445 51.1888C63.7383 51.2449 63.7116 51.2968 63.6696 51.3346C63.6277 51.3723 63.5733 51.3933 63.5168 51.3935ZM49.795 50.9335H63.3098L64.3425 41.4207C64.3894 41.0899 64.3636 40.7528 64.267 40.433C64.1704 40.1131 64.0052 39.8181 63.783 39.5686C63.5608 39.319 63.2869 39.1209 62.9804 38.9879C62.6739 38.855 62.342 38.7904 62.008 38.7987H53.7832C53.053 38.8172 52.3535 39.0967 51.8117 39.5866C51.2699 40.0765 50.9216 40.7443 50.83 41.469L49.795 50.9335Z" fill="#093F68"/>
<path d="M55.0413 38.5687H63.2684C63.6347 38.5606 63.9984 38.6321 64.3343 38.7783C64.6702 38.9245 64.9704 39.142 65.2141 39.4156C65.4577 39.6892 65.639 40.0125 65.7455 40.3631C65.8519 40.7136 65.881 41.0831 65.8306 41.446L64.7749 51.1635H50.7978L51.8535 41.446C51.9519 40.6641 52.3279 39.9434 52.913 39.4153C53.4981 38.8872 54.2533 38.5868 55.0413 38.5687Z" fill="#F56132"/>
<path d="M64.7749 51.3935H50.7978C50.7657 51.3934 50.734 51.3866 50.7047 51.3735C50.6754 51.3604 50.6491 51.3414 50.6276 51.3176C50.6062 51.2937 50.5901 51.2656 50.5801 51.2351C50.5702 51.2046 50.5668 51.1724 50.5701 51.1405L51.6258 41.4207C51.7319 40.5831 52.1349 39.8114 52.7617 39.2459C53.3884 38.6803 54.1973 38.3584 55.0413 38.3387H63.2684C63.6649 38.3331 64.0579 38.4123 64.4213 38.5709C64.7846 38.7296 65.1099 38.9641 65.3752 39.2587C65.6413 39.5579 65.8405 39.9105 65.9595 40.2928C66.0785 40.6751 66.1145 41.0785 66.0652 41.4759L65.0095 51.1957C65.0016 51.2517 64.9733 51.3029 64.93 51.3394C64.8867 51.3759 64.8315 51.3951 64.7749 51.3935ZM51.0531 50.9335H64.5702L65.6029 41.4207C65.6455 41.0878 65.6166 40.7497 65.5183 40.4288C65.4199 40.108 65.2543 39.8118 65.0325 39.56C64.8095 39.3149 64.5368 39.1203 64.2326 38.989C63.9284 38.8577 63.5997 38.7928 63.2684 38.7987H55.0413C54.31 38.8159 53.6092 39.0949 53.0661 39.5848C52.5229 40.0748 52.1735 40.7433 52.0812 41.469L51.0531 50.9335Z" fill="#093F68"/>
<path d="M39.1276 43.9989L29.5274 45.1305C29.5274 45.1305 27.2504 42.9087 26.7674 42.9938C26.2844 43.0789 26.7996 44.7418 26.7996 44.7418C26.7996 44.7418 25.0953 43.5918 24.794 44.5808C24.4927 45.5698 24.564 47.419 24.9872 47.9802C25.4104 48.5414 27.1699 48.7622 30.0472 48.5966L40.2247 49.4062L39.1276 43.9989Z" fill="#FFC9B0"/>
<path d="M40.2224 49.6363H40.204L30.0426 48.829C27.0526 48.9992 25.3046 48.7623 24.8124 48.1229C24.3202 47.4835 24.265 45.5515 24.5824 44.5165C24.6122 44.4001 24.6695 44.2925 24.7495 44.2028C24.8296 44.1131 24.93 44.044 25.0424 44.0013C25.461 43.8518 26.0314 44.0657 26.4362 44.2681C26.3373 43.8219 26.266 43.2538 26.4362 42.9732C26.4667 42.9208 26.5082 42.8755 26.5578 42.8406C26.6074 42.8056 26.664 42.7818 26.7237 42.7708C27.2251 42.6788 28.7063 44.0266 29.601 44.8914L39.1 43.769C39.1572 43.7628 39.2147 43.7782 39.2612 43.8122C39.3076 43.8463 39.3395 43.8965 39.3507 43.953L40.4455 49.3603C40.4526 49.3951 40.4515 49.4311 40.4423 49.4654C40.4331 49.4998 40.4161 49.5315 40.3926 49.5581C40.3713 49.5824 40.3451 49.6019 40.3158 49.6153C40.2865 49.6288 40.2547 49.636 40.2224 49.6363ZM30.0449 48.3667H30.0633L39.9372 49.151L38.9459 44.252L29.555 45.3606C29.5207 45.3647 29.486 45.3611 29.4534 45.3499C29.4207 45.3388 29.391 45.3204 29.3664 45.2962C28.3843 44.3371 27.1607 43.2975 26.8364 43.2262C26.7559 43.3872 26.8364 44.0565 27.0342 44.6752C27.0483 44.7208 27.0478 44.7697 27.0328 44.815C27.0179 44.8603 26.9892 44.8998 26.9508 44.9281C26.9124 44.9564 26.8662 44.9721 26.8185 44.9729C26.7708 44.9738 26.724 44.9598 26.6846 44.9328C26.3005 44.6729 25.5622 44.3095 25.2103 44.4314C25.1637 44.4487 25.1222 44.4776 25.09 44.5155C25.0578 44.5533 25.0358 44.5988 25.0263 44.6476C24.7342 45.609 24.8216 47.3685 25.1827 47.84C25.3621 48.07 26.1924 48.5875 30.038 48.3667H30.0449Z" fill="#093F68"/>
<path d="M45.1444 49.1971C45.0931 49.1963 45.0435 49.1784 45.0036 49.1461C44.9637 49.1139 44.9357 49.0693 44.924 49.0193C44.9124 48.9693 44.9178 48.9169 44.9394 48.8703C44.961 48.8238 44.9975 48.7858 45.0432 48.7624L48.3276 47.1501C48.3548 47.1356 48.3846 47.1266 48.4152 47.1238C48.4459 47.1209 48.4768 47.1243 48.5062 47.1337C48.5355 47.143 48.5627 47.1582 48.5861 47.1782C48.6094 47.1983 48.6285 47.2228 48.6423 47.2504C48.656 47.278 48.664 47.308 48.6659 47.3388C48.6678 47.3695 48.6634 47.4003 48.6532 47.4294C48.6429 47.4584 48.627 47.4851 48.6062 47.5079C48.5854 47.5306 48.5603 47.5489 48.5323 47.5618L45.2479 49.1856C45.2147 49.1973 45.1793 49.2012 45.1444 49.1971Z" fill="#093F68"/>
<path d="M29.3526 42.8466C29.3025 42.8493 29.2528 42.8354 29.2113 42.8072C29.1698 42.7789 29.1386 42.7379 29.1226 42.6902L26.7927 35.8178C26.7806 35.7887 26.7746 35.7575 26.7751 35.726C26.7756 35.6945 26.7826 35.6634 26.7956 35.6347C26.8085 35.606 26.8273 35.5802 26.8507 35.5591C26.874 35.5379 26.9015 35.5218 26.9313 35.5117C26.9612 35.5016 26.9928 35.4977 27.0242 35.5003C27.0556 35.5029 27.0861 35.512 27.1139 35.5269C27.1417 35.5418 27.1661 35.5622 27.1856 35.587C27.2051 35.6117 27.2194 35.6402 27.2274 35.6706L29.5044 42.3797L34.2033 42.2049C34.2643 42.2049 34.3228 42.2292 34.366 42.2723C34.4091 42.3154 34.4333 42.3739 34.4333 42.4349C34.4333 42.4959 34.4091 42.5544 34.366 42.5976C34.3228 42.6407 34.2643 42.6649 34.2033 42.6649L29.3342 42.8466H29.3526Z" fill="#DFEAEF"/>
<path d="M31.1144 42.0393C31.0677 42.0396 31.022 42.0257 30.9834 41.9994C30.9447 41.9731 30.915 41.9357 30.8982 41.8921L29.831 39.07C29.8094 39.0129 29.8113 38.9496 29.8363 38.894C29.8613 38.8384 29.9074 38.7949 29.9644 38.7733C30.0215 38.7516 30.0848 38.7535 30.1404 38.7785C30.196 38.8035 30.2395 38.8496 30.2611 38.9067L31.3283 41.7288C31.339 41.757 31.3441 41.7871 31.3432 41.8173C31.3423 41.8475 31.3355 41.8772 31.3231 41.9048C31.3107 41.9323 31.293 41.9572 31.271 41.9779C31.249 41.9986 31.2232 42.0148 31.1949 42.0255C31.169 42.0345 31.1418 42.0392 31.1144 42.0393Z" fill="#DFEAEF"/>
<path d="M29.5274 44.873H31.1144V48.5093H29.5274V44.873Z" fill="#68E1FD"/>
<path d="M31.1144 48.7394H29.5274C29.4664 48.7394 29.4079 48.7151 29.3648 48.672C29.3217 48.6289 29.2974 48.5704 29.2974 48.5094V44.8731C29.2974 44.8121 29.3217 44.7536 29.3648 44.7104C29.4079 44.6673 29.4664 44.6431 29.5274 44.6431H31.1144C31.1754 44.6431 31.2339 44.6673 31.2771 44.7104C31.3202 44.7536 31.3444 44.8121 31.3444 44.8731V48.5094C31.3444 48.5704 31.3202 48.6289 31.2771 48.672C31.2339 48.7151 31.1754 48.7394 31.1144 48.7394ZM29.7574 48.2794H30.8844V45.1031H29.7574V48.2794Z" fill="#093F68"/>
<path d="M30.3209 47.5158C30.8036 47.5158 31.1949 47.1245 31.1949 46.6418C31.1949 46.1591 30.8036 45.7678 30.3209 45.7678C29.8382 45.7678 29.4469 46.1591 29.4469 46.6418C29.4469 47.1245 29.8382 47.5158 30.3209 47.5158Z" fill="white"/>
<path d="M30.3209 47.7456C30.1026 47.7456 29.8891 47.6808 29.7076 47.5595C29.526 47.4382 29.3845 47.2658 29.301 47.0641C29.2174 46.8624 29.1955 46.6404 29.2381 46.4262C29.2807 46.2121 29.3859 46.0154 29.5403 45.861C29.6947 45.7066 29.8914 45.6014 30.1055 45.5588C30.3197 45.5162 30.5417 45.5381 30.7434 45.6216C30.9451 45.7052 31.1176 45.8467 31.2389 46.0282C31.3602 46.2098 31.4249 46.4232 31.4249 46.6416C31.4249 46.9344 31.3086 47.2152 31.1016 47.4222C30.8945 47.6293 30.6137 47.7456 30.3209 47.7456ZM30.3209 45.9976C30.1935 45.9976 30.069 46.0354 29.9631 46.1061C29.8572 46.1769 29.7747 46.2775 29.7259 46.3952C29.6772 46.5128 29.6644 46.6423 29.6893 46.7672C29.7141 46.8922 29.7755 47.0069 29.8655 47.097C29.9556 47.187 30.0704 47.2484 30.1953 47.2732C30.3202 47.2981 30.4497 47.2853 30.5674 47.2366C30.685 47.1878 30.7856 47.1053 30.8564 46.9994C30.9271 46.8935 30.9649 46.769 30.9649 46.6416C30.9643 46.4712 30.8962 46.308 30.7755 46.1877C30.6548 46.0674 30.4913 45.9999 30.3209 45.9999V45.9976Z" fill="#093F68"/>
<path d="M42.3568 43.4701C42.2199 43.4706 42.0834 43.4559 41.9497 43.4264C41.4422 43.3062 40.9982 43.0001 40.7054 42.5685C40.6731 42.5166 40.6627 42.454 40.6765 42.3945C40.6903 42.335 40.7272 42.2834 40.779 42.2511C40.8309 42.2187 40.8934 42.2083 40.953 42.2221C41.0125 42.2359 41.0641 42.2728 41.0964 42.3247C41.3247 42.6522 41.6651 42.8846 42.0532 42.9779C42.5132 43.0791 43.0376 42.9411 43.5942 42.5731C43.7956 42.4561 43.9705 42.2986 44.1078 42.1105C44.2452 41.9225 44.3421 41.708 44.3923 41.4806C44.5303 40.7216 44.0174 40.0063 44.0105 39.9994C43.9742 39.95 43.9591 39.8881 43.9683 39.8275C43.9776 39.7669 44.0106 39.7125 44.06 39.6762C44.1094 39.6399 44.1712 39.6247 44.2318 39.634C44.2924 39.6433 44.3468 39.6762 44.3831 39.7257C44.4084 39.7625 45.0156 40.602 44.8431 41.5657C44.7835 41.8561 44.6637 42.1308 44.4914 42.3721C44.3191 42.6134 44.098 42.8158 43.8426 42.9664C43.408 43.2774 42.891 43.4526 42.3568 43.4701Z" fill="#093F68"/>
<path d="M42.1866 50.2687C42.1381 50.2687 42.0909 50.2533 42.0516 50.2248C42.0124 50.1963 41.9832 50.1562 41.9681 50.11L39.744 43.3136C39.7252 43.2556 39.7301 43.1925 39.7577 43.1382C39.7853 43.0839 39.8333 43.0427 39.8912 43.0237C39.9492 43.0049 40.0122 43.0098 40.0666 43.0374C40.1209 43.065 40.1621 43.113 40.181 43.1709L42.4051 49.9674C42.4241 50.0251 42.4195 50.0879 42.3924 50.1422C42.3652 50.1965 42.3177 50.2378 42.2602 50.2572C42.2363 50.2644 42.2116 50.2683 42.1866 50.2687Z" fill="#093F68"/>
<path d="M36.9426 28.4693H24.6836C24.6226 28.4693 24.5641 28.445 24.521 28.4019C24.4778 28.3588 24.4536 28.3003 24.4536 28.2393V18.2044C24.4536 18.1434 24.4778 18.0849 24.521 18.0417C24.5641 17.9986 24.6226 17.9744 24.6836 17.9744H36.9426C37.0036 17.9744 37.0621 17.9986 37.1052 18.0417C37.1484 18.0849 37.1726 18.1434 37.1726 18.2044V28.2393C37.1726 28.3003 37.1484 28.3588 37.1052 28.4019C37.0621 28.445 37.0036 28.4693 36.9426 28.4693ZM24.9136 28.0093H36.7126V18.4344H24.9136V28.0093Z" fill="#DFEAEF"/>
<path d="M32.43 25.4563H27.37C27.309 25.4563 27.2505 25.432 27.2074 25.3889C27.1642 25.3458 27.14 25.2873 27.14 25.2263V20.1663C27.14 20.1053 27.1642 20.0468 27.2074 20.0036C27.2505 19.9605 27.309 19.9363 27.37 19.9363H32.43C32.491 19.9363 32.5495 19.9605 32.5926 20.0036C32.6358 20.0468 32.66 20.1053 32.66 20.1663V25.2263C32.66 25.2873 32.6358 25.3458 32.5926 25.3889C32.5495 25.432 32.491 25.4563 32.43 25.4563ZM27.6 24.9963H32.2V20.3963H27.6V24.9963Z" fill="#DFEAEF"/>
<path d="M32.3541 26.9468C31.757 26.9472 31.1732 26.7707 30.6764 26.4394C30.1797 26.1082 29.7922 25.6371 29.5631 25.0857C29.334 24.5344 29.2734 23.9274 29.3892 23.3417C29.5049 22.7559 29.7916 22.2176 30.2132 21.7947C30.6347 21.3719 31.1722 21.0835 31.7576 20.966C32.343 20.8485 32.9501 20.9072 33.5022 21.1347C34.0542 21.3621 34.5265 21.7481 34.8592 22.2439C35.192 22.7396 35.3703 23.3229 35.3717 23.92C35.3726 24.3169 35.2952 24.7102 35.144 25.0772C34.9928 25.4443 34.7707 25.7779 34.4905 26.059C34.2102 26.3401 33.8772 26.5633 33.5107 26.7156C33.1441 26.8679 32.7511 26.9465 32.3541 26.9468ZM32.3541 21.3693C31.8473 21.3688 31.3518 21.5188 30.9303 21.8002C30.5088 22.0816 30.1804 22.4818 29.9866 22.9501C29.7927 23.4183 29.7422 23.9336 29.8415 24.4306C29.9408 24.9275 30.1853 25.3839 30.5441 25.7417C30.903 26.0996 31.36 26.3429 31.8572 26.4408C32.3544 26.5388 32.8696 26.4869 33.3373 26.2918C33.805 26.0967 34.2043 25.7672 34.4846 25.3449C34.7649 24.9227 34.9135 24.4268 34.9117 23.92C34.9087 23.2432 34.638 22.5952 34.1588 22.1173C33.6796 21.6394 33.0309 21.3705 32.3541 21.3693Z" fill="#DFEAEF"/>
<path d="M70.9757 35.2382H63.0752C63.0142 35.2382 62.9557 35.214 62.9126 35.1708C62.8695 35.1277 62.8452 35.0692 62.8452 35.0082V24.6858C62.8452 24.6248 62.8695 24.5663 62.9126 24.5232C62.9557 24.48 63.0142 24.4558 63.0752 24.4558H70.9757C71.0367 24.4558 71.0952 24.48 71.1384 24.5232C71.1815 24.5663 71.2057 24.6248 71.2057 24.6858V35.0082C71.2057 35.0692 71.1815 35.1277 71.1384 35.1708C71.0952 35.214 71.0367 35.2382 70.9757 35.2382ZM63.3052 34.7782H70.7457V24.9158H63.3052V34.7782Z" fill="#DFEAEF"/>
<path d="M69.4071 33.9318H64.5886C64.5508 33.9316 64.5135 33.9221 64.4802 33.904C64.4469 33.886 64.4186 33.86 64.3977 33.8283C64.3771 33.7971 64.3645 33.7612 64.3609 33.724C64.3573 33.6867 64.3628 33.6491 64.377 33.6144L66.7851 27.7241C66.8025 27.6818 66.8322 27.6456 66.8703 27.6202C66.9084 27.5948 66.9532 27.5813 66.999 27.5815C67.0444 27.5818 67.0888 27.5954 67.1264 27.6208C67.1641 27.6462 67.1934 27.6821 67.2106 27.7241L69.621 33.6144C69.6349 33.6493 69.6401 33.687 69.6361 33.7243C69.6321 33.7615 69.619 33.7973 69.598 33.8283C69.5772 33.86 69.5489 33.886 69.5156 33.904C69.4823 33.9221 69.445 33.9316 69.4071 33.9318ZM64.9313 33.4718H69.0713L67.0013 28.4118L64.9313 33.4718Z" fill="#DFEAEF"/>
<path d="M68.77 29.5481H64.5886C64.5276 29.5481 64.4691 29.5239 64.426 29.4807C64.3829 29.4376 64.3586 29.3791 64.3586 29.3181V25.8865C64.3586 25.8255 64.3829 25.767 64.426 25.7239C64.4691 25.6807 64.5276 25.6565 64.5886 25.6565H68.77C68.831 25.6565 68.8895 25.6807 68.9327 25.7239C68.9758 25.767 69 25.8255 69 25.8865V29.3181C69 29.3791 68.9758 29.4376 68.9327 29.4807C68.8895 29.5239 68.831 29.5481 68.77 29.5481ZM64.8278 29.0881H68.54V26.1165H64.8186L64.8278 29.0881Z" fill="#DFEAEF"/>
<path d="M65.5017 21.8223H60.5153C60.4543 21.8223 60.3958 21.7981 60.3526 21.755C60.3095 21.7118 60.2853 21.6533 60.2853 21.5923V17.8364C60.2853 17.7754 60.3095 17.7169 60.3526 17.6738C60.3958 17.6307 60.4543 17.6064 60.5153 17.6064H65.5017C65.5627 17.6064 65.6212 17.6307 65.6643 17.6738C65.7074 17.7169 65.7317 17.7754 65.7317 17.8364V21.5923C65.7317 21.6533 65.7074 21.7118 65.6643 21.755C65.6212 21.7981 65.5627 21.8223 65.5017 21.8223ZM60.7453 21.3623H65.2717V18.0664H60.7453V21.3623Z" fill="#DFEAEF"/>
<path d="M61.962 20.3963C61.9175 20.396 61.8741 20.3828 61.8369 20.3583C61.7998 20.3338 61.7705 20.2991 61.7527 20.2583C61.7405 20.2307 61.7338 20.2009 61.733 20.1707C61.7323 20.1405 61.7375 20.1104 61.7484 20.0822C61.7593 20.054 61.7757 20.0282 61.7965 20.0063C61.8174 19.9845 61.8424 19.9669 61.87 19.9547L62.9165 19.4947C62.9518 19.4797 62.9902 19.4737 63.0284 19.4773C63.0665 19.4809 63.1032 19.494 63.135 19.5154L63.6272 19.8443L64.4 18.7403C64.4165 18.7138 64.4382 18.6909 64.4637 18.673C64.4893 18.6552 64.5183 18.6427 64.5488 18.6364C64.5794 18.63 64.6109 18.63 64.6415 18.6363C64.6721 18.6425 64.7011 18.6549 64.7267 18.6727C64.7523 18.6906 64.7741 18.7134 64.7906 18.7399C64.8071 18.7664 64.8181 18.7959 64.8228 18.8268C64.8275 18.8576 64.8259 18.8891 64.8181 18.9193C64.8102 18.9495 64.7963 18.9778 64.7772 19.0025L63.8756 20.2974C63.8412 20.3464 63.789 20.3801 63.7302 20.3913C63.6714 20.4025 63.6105 20.3902 63.5605 20.3572L62.9832 19.9731L62.0632 20.3779C62.0315 20.3923 61.9967 20.3986 61.962 20.3963Z" fill="#DFEAEF"/>
</svg>
