<svg width="92" height="69" viewBox="0 0 92 69" fill="none" xmlns="http://www.w3.org/2000/svg">
<path d="M42.3016 51.3867C42.0394 48.33 42.1659 46.8373 41.8416 45.8253C41.0895 45.225 38.2996 43.6127 35.9605 42.3753C35.7519 42.2644 35.5672 42.1134 35.417 41.931C35.2667 41.7487 35.1539 41.5385 35.0849 41.3125C35.0159 41.0866 34.9921 40.8492 35.0149 40.614C35.0377 40.3788 35.1066 40.1505 35.2176 39.9419C35.6776 39.0656 36.271 39.8545 37.1496 40.3191C39.9326 41.8003 43.9346 42.6306 44.7051 43.6081C45.5745 44.7098 45.333 51.9985 45.333 51.9985L42.3016 51.3867Z" fill="#FFC9B0"/>
<path d="M45.3261 52.2237C45.3108 52.226 45.2953 52.226 45.2801 52.2237L42.2579 51.6165C42.2089 51.6067 42.1644 51.5812 42.1312 51.5438C42.098 51.5065 42.0779 51.4593 42.0739 51.4095C41.9658 50.1744 41.9244 49.19 41.8876 48.3988C41.8393 47.2833 41.8071 46.5335 41.6369 45.9677C40.802 45.3306 38.0167 43.7298 35.8455 42.5775C35.3711 42.3242 35.0164 41.8932 34.8591 41.3789C34.7018 40.8647 34.7546 40.309 35.006 39.8336C35.0557 39.716 35.1304 39.6107 35.2249 39.5249C35.3194 39.4391 35.4315 39.3749 35.5534 39.3368C35.9168 39.2448 36.2664 39.4817 36.6712 39.7554C36.8605 39.8854 37.0571 40.0044 37.26 40.1119C38.5112 40.7766 40.02 41.3148 41.3655 41.7909C43.0767 42.3958 44.4268 42.8765 44.8891 43.4607C45.7815 44.5969 45.5791 51.2462 45.5653 52.0029C45.5641 52.0363 45.5557 52.069 45.5406 52.0988C45.5255 52.1286 45.5041 52.1548 45.4779 52.1754C45.4346 52.2091 45.3808 52.2262 45.3261 52.2237ZM42.5178 51.1933L45.103 51.7154C45.1858 48.8128 45.103 44.4819 44.5188 43.7459C44.1393 43.2652 42.7133 42.7592 41.2022 42.2233C39.8498 41.7426 38.3157 41.1998 37.0346 40.519C36.8211 40.401 36.6138 40.272 36.4136 40.1326C36.1146 39.9279 35.8294 39.737 35.6638 39.7784C35.581 39.7991 35.4959 39.8888 35.4131 40.0452C35.2185 40.4129 35.1776 40.8427 35.2991 41.2406C35.4207 41.6384 35.6949 41.9719 36.0617 42.1681C38.3479 43.3825 41.1861 45.0155 41.9773 45.6457C42.0135 45.6727 42.0401 45.7106 42.0532 45.7538C42.2602 46.3886 42.297 47.1775 42.3476 48.3735C42.3821 49.1233 42.4212 50.0479 42.5178 51.1933Z" fill="#093F68"/>
<path d="M42.3016 51.3867V55.0046C42.3016 55.0046 47.7963 56.058 47.3616 55.2346C46.9269 54.4112 45.1858 53.9466 45.1858 53.9466L45.3307 51.987L42.3016 51.3867Z" fill="#68E1FD"/>
<path d="M46.46 55.7705C45.6895 55.7705 44.4038 55.6394 42.2671 55.23C42.2139 55.2197 42.1661 55.191 42.132 55.1489C42.0979 55.1069 42.0798 55.0541 42.0808 55V51.3867C42.0807 51.3523 42.0883 51.3184 42.103 51.2873C42.1177 51.2563 42.1392 51.2289 42.1659 51.2073C42.1923 51.186 42.2232 51.1708 42.2562 51.1629C42.2892 51.1549 42.3235 51.1544 42.3568 51.1613L45.379 51.7685C45.4342 51.7796 45.4834 51.8105 45.5173 51.8554C45.5512 51.9004 45.5675 51.9562 45.563 52.0123L45.4319 53.7879C45.9103 53.9374 47.173 54.3974 47.5686 55.1334C47.6057 55.1942 47.624 55.2647 47.6211 55.3359C47.6182 55.4071 47.5944 55.4759 47.5525 55.5336C47.4605 55.6601 47.196 55.7705 46.46 55.7705ZM42.55 54.8137C44.4774 55.1725 46.6371 55.4347 47.1316 55.2737C46.7521 54.7079 45.5768 54.287 45.1398 54.1674C45.0896 54.1539 45.0455 54.1238 45.0146 54.0821C44.9837 54.0403 44.9678 53.9893 44.9696 53.9374L45.0984 52.1802L42.55 51.6673V54.8137Z" fill="#093F68"/>
<path d="M39.3921 29.6907C39.3921 29.6907 42.1958 33.2718 42.872 33.1407C43.5482 33.0096 45.5009 31.7124 46.5244 31.2823C48.1643 30.5923 50.7495 30.9235 50.0457 31.5123C49.3419 32.1011 49.5397 31.5583 49.5397 31.5583C45.7286 34.0676 43.0997 35.6983 42.7685 35.6707C41.1217 35.5856 38.0351 32.5105 38.0351 32.5105L39.3921 29.6907Z" fill="#FFC9B0"/>
<path d="M42.78 35.8983H42.757C41.0412 35.8086 38.0006 32.7979 37.8718 32.6783C37.8377 32.6444 37.8152 32.6006 37.8074 32.5531C37.7996 32.5057 37.8068 32.457 37.8281 32.4138L39.1851 29.5986C39.2021 29.5634 39.2278 29.533 39.2598 29.5105C39.2918 29.488 39.329 29.4739 39.3679 29.4698C39.4068 29.4657 39.4462 29.4715 39.4822 29.4868C39.5182 29.5021 39.5497 29.5264 39.5738 29.5572C40.8434 31.1787 42.4511 32.9267 42.8329 32.9267C43.171 32.8623 44.0013 32.3954 44.7304 31.9814C45.282 31.6535 45.8501 31.3541 46.4324 31.0844C47.7641 30.5278 49.9882 30.5531 50.3424 31.1304C50.3697 31.1771 50.3876 31.2287 50.395 31.2823C50.4024 31.3359 50.3992 31.3904 50.3855 31.4427C50.3719 31.495 50.348 31.5442 50.3153 31.5873C50.2827 31.6304 50.2418 31.6666 50.1952 31.6939C49.8732 31.9584 49.6179 32.1056 49.4132 31.9607L49.3879 31.94C43.5965 35.7373 42.9594 35.8983 42.78 35.8983ZM38.3134 32.4483C38.8861 33.0003 41.4138 35.3578 42.7823 35.4383C42.9019 35.4199 43.7828 35.0726 49.4109 31.3627C49.4503 31.334 49.4978 31.3185 49.5466 31.3185C49.5954 31.3185 49.6429 31.334 49.6823 31.3627C49.7067 31.3847 49.7277 31.4103 49.7444 31.4386C49.7858 31.4087 49.8364 31.3696 49.8985 31.319C49.5765 31.1166 47.8998 30.9533 46.6049 31.4938C46.1748 31.6755 45.5538 32.0274 44.9535 32.3678C44.1163 32.8393 43.3274 33.2878 42.9065 33.366C42.6765 33.4097 41.8623 33.1728 39.4335 30.1161L38.3134 32.4483Z" fill="#093F68"/>
<path d="M28.704 51.5293H38.8562V53.1255H28.704V51.5293Z" fill="#F56132"/>
<path d="M38.8562 53.36H28.704C28.643 53.36 28.5845 53.3358 28.5414 53.2927C28.4982 53.2495 28.474 53.191 28.474 53.13V51.52C28.474 51.459 28.4982 51.4005 28.5414 51.3574C28.5845 51.3143 28.643 51.29 28.704 51.29H38.8562C38.9172 51.29 38.9757 51.3143 39.0188 51.3574C39.062 51.4005 39.0862 51.459 39.0862 51.52V53.13C39.0862 53.191 39.062 53.2495 39.0188 53.2927C38.9757 53.3358 38.9172 53.36 38.8562 53.36ZM28.934 52.9H38.6262V51.75H28.934V52.9Z" fill="#093F68"/>
<path d="M28.2095 55.5727H27.6943C27.6218 55.5726 27.5503 55.5563 27.4849 55.525C27.4195 55.4937 27.362 55.4481 27.3166 55.3916C27.2711 55.3351 27.2389 55.2692 27.2223 55.1986C27.2057 55.1281 27.2051 55.0547 27.2205 54.9839L29.7505 43.4678H31.257L28.6925 55.1978C28.6668 55.306 28.6049 55.4021 28.5171 55.4703C28.4292 55.5385 28.3207 55.5746 28.2095 55.5727Z" fill="#F56132"/>
<path d="M28.2095 55.8025H27.6943C27.5875 55.8026 27.482 55.7786 27.3856 55.7325C27.2893 55.6863 27.2046 55.619 27.1377 55.5357C27.0704 55.4528 27.0229 55.3557 26.9986 55.2517C26.9743 55.1477 26.9739 55.0396 26.9974 54.9354L29.5274 43.4193C29.5386 43.367 29.5677 43.3202 29.6097 43.2871C29.6517 43.2539 29.7039 43.2364 29.7574 43.2376H31.2639C31.2979 43.2378 31.3314 43.2456 31.362 43.2603C31.3926 43.275 31.4196 43.2963 31.441 43.3227C31.4629 43.3497 31.4785 43.3813 31.4865 43.4152C31.4944 43.449 31.4946 43.4843 31.487 43.5182L28.9225 55.2482C28.8855 55.4085 28.7944 55.5511 28.6645 55.6521C28.5347 55.7531 28.374 55.8062 28.2095 55.8025ZM29.9253 43.6999L27.4459 55.0366C27.4376 55.0737 27.4378 55.1122 27.4464 55.1493C27.4551 55.1863 27.4719 55.221 27.4958 55.2506C27.5197 55.2802 27.5499 55.304 27.5843 55.3204C27.6187 55.3367 27.6563 55.345 27.6943 55.3448H28.2095C28.2676 55.345 28.324 55.3253 28.3692 55.2888C28.4144 55.2524 28.4458 55.2015 28.4579 55.1447L30.9603 43.6999H29.9253Z" fill="#093F68"/>
<path d="M39.4726 55.5726H39.9855C40.058 55.5725 40.1296 55.5562 40.1949 55.5249C40.2603 55.4936 40.3178 55.448 40.3633 55.3915C40.4087 55.335 40.4409 55.2691 40.4575 55.1985C40.4742 55.128 40.4748 55.0546 40.4593 54.9838L37.95 43.47H36.432L38.9965 55.2C39.0224 55.3066 39.0834 55.4014 39.1698 55.469C39.2562 55.5366 39.3629 55.5731 39.4726 55.5726Z" fill="#F56132"/>
<path d="M39.9855 55.8026H39.4726C39.3112 55.8002 39.1554 55.7436 39.0302 55.6418C38.905 55.5399 38.8178 55.3989 38.7826 55.2414L36.2181 43.5114C36.2105 43.4774 36.2107 43.4422 36.2186 43.4083C36.2266 43.3745 36.2422 43.3429 36.2641 43.3159C36.2855 43.2895 36.3125 43.2682 36.3431 43.2535C36.3737 43.2387 36.4072 43.231 36.4412 43.2308H37.95C38.0035 43.2296 38.0557 43.2471 38.0977 43.2802C38.1397 43.3134 38.1688 43.3602 38.18 43.4125L40.6985 54.9286C40.7215 55.0323 40.721 55.1398 40.6971 55.2433C40.6731 55.3467 40.6264 55.4436 40.5603 55.5267C40.4941 55.6098 40.4103 55.677 40.3148 55.7236C40.2194 55.7701 40.1147 55.7948 40.0085 55.7957L39.9855 55.8026ZM36.7195 43.7L39.2219 55.1448C39.2345 55.2018 39.2663 55.2527 39.3119 55.2891C39.3575 55.3255 39.4142 55.3452 39.4726 55.3449H39.9855C40.0235 55.3451 40.0611 55.3367 40.0955 55.3204C40.1299 55.3041 40.1601 55.2803 40.184 55.2506C40.2079 55.221 40.2247 55.1864 40.2334 55.1494C40.242 55.1123 40.2422 55.0738 40.2339 55.0367L37.7545 43.7H36.7195Z" fill="#093F68"/>
<path d="M38.0006 42.6375H27.6C27.3192 42.6375 27.0917 42.865 27.0917 43.1457V43.7875C27.0917 44.0682 27.3192 44.2957 27.6 44.2957H38.0006C38.2813 44.2957 38.5089 44.0682 38.5089 43.7875V43.1457C38.5089 42.865 38.2813 42.6375 38.0006 42.6375Z" fill="#F56132"/>
<path d="M38.0029 44.5281H27.6C27.4042 44.5281 27.2164 44.4503 27.0779 44.3118C26.9395 44.1734 26.8617 43.9856 26.8617 43.7898V43.1481C26.8617 42.952 26.9394 42.764 27.0778 42.6252C27.2162 42.4864 27.404 42.4081 27.6 42.4075H38.0029C38.1989 42.4081 38.3867 42.4864 38.5251 42.6252C38.6635 42.764 38.7412 42.952 38.7412 43.1481V43.7898C38.7412 43.8867 38.7221 43.9827 38.685 44.0723C38.6479 44.1619 38.5935 44.2433 38.525 44.3118C38.4564 44.3804 38.375 44.4348 38.2854 44.4719C38.1959 44.509 38.0998 44.5281 38.0029 44.5281ZM27.6 42.8675C27.526 42.8681 27.4552 42.8979 27.4031 42.9505C27.3509 43.003 27.3217 43.074 27.3217 43.1481V43.7898C27.3217 43.8636 27.351 43.9344 27.4032 43.9866C27.4554 44.0388 27.5262 44.0681 27.6 44.0681H38.0029C38.0767 44.0681 38.1475 44.0388 38.1997 43.9866C38.2519 43.9344 38.2812 43.8636 38.2812 43.7898V43.1481C38.2812 43.074 38.2519 43.003 38.1998 42.9505C38.1477 42.8979 38.0769 42.8681 38.0029 42.8675H27.6Z" fill="#093F68"/>
<path d="M41.3747 51.3865C41.1102 48.3298 41.239 46.8371 40.9147 45.8251C40.1626 45.2248 37.3727 43.6125 35.0336 42.3751C34.6167 42.1489 34.306 41.7672 34.1692 41.313C34.0323 40.8588 34.0805 40.3689 34.3031 39.9501C34.5257 39.5312 34.9048 39.2173 35.3578 39.0766C35.8108 38.9358 36.3011 38.9798 36.7218 39.1988C39.5071 40.6777 43.0077 42.6304 43.7782 43.6079C44.6453 44.7096 44.4061 51.9983 44.4061 51.9983L41.3747 51.3865Z" fill="#FFC9B0"/>
<path d="M44.39 52.2237C44.3747 52.2261 44.3592 52.2261 44.344 52.2237L41.3195 51.6165C41.2709 51.6063 41.227 51.5806 41.1942 51.5432C41.1615 51.5059 41.1417 51.459 41.1378 51.4095C41.0297 50.1744 40.986 49.19 40.9515 48.3988C40.9032 47.2833 40.871 46.5335 40.7008 45.9677C39.8659 45.3306 37.0783 43.7298 34.9094 42.5775C34.435 42.3242 34.0803 41.8932 33.923 41.379C33.7657 40.8647 33.8185 40.309 34.0699 39.8336C34.3232 39.3593 34.7542 39.0046 35.2685 38.8473C35.7827 38.6899 36.3384 38.7427 36.8138 38.9941C40.986 41.2113 43.3182 42.6741 43.9438 43.4653C44.8362 44.6015 44.6338 51.2508 44.6177 52.0075C44.6177 52.0685 44.5935 52.127 44.5503 52.1702C44.5072 52.2133 44.4487 52.2375 44.3877 52.2375L44.39 52.2237ZM41.5794 51.1933L44.1669 51.7154C44.2497 48.8128 44.1669 44.4819 43.5827 43.7459C42.9985 43.0099 40.6571 41.5517 36.5976 39.3966C36.4156 39.3 36.2164 39.2401 36.0113 39.2205C35.8061 39.2008 35.5992 39.2218 35.4021 39.2821C35.2051 39.3424 35.0219 39.441 34.863 39.5721C34.704 39.7033 34.5725 39.8644 34.4758 40.0464C34.3792 40.2284 34.3193 40.4276 34.2997 40.6327C34.28 40.8378 34.3009 41.0448 34.3613 41.2418C34.4216 41.4389 34.5202 41.6221 34.6513 41.781C34.7824 41.9399 34.9436 42.0715 35.1256 42.1681C37.4118 43.3825 40.25 45.0155 41.0412 45.6457C41.0774 45.6728 41.104 45.7106 41.1171 45.7538C41.3241 46.3886 41.3586 47.1775 41.4115 48.3735C41.4529 49.1233 41.4943 50.0479 41.5886 51.1933H41.5794Z" fill="#093F68"/>
<path d="M43.47 32.8003C42.435 32.4001 39.0264 29.0168 38.6883 28.8535L38.5273 28.7776C37.3985 28.2764 36.2153 27.9082 35.0014 27.6805C33.5731 27.4505 32.0827 27.5172 31.2547 28.4901C29.325 30.7602 29.2353 37.3796 29.2353 37.3796L38.042 38.9896C38.6294 37.2855 39.0906 35.5404 39.422 33.7686C40.4547 34.6311 41.8393 35.627 42.7662 35.6753L43.47 32.8003Z" fill="white"/>
<path d="M38.0351 39.2126H37.9937L29.187 37.6026C29.1334 37.5928 29.085 37.5643 29.0505 37.5222C29.016 37.4801 28.9975 37.4271 28.9984 37.3726C28.9984 37.0989 29.1111 30.6428 31.0684 28.3382C31.8274 27.4435 33.1591 27.1445 35.0267 27.4504C36.2608 27.6792 37.4636 28.0529 38.6101 28.5636C38.7205 28.6119 38.7803 28.6441 38.7803 28.6441C38.9091 28.7062 39.2081 28.9707 40.0246 29.7159C41.1746 30.7578 42.8973 32.3333 43.5413 32.5817C43.5933 32.6019 43.6363 32.6403 43.6621 32.6898C43.6879 32.7393 43.6948 32.7966 43.6816 32.8508L42.9916 35.7189C42.979 35.7699 42.9493 35.8151 42.9074 35.8469C42.8656 35.8787 42.8141 35.8952 42.7616 35.8937C42.0164 35.8546 40.9469 35.2796 39.5853 34.1825C39.2506 35.8347 38.8065 37.4629 38.2559 39.0562C38.2403 39.1023 38.2106 39.1422 38.1709 39.1703C38.1312 39.1984 38.0837 39.2132 38.0351 39.2126ZM29.463 37.1886L37.881 38.7204C38.4381 37.0879 38.8777 35.4177 39.1966 33.7225C39.2034 33.6826 39.2206 33.6453 39.2464 33.6142C39.2723 33.5831 39.3058 33.5594 39.3438 33.5454C39.3823 33.5311 39.424 33.5274 39.4644 33.5347C39.5049 33.542 39.5426 33.56 39.5738 33.5868C40.8434 34.6448 41.9037 35.2865 42.596 35.4153L43.1986 32.929C42.3982 32.4989 40.8641 31.1028 39.721 30.0609C39.2127 29.6009 38.686 29.1179 38.5825 29.0581L38.4307 28.9891C37.3202 28.4939 36.1553 28.1311 34.96 27.9081C33.2626 27.6298 32.0735 27.8759 31.4249 28.6395C29.7505 30.606 29.4975 36.0869 29.463 37.1886Z" fill="#093F68"/>
<path d="M39.4703 33.5063H39.4243C39.3947 33.5003 39.3666 33.4885 39.3415 33.4716C39.3165 33.4547 39.295 33.433 39.2784 33.4078C39.2617 33.3826 39.2502 33.3544 39.2444 33.3247C39.2387 33.2951 39.2388 33.2645 39.2449 33.2349L39.7049 31.043C39.7171 30.982 39.753 30.9284 39.8048 30.8939C39.8565 30.8594 39.9199 30.8468 39.9809 30.859C40.0419 30.8712 40.0955 30.9072 40.13 30.9589C40.1646 31.0107 40.1771 31.074 40.1649 31.135L39.7049 33.3269C39.6931 33.3796 39.6631 33.4265 39.6202 33.4593C39.5773 33.4921 39.5242 33.5087 39.4703 33.5063Z" fill="#093F68"/>
<path d="M34.8519 31.9378C34.8313 31.94 34.8104 31.94 34.7898 31.9378C34.7606 31.9298 34.7333 31.9162 34.7095 31.8976C34.6856 31.8791 34.6656 31.856 34.6506 31.8297C34.6357 31.8035 34.6261 31.7745 34.6223 31.7445C34.6186 31.7145 34.6208 31.6841 34.6288 31.6549C34.9692 30.4198 34.7668 27.7449 34.7645 27.7081C34.7599 27.6471 34.7798 27.5868 34.8197 27.5404C34.8596 27.494 34.9162 27.4654 34.9772 27.4609C35.0382 27.4563 35.0986 27.4761 35.1449 27.516C35.1913 27.5559 35.2199 27.6126 35.2245 27.6736C35.2245 27.7863 35.4361 30.4658 35.0727 31.7768C35.0579 31.8237 35.0285 31.8647 34.9888 31.8936C34.9491 31.9226 34.9011 31.9381 34.8519 31.9378Z" fill="#093F68"/>
<path d="M38.0351 33.1935C38.0068 33.1928 37.9788 33.1874 37.9523 33.1774C37.924 33.1667 37.8982 33.1505 37.8762 33.1298C37.8542 33.1091 37.8365 33.0843 37.8241 33.0567C37.8117 33.0292 37.8049 32.9994 37.804 32.9692C37.8031 32.939 37.8082 32.909 37.8189 32.8807C38.2788 31.5761 38.4407 30.1851 38.2927 28.8097C38.2842 28.7493 38.3 28.688 38.3366 28.6393C38.3733 28.5906 38.4278 28.5584 38.4882 28.5498C38.5183 28.5456 38.5489 28.5474 38.5782 28.5551C38.6076 28.5628 38.6352 28.5762 38.6593 28.5946C38.6835 28.613 38.7038 28.636 38.719 28.6622C38.7342 28.6885 38.7441 28.7175 38.7481 28.7476C38.9124 30.1991 38.7417 31.6689 38.249 33.044C38.2327 33.0877 38.2035 33.1254 38.1653 33.152C38.1271 33.1787 38.0817 33.1932 38.0351 33.1935Z" fill="#093F68"/>
<path d="M33.2971 13.1099C32.1149 12.8638 30.8614 13.2755 29.9046 13.9862C29.1617 14.5382 28.5246 15.3662 28.6051 16.2609C28.6668 16.6841 28.7932 17.0953 28.98 17.4799C29.1704 17.8657 29.2553 18.295 29.2261 18.7242C29.2022 18.9411 29.1097 19.1446 28.962 19.3051C28.8143 19.4657 28.6191 19.5748 28.405 19.6166C28.6883 19.8089 29.0076 19.9416 29.3436 20.0068C29.6797 20.0721 30.0254 20.0684 30.36 19.9961C30.6903 19.9209 31.0013 19.7774 31.273 19.5751C31.5447 19.3727 31.7711 19.1158 31.9378 18.8208C32.0121 18.616 32.1499 18.4403 32.3311 18.3194C32.4256 18.2809 32.5259 18.2584 32.6278 18.2527C33.3488 18.1955 34.039 17.9364 34.6196 17.5052C36.34 16.0999 35.3441 13.5423 33.2971 13.1099Z" fill="#725858"/>
<path d="M29.8264 20.2859C29.2784 20.2851 28.7432 20.12 28.29 19.8121C28.2514 19.7858 28.2217 19.7484 28.2048 19.7049C28.188 19.6613 28.1848 19.6137 28.1957 19.5683C28.207 19.5231 28.2317 19.4825 28.2666 19.4517C28.3015 19.4209 28.345 19.4014 28.3912 19.3958C28.5536 19.3596 28.7006 19.2737 28.8119 19.15C28.9232 19.0264 28.9932 18.8711 29.0122 18.7058C29.0326 18.3174 28.9534 17.9303 28.7822 17.5811L28.7201 17.4316C28.5471 17.0688 28.4337 16.6805 28.3843 16.2816C28.3176 15.4168 28.8236 14.5152 29.7781 13.8068C30.8706 12.9926 32.2092 12.6568 33.3546 12.8868C33.9051 13.001 34.4125 13.2674 34.8191 13.6557C35.2257 14.044 35.5152 14.5386 35.6546 15.0833C35.7752 15.5539 35.7568 16.0495 35.6017 16.5099C35.4466 16.9703 35.1614 17.376 34.7806 17.6777C34.1659 18.1441 33.4294 18.4229 32.66 18.4804C32.5814 18.4841 32.5039 18.4996 32.43 18.5264C32.3217 18.612 32.2415 18.7282 32.2 18.8599L32.1563 18.9427C31.9749 19.2666 31.7273 19.5486 31.4297 19.7705C31.1321 19.9925 30.7911 20.1492 30.429 20.2307C30.2308 20.2716 30.0287 20.2901 29.8264 20.2859ZM28.9386 19.6511C29.3757 19.8304 29.8571 19.8721 30.3186 19.7707C30.6171 19.7032 30.8981 19.574 31.1437 19.3914C31.3893 19.2088 31.594 18.9768 31.7446 18.7104L31.7837 18.6345C31.8748 18.4137 32.0366 18.2293 32.2437 18.1101C32.3556 18.0628 32.4744 18.034 32.5956 18.025C33.2779 17.9796 33.933 17.7402 34.4839 17.335C34.7991 17.0893 35.0353 16.7566 35.1632 16.3781C35.2912 15.9995 35.3053 15.5917 35.2038 15.2052C35.0877 14.7416 34.8427 14.3203 34.4971 13.9902C34.1515 13.6601 33.7195 13.4346 33.2511 13.3399C32.2322 13.1283 31.0339 13.4388 30.0426 14.1748C29.6539 14.4646 28.7546 15.2466 28.8328 16.2448C28.8809 16.5936 28.9834 16.9327 29.1364 17.2499L29.1985 17.4017C29.4044 17.8253 29.4941 18.296 29.4584 18.7656C29.4055 19.1166 29.2193 19.4338 28.9386 19.6511Z" fill="#093F68"/>
<path d="M36.2618 13.4872C35.3497 13.2998 34.4004 13.472 33.6122 13.9679C32.8315 14.4689 32.228 15.2027 31.8872 16.0655C31.667 16.5721 31.5739 17.1248 31.6158 17.6755C31.6392 17.9484 31.7165 18.214 31.8432 18.4568C31.9699 18.6996 32.1436 18.9148 32.3541 19.09C32.4808 19.2048 32.6433 19.2723 32.8141 19.2809C32.9291 19.2717 33.0414 19.2413 33.1453 19.1912C34.7301 18.516 36.0619 17.3588 36.9518 15.8838C37.4739 15.0121 37.4233 13.7471 36.2618 13.4872Z" fill="#FFBC0E"/>
<path d="M32.8049 19.5156C32.5866 19.5089 32.3772 19.4277 32.2115 19.2856C31.976 19.0902 31.7819 18.8499 31.6405 18.5785C31.4992 18.3072 31.4133 18.0104 31.3881 17.7055C31.3416 17.1181 31.4395 16.5283 31.6733 15.9874C32.0328 15.0792 32.6694 14.3074 33.4926 13.7817C34.3311 13.2533 35.3421 13.0711 36.3124 13.2734C36.5436 13.3145 36.7611 13.4123 36.9453 13.558C37.1295 13.7037 37.2748 13.8928 37.3681 14.1083C37.4792 14.4224 37.5163 14.7579 37.4764 15.0886C37.4365 15.4194 37.3207 15.7364 37.1381 16.015C36.2245 17.5316 34.8565 18.7218 33.2281 19.4167C33.0977 19.4795 32.9562 19.5162 32.8118 19.5248L32.8049 19.5156ZM35.5442 13.6391C34.904 13.6439 34.2776 13.8253 33.7341 14.1635C32.9944 14.6378 32.423 15.3331 32.1011 16.1507C31.8937 16.6211 31.806 17.1355 31.8458 17.648C31.8643 17.8917 31.9312 18.1293 32.0425 18.3469C32.1539 18.5645 32.3075 18.7577 32.4944 18.9153C32.5811 18.9955 32.6918 19.0449 32.8095 19.0556C32.8945 19.046 32.9771 19.0211 33.0533 18.982C34.5951 18.3261 35.8898 17.1989 36.7517 15.762C36.8943 15.5447 36.9859 15.2979 37.0193 15.0402C37.0528 14.7824 37.0273 14.5204 36.9449 14.2739C36.8798 14.1259 36.7788 13.9964 36.6511 13.8973C36.5234 13.7981 36.373 13.7323 36.2135 13.7058C35.9934 13.6594 35.769 13.6371 35.5442 13.6391Z" fill="#093F68"/>
<path d="M38.0144 13.7148C39.0747 13.7493 40.043 14.1288 40.6364 15.035C41.3264 14.7084 42.1015 15.2236 42.5914 15.7963C43.5206 16.8967 44.0443 18.2825 44.0749 19.7224C44.1071 21.6015 43.2722 23.4277 42.0325 24.8399C41.3722 25.6187 40.5557 26.2503 39.6359 26.6937C38.7055 27.1372 37.6567 27.2679 36.6459 27.0663C33.8307 26.443 32.1149 22.9815 31.7929 20.3572C31.3513 16.6657 34.3045 13.5952 38.0144 13.7148Z" fill="#725858"/>
<path d="M37.5567 27.393C37.2379 27.3937 36.9201 27.359 36.6091 27.2895C33.8146 26.6708 31.9309 23.2714 31.5767 20.3895C31.4613 19.5144 31.5398 18.6246 31.8065 17.7832C32.0731 16.9418 32.5216 16.1693 33.12 15.5204C33.7422 14.8469 34.5029 14.3163 35.3498 13.9649C36.1967 13.6135 37.1097 13.4497 38.0259 13.4849C39.2035 13.524 40.1327 13.961 40.7261 14.7545C41.4759 14.5245 42.2602 15.0489 42.7708 15.6492C43.7387 16.7876 44.2824 18.2261 44.3095 19.7202C44.3417 21.5418 43.5942 23.414 42.2096 24.9918C41.5279 25.7992 40.6829 26.453 39.7302 26.91C39.0483 27.2238 38.3073 27.3885 37.5567 27.393ZM37.8097 13.9426C36.9925 13.937 36.1832 14.1021 35.4335 14.4273C34.6837 14.7524 34.0102 15.2305 33.4558 15.8309C32.9032 16.4305 32.4893 17.1444 32.2437 17.9219C31.998 18.6994 31.9266 19.5215 32.0344 20.3297C32.3679 23.0598 34.1205 26.2683 36.708 26.841C37.6655 27.0307 38.6587 26.9057 39.5393 26.4845C40.4301 26.0549 41.2208 25.4429 41.86 24.6882C43.1687 23.1955 43.8748 21.4337 43.8449 19.7271C43.8125 18.341 43.3087 17.0072 42.4166 15.9459C41.9957 15.4514 41.3034 14.9707 40.7353 15.2421C40.6854 15.2657 40.6286 15.2706 40.5754 15.2558C40.5222 15.241 40.4761 15.2076 40.4455 15.1616C39.813 14.2002 38.7711 13.9702 38.0075 13.9449L37.8097 13.9426Z" fill="#093F68"/>
<path d="M36.3371 27.5258L37.6254 27.7804C37.6559 27.7865 37.6828 27.8044 37.7001 27.8302C37.7175 27.8561 37.7238 27.8877 37.7178 27.9182L37.5898 28.5658C37.5498 28.7681 37.4311 28.9462 37.2598 29.0609C37.0885 29.1757 36.8787 29.2177 36.6764 29.1777C36.4741 29.1378 36.296 29.0191 36.1813 28.8478C36.0665 28.6765 36.0245 28.4666 36.0645 28.2644L36.1925 27.6168C36.1985 27.5863 36.2164 27.5594 36.2423 27.5421C36.2681 27.5248 36.2998 27.5184 36.3303 27.5245L36.3371 27.5258Z" fill="#FFC9B0"/>
<path d="M36.8391 29.4194C36.7727 29.4202 36.7064 29.414 36.6413 29.401C36.3794 29.3493 36.1487 29.1957 35.9999 28.9741C35.8512 28.7524 35.7964 28.4808 35.8478 28.2188L35.9766 27.5702C35.9838 27.5237 36.0006 27.4793 36.026 27.4397C36.0513 27.4001 36.0846 27.3662 36.1238 27.3402C36.2004 27.2898 36.2935 27.2708 36.3837 27.2873L37.6786 27.5449C37.7252 27.5518 37.7697 27.5685 37.8094 27.5939C37.849 27.6192 37.8828 27.6527 37.9086 27.6921C37.9592 27.7686 37.9782 27.8618 37.9615 27.952L37.8327 28.5983C37.7876 28.8264 37.6649 29.032 37.4854 29.18C37.306 29.3279 37.0809 29.4093 36.8483 29.4102L36.8391 29.4194ZM36.4044 27.7703L36.2986 28.3062C36.2709 28.449 36.3006 28.5969 36.3814 28.7179C36.4622 28.8375 36.5871 28.9202 36.7287 28.9479C36.8715 28.9756 37.0194 28.9458 37.1404 28.8651C37.2 28.8255 37.251 28.7743 37.2905 28.7147C37.33 28.655 37.3572 28.5881 37.3704 28.5178L37.4762 27.9796L36.4044 27.7703Z" fill="#093F68"/>
<path d="M42.5802 25.1249C42.7196 24.4196 42.3215 23.7468 41.6909 23.6221C41.0604 23.4975 40.4362 23.9683 40.2968 24.6736C40.1574 25.3789 40.5555 26.0517 41.1861 26.1763C41.8166 26.301 42.4408 25.8302 42.5802 25.1249Z" fill="#FFC9B0"/>
<path d="M41.4 26.4248C41.3158 26.4242 41.2319 26.4158 41.1493 26.3995C40.9622 26.3641 40.7849 26.2886 40.6297 26.1783C40.4744 26.0679 40.3449 25.9252 40.25 25.7601C40.0553 25.4179 39.99 25.0172 40.066 24.6309C40.142 24.2446 40.3542 23.8985 40.664 23.6556C40.8128 23.5391 40.9848 23.4558 41.1685 23.4113C41.3522 23.3669 41.5433 23.3624 41.7289 23.398C42.4833 23.5475 42.964 24.3433 42.8007 25.1713C42.7269 25.559 42.5133 25.906 42.2004 26.1465C41.9705 26.3229 41.6898 26.4205 41.4 26.4248ZM41.4943 23.8327C41.2995 23.8349 41.1106 23.9002 40.9561 24.019C40.736 24.1936 40.5852 24.4408 40.5309 24.7165C40.4765 24.9921 40.5221 25.2781 40.6594 25.5232C40.719 25.6324 40.8019 25.7271 40.9021 25.8007C41.0024 25.8743 41.1176 25.9249 41.2396 25.949C41.3616 25.9732 41.4874 25.9702 41.6081 25.9403C41.7288 25.9105 41.8415 25.8544 41.9382 25.7762C42.1591 25.6055 42.3103 25.3602 42.3637 25.0862C42.4787 24.5066 42.159 23.9546 41.6553 23.8557C41.5996 23.8418 41.5425 23.8341 41.4851 23.8327H41.4943Z" fill="#093F68"/>
<path d="M36.6206 28.2692C34.1159 27.7724 32.4806 24.2373 32.9705 21.7694L33.5225 22.1144L33.8468 20.3641C33.8468 20.3641 40.1695 19.9409 40.0568 18.3999L42.5868 20.1663L41.7059 24.6283C41.1999 27.0939 39.1276 28.7637 36.6206 28.2692Z" fill="#FFC9B0"/>
<path d="M37.5038 28.5867C37.1949 28.5859 36.8868 28.5551 36.5838 28.4947C33.9503 27.9726 32.2483 24.2742 32.752 21.7258C32.7589 21.6891 32.7747 21.6546 32.798 21.6254C32.8212 21.5961 32.8512 21.573 32.8854 21.5579C32.9197 21.543 32.9571 21.5367 32.9944 21.5395C33.0316 21.5423 33.0677 21.5542 33.0993 21.574L33.3638 21.7396L33.626 20.3228C33.6352 20.2723 33.661 20.2262 33.6993 20.1921C33.7377 20.1579 33.7864 20.1375 33.8376 20.1342C35.2176 20.0422 38.9344 19.6098 39.7049 18.7151C39.744 18.6765 39.7746 18.6302 39.7948 18.5791C39.815 18.5281 39.8243 18.4733 39.8222 18.4184C39.8163 18.373 39.8241 18.3268 39.8446 18.2859C39.8651 18.2449 39.8973 18.211 39.9372 18.1884C39.9751 18.1668 40.0184 18.1564 40.0619 18.1585C40.1055 18.1605 40.1476 18.1749 40.1833 18.1999L42.7133 19.9663C42.7494 19.9916 42.7775 20.0267 42.7942 20.0675C42.8109 20.1083 42.8156 20.153 42.8076 20.1963L41.9267 24.656C41.4414 27.0572 39.6589 28.5867 37.5038 28.5867ZM36.6666 28.0416C38.9666 28.5016 40.9768 27.0411 41.4621 24.5916L42.32 20.2699L40.204 18.7887C40.164 18.8714 40.1138 18.9486 40.0545 19.0187C39.0931 20.1342 35.052 20.5091 34.0469 20.585L33.7548 22.1605C33.7479 22.1973 33.7321 22.2317 33.7089 22.261C33.6856 22.2902 33.6556 22.3134 33.6214 22.3284C33.5873 22.3437 33.55 22.3504 33.5128 22.348C33.4755 22.3456 33.4394 22.3341 33.4075 22.3146L33.1499 22.1536C32.8049 24.8745 34.7599 27.6736 36.6735 28.0462L36.6666 28.0416Z" fill="#093F68"/>
<path d="M36.9 23.1011C36.9451 22.8731 36.7968 22.6517 36.5687 22.6066C36.3407 22.5615 36.1193 22.7099 36.0742 22.9379C36.0292 23.166 36.1775 23.3874 36.4055 23.4324C36.6336 23.4775 36.855 23.3292 36.9 23.1011Z" fill="#093F68"/>
<path d="M40.4662 24.2258C40.6986 24.2258 40.8871 24.0374 40.8871 23.8049C40.8871 23.5725 40.6986 23.384 40.4662 23.384C40.2337 23.384 40.0453 23.5725 40.0453 23.8049C40.0453 24.0374 40.2337 24.2258 40.4662 24.2258Z" fill="#093F68"/>
<path d="M38.755 24.7227C38.5069 24.7116 38.2622 24.6603 38.0305 24.5709C38.0023 24.56 37.9764 24.5437 37.9545 24.5229C37.9326 24.502 37.915 24.477 37.9027 24.4494C37.8904 24.4217 37.8837 24.3919 37.8829 24.3617C37.8822 24.3314 37.8874 24.3013 37.8983 24.2731C37.9091 24.2448 37.9255 24.219 37.9463 24.1971C37.9672 24.1751 37.9921 24.1575 38.0198 24.1452C38.0475 24.133 38.0773 24.1263 38.1075 24.1255C38.1378 24.1247 38.1679 24.1299 38.1961 24.1408C38.3544 24.2011 38.5199 24.2405 38.6883 24.2581C38.673 23.9456 38.6174 23.6364 38.5227 23.3381C38.5141 23.3091 38.5113 23.2787 38.5144 23.2486C38.5176 23.2185 38.5266 23.1894 38.541 23.1628C38.5555 23.1362 38.575 23.1127 38.5985 23.0937C38.622 23.0746 38.649 23.0604 38.678 23.0518C38.707 23.0432 38.7374 23.0403 38.7675 23.0435C38.7975 23.0466 38.8267 23.0557 38.8533 23.0701C38.8799 23.0845 38.9034 23.104 38.9224 23.1275C38.9415 23.151 38.9557 23.178 38.9643 23.207C39.1069 23.6923 39.238 24.3248 39.0586 24.587C39.0309 24.6279 38.994 24.6616 38.9509 24.6856C38.9077 24.7096 38.8595 24.7231 38.8102 24.725L38.755 24.7227Z" fill="#093F68"/>
<path d="M37.4624 22.2662C37.4295 22.2696 37.3964 22.2696 37.3635 22.2662L35.3993 21.843C35.2821 21.8154 35.1804 21.7429 35.116 21.6412C35.0517 21.5394 35.0298 21.4164 35.0551 21.2987C35.0804 21.181 35.1508 21.0778 35.2513 21.0115C35.3518 20.9451 35.4743 20.9208 35.5925 20.9437L37.559 21.3669C37.681 21.3797 37.7929 21.4405 37.8701 21.5358C37.9473 21.6311 37.9835 21.7532 37.9707 21.8752C37.9579 21.9972 37.8971 22.1092 37.8018 22.1864C37.7065 22.2636 37.5844 22.2997 37.4624 22.2869V22.2662Z" fill="#093F68"/>
<path d="M41.2045 22.747H41.1562L39.1575 22.54C39.0971 22.5339 39.0385 22.5161 38.985 22.4874C38.9315 22.4587 38.8842 22.4197 38.8457 22.3727C38.7681 22.2778 38.7313 22.156 38.7435 22.034C38.7557 21.912 38.8159 21.7998 38.9108 21.7222C39.0057 21.6445 39.1275 21.6078 39.2495 21.62L41.2505 21.8224C41.3106 21.8287 41.3689 21.8468 41.422 21.8756C41.4751 21.9045 41.5221 21.9435 41.5601 21.9905C41.5981 22.0375 41.6265 22.0915 41.6436 22.1495C41.6607 22.2075 41.6663 22.2683 41.6599 22.3284C41.6496 22.4423 41.5973 22.5483 41.5131 22.6256C41.4289 22.703 41.3189 22.7463 41.2045 22.747Z" fill="#093F68"/>
<path d="M33.81 22.2617C33.81 22.2617 32.8693 21.2911 32.0896 22.149C31.3099 23.0069 31.5491 24.7733 33.4489 24.6468" fill="#FFC9B0"/>
<path d="M33.2626 24.8836C32.4806 24.8836 31.8826 24.5593 31.5997 23.9774C31.4541 23.6516 31.4064 23.2906 31.4623 22.9381C31.5183 22.5857 31.6755 22.2572 31.9148 21.9925C32.023 21.8629 32.1574 21.7577 32.3093 21.6839C32.4612 21.6102 32.627 21.5695 32.7957 21.5647C33.4236 21.5509 33.9457 22.0799 33.971 22.1029C33.9948 22.1239 34.0139 22.1495 34.0273 22.1783C34.0406 22.207 34.0479 22.2381 34.0487 22.2698C34.0494 22.3015 34.0436 22.333 34.0316 22.3623C34.0197 22.3916 34.0017 22.4181 33.979 22.4402C33.9563 22.4623 33.9293 22.4794 33.8996 22.4906C33.87 22.5017 33.8384 22.5066 33.8067 22.505C33.7751 22.5033 33.7442 22.4951 33.7158 22.481C33.6875 22.4668 33.6624 22.4469 33.6421 22.4226C33.4167 22.1969 33.12 22.0563 32.8026 22.0247C32.6963 22.0302 32.5923 22.0586 32.4979 22.1078C32.4035 22.157 32.3207 22.2259 32.2552 22.3099C32.0777 22.5066 31.9605 22.7501 31.9177 23.0116C31.8749 23.273 31.9082 23.5412 32.0137 23.7842C32.2437 24.2442 32.7359 24.4742 33.4282 24.4236C33.4892 24.4197 33.5493 24.4401 33.5952 24.4804C33.6412 24.5207 33.6692 24.5777 33.6732 24.6387C33.6771 24.6997 33.6567 24.7597 33.6164 24.8057C33.576 24.8516 33.5191 24.8797 33.4581 24.8836H33.2626Z" fill="#093F68"/>
<path d="M37.5498 26.7995C37.4829 26.7994 37.416 26.7948 37.3497 26.7857C36.6321 26.6799 36.0594 26.0244 35.6477 24.8376C35.6377 24.8091 35.6335 24.7788 35.6352 24.7487C35.6369 24.7185 35.6446 24.6889 35.6577 24.6617C35.6708 24.6345 35.6892 24.6101 35.7117 24.59C35.7343 24.5698 35.7606 24.5543 35.7891 24.5444C35.8177 24.5344 35.8479 24.5302 35.8781 24.5319C35.9083 24.5336 35.9378 24.5412 35.9651 24.5544C35.9923 24.5675 36.0167 24.5859 36.0368 24.6084C36.0569 24.631 36.0724 24.6573 36.0824 24.6858C36.4343 25.6978 36.8805 26.2521 37.4164 26.3303C38.3778 26.4706 39.3944 25.0768 39.4036 25.063C39.4212 25.0383 39.4435 25.0174 39.4693 25.0013C39.495 24.9853 39.5237 24.9745 39.5536 24.9696C39.5835 24.9647 39.6141 24.9657 39.6436 24.9727C39.6732 24.9796 39.701 24.9924 39.7256 25.0101C39.7748 25.0456 39.808 25.0992 39.8179 25.1591C39.8278 25.219 39.8137 25.2803 39.7785 25.3298C39.7325 25.3942 38.709 26.7995 37.5498 26.7995Z" fill="#093F68"/>
<path d="M38.0351 38.9828L39.0172 35.6685L38.4422 31.448L34.6127 30.114L29.5274 33.6882L29.2284 37.382C29.2284 37.382 27.8231 39.8108 28.5384 41.5473C29.2537 43.2838 41.0872 46.6073 41.0872 46.6073L43.6724 42.1936L38.0351 38.9828Z" fill="#68E1FD"/>
<path d="M41.0964 46.8349C41.0758 46.8383 41.0549 46.8383 41.0343 46.8349C39.813 46.4922 29.0743 43.4332 28.3337 41.6461C27.623 39.9372 28.7937 37.6832 29.003 37.3221L29.2997 33.6789C29.3023 33.6452 29.3123 33.6125 29.329 33.5831C29.3457 33.5536 29.3687 33.5283 29.3963 33.5087L34.4816 29.9345C34.5113 29.9135 34.5455 29.8999 34.5815 29.8947C34.6175 29.8895 34.6542 29.8929 34.6886 29.9046L38.5181 31.2409C38.5581 31.255 38.5935 31.2798 38.6203 31.3127C38.6471 31.3456 38.6642 31.3852 38.6699 31.4272L39.2449 35.6477C39.2517 35.6796 39.2517 35.7125 39.2449 35.7443L38.3249 38.8815L43.8127 42.0026C43.8391 42.0177 43.8622 42.0379 43.8808 42.062C43.8994 42.086 43.913 42.1136 43.9208 42.1429C43.9287 42.1722 43.9307 42.2026 43.9267 42.2326C43.9228 42.2626 43.9129 42.2915 43.8978 42.3177L41.3149 46.7314C41.2917 46.7673 41.2589 46.7959 41.2204 46.8142C41.1818 46.8325 41.1388 46.8397 41.0964 46.8349ZM29.7482 33.81L29.4584 37.3957C29.4557 37.4298 29.4455 37.4628 29.4285 37.4923C29.4147 37.5153 28.0876 39.8452 28.7592 41.4552C29.0306 42.1061 32.5151 43.9392 40.9883 46.3312L43.3642 42.2717L37.9201 39.1782C37.8753 39.1524 37.8405 39.1123 37.8213 39.0643C37.8021 39.0164 37.7997 38.9633 37.8143 38.9137L38.7826 35.65L38.2329 31.6204L34.6495 30.36L29.7482 33.81Z" fill="#093F68"/>
<path d="M47.7227 34.7485L53.4543 38.3641V40.0109L46.92 35.4408L47.7227 34.7485Z" fill="#093F68"/>
<path d="M53.4543 40.2499C53.4074 40.2498 53.3617 40.2354 53.3232 40.2085L46.7889 35.6384C46.7601 35.6184 46.7362 35.592 46.7192 35.5612C46.7021 35.5305 46.6923 35.4963 46.6905 35.4612C46.6888 35.4261 46.695 35.3911 46.7089 35.3588C46.7228 35.3266 46.7438 35.2979 46.7705 35.275L47.5732 34.585C47.6108 34.553 47.6577 34.5339 47.707 34.5305C47.7563 34.5272 47.8054 34.5399 47.8469 34.5666L53.5762 38.1799C53.6094 38.2006 53.6367 38.2295 53.6556 38.2637C53.6745 38.2979 53.6844 38.3363 53.6843 38.3754V40.0199C53.6844 40.0622 53.6729 40.1036 53.6509 40.1397C53.629 40.1758 53.5976 40.2052 53.5601 40.2246C53.5274 40.2414 53.4911 40.2501 53.4543 40.2499ZM47.2949 35.4199L53.2243 39.5599V38.4812L47.7434 35.0312L47.2949 35.4199Z" fill="#093F68"/>
<path d="M55.6439 53.7809H52.7022V31.5606L55.6439 30.6038V53.7809Z" fill="#093F68"/>
<path d="M55.6439 54.0108H52.7022C52.6412 54.0108 52.5827 53.9866 52.5396 53.9435C52.4964 53.9003 52.4722 53.8418 52.4722 53.7808V31.5605C52.4697 31.5101 52.4839 31.4602 52.5126 31.4187C52.5413 31.3771 52.5829 31.3461 52.6309 31.3305L55.5726 30.3737C55.6081 30.3621 55.6458 30.3593 55.6826 30.3655C55.7194 30.3718 55.7541 30.3868 55.7837 30.4095C55.8134 30.4321 55.8371 30.4616 55.8528 30.4955C55.8685 30.5293 55.8758 30.5665 55.8739 30.6037V53.7808C55.8739 53.8418 55.8497 53.9003 55.8065 53.9435C55.7634 53.9866 55.7049 54.0108 55.6439 54.0108ZM52.9322 53.5508H55.4139V30.9188L52.9322 31.7261V53.5508Z" fill="#093F68"/>
<path d="M58.0336 53.5464H50.3125C49.9022 53.5464 49.5696 53.879 49.5696 54.2893V54.6918C49.5696 55.1021 49.9022 55.4347 50.3125 55.4347H58.0336C58.4439 55.4347 58.7765 55.1021 58.7765 54.6918V54.2893C58.7765 53.879 58.4439 53.5464 58.0336 53.5464Z" fill="#093F68"/>
<path d="M58.0313 55.66H50.3125C50.0543 55.6594 49.8068 55.5564 49.6244 55.3736C49.442 55.1908 49.3396 54.9431 49.3396 54.6848V54.28C49.3402 54.0222 49.4429 53.7751 49.6252 53.5928C49.8075 53.4104 50.0547 53.3077 50.3125 53.3071H58.0313C58.2895 53.3071 58.5372 53.4096 58.7201 53.5919C58.9029 53.7743 59.0059 54.0218 59.0065 54.28V54.6802C59.0071 54.8087 58.9823 54.936 58.9336 55.0548C58.8849 55.1737 58.8131 55.2817 58.7225 55.3728C58.6319 55.4638 58.5242 55.5361 58.4056 55.5854C58.2869 55.6347 58.1598 55.66 58.0313 55.66ZM50.3125 53.7717C50.1765 53.7717 50.046 53.8258 49.9498 53.922C49.8536 54.0181 49.7996 54.1486 49.7996 54.2846V54.6848C49.7996 54.8211 49.8536 54.9518 49.9497 55.0483C50.0458 55.1449 50.1763 55.1994 50.3125 55.2H58.0313C58.099 55.2 58.1659 55.1867 58.2285 55.1608C58.291 55.1349 58.3478 55.097 58.3956 55.0491C58.4434 55.0013 58.4814 54.9445 58.5073 54.882C58.5332 54.8195 58.5465 54.7525 58.5465 54.6848V54.28C58.5465 54.2125 58.5332 54.1456 58.5072 54.0832C58.4813 54.0208 58.4433 53.9642 58.3955 53.9165C58.3476 53.8689 58.2908 53.8311 58.2283 53.8055C58.1658 53.7799 58.0988 53.7668 58.0313 53.7671L50.3125 53.7717Z" fill="#093F68"/>
<path d="M54.1719 33.9503C54.6 33.9503 54.947 33.6033 54.947 33.1752C54.947 32.7472 54.6 32.4001 54.1719 32.4001C53.7438 32.4001 53.3968 32.7472 53.3968 33.1752C53.3968 33.6033 53.7438 33.9503 54.1719 33.9503Z" fill="#68E1FD"/>
<path d="M54.1719 34.1825C53.9726 34.1825 53.7779 34.1234 53.6122 34.0127C53.4465 33.9021 53.3174 33.7447 53.2412 33.5606C53.1649 33.3766 53.145 33.174 53.1838 32.9786C53.2227 32.7832 53.3187 32.6037 53.4596 32.4628C53.6004 32.3219 53.7799 32.226 53.9754 32.1871C54.1708 32.1482 54.3733 32.1682 54.5574 32.2444C54.7415 32.3207 54.8988 32.4498 55.0095 32.6154C55.1202 32.7811 55.1793 32.9759 55.1793 33.1751C55.1793 33.4423 55.0732 33.6985 54.8842 33.8875C54.6953 34.0764 54.4391 34.1825 54.1719 34.1825ZM54.1719 32.63C54.0635 32.63 53.9576 32.6622 53.8675 32.7224C53.7775 32.7827 53.7073 32.8683 53.6659 32.9685C53.6246 33.0686 53.6139 33.1788 53.6352 33.2851C53.6565 33.3913 53.7089 33.4888 53.7856 33.5653C53.8624 33.6418 53.9602 33.6937 54.0665 33.7146C54.1728 33.7354 54.283 33.7243 54.383 33.6825C54.483 33.6407 54.5683 33.5702 54.6282 33.4799C54.688 33.3895 54.7197 33.2835 54.7193 33.1751C54.7187 33.0303 54.6607 32.8917 54.5581 32.7895C54.4556 32.6874 54.3167 32.63 54.1719 32.63Z" fill="#093F68"/>
<path d="M54.1719 54.0822C54.6 54.0822 54.947 53.7352 54.947 53.3071C54.947 52.879 54.6 52.532 54.1719 52.532C53.7438 52.532 53.3968 52.879 53.3968 53.3071C53.3968 53.7352 53.7438 54.0822 54.1719 54.0822Z" fill="#68E1FD"/>
<path d="M54.1719 54.3122C53.9732 54.3117 53.7791 54.2524 53.6142 54.1417C53.4492 54.031 53.3207 53.8738 53.245 53.6901C53.1693 53.5064 53.1497 53.3044 53.1887 53.1096C53.2278 52.9148 53.3237 52.7359 53.4643 52.5956C53.605 52.4552 53.7841 52.3597 53.979 52.3211C54.1739 52.2826 54.3759 52.3026 54.5594 52.3787C54.7429 52.4549 54.8998 52.5837 55.0101 52.7489C55.1204 52.9142 55.1793 53.1084 55.1793 53.3071C55.1793 53.4393 55.1533 53.5702 55.1026 53.6923C55.0519 53.8144 54.9777 53.9253 54.8841 54.0186C54.7906 54.112 54.6795 54.186 54.5573 54.2364C54.4351 54.2867 54.3041 54.3125 54.1719 54.3122ZM54.1719 52.762C54.0642 52.7625 53.9591 52.7948 53.8697 52.855C53.7804 52.9152 53.7109 53.0004 53.67 53.1001C53.6291 53.1997 53.6186 53.3093 53.6399 53.4148C53.6612 53.5204 53.7133 53.6173 53.7896 53.6933C53.8659 53.7694 53.9631 53.821 54.0687 53.8419C54.1744 53.8627 54.2839 53.8518 54.3834 53.8105C54.4828 53.7692 54.5678 53.6993 54.6276 53.6097C54.6874 53.5201 54.7193 53.4148 54.7193 53.3071C54.7187 53.1623 54.6608 53.0237 54.5582 52.9215C54.4556 52.8194 54.3167 52.762 54.1719 52.762Z" fill="#093F68"/>
<path d="M40.2022 36.999L63.3484 25.0422L64.1443 26.5829L40.9981 38.5398L40.2022 36.999Z" fill="#F56132"/>
<path d="M40.9998 38.7664C40.9575 38.7665 40.9161 38.7549 40.88 38.733C40.8439 38.7111 40.8145 38.6797 40.7951 38.6422L39.9993 37.1012C39.985 37.0742 39.9762 37.0447 39.9734 37.0142C39.9707 36.9838 39.974 36.9532 39.9832 36.9241C39.9926 36.8954 40.0077 36.8688 40.0274 36.8459C40.0471 36.823 40.0712 36.8043 40.0982 36.7907L63.25 24.8399C63.304 24.8124 63.3667 24.8074 63.4244 24.8259C63.4821 24.8445 63.5302 24.885 63.5582 24.9388L64.3563 26.4798C64.3702 26.5069 64.3786 26.5365 64.381 26.5669C64.3833 26.5973 64.3796 26.6279 64.3701 26.6569C64.3515 26.7144 64.311 26.7624 64.2574 26.7903L41.1125 38.7503C41.0766 38.7641 41.0381 38.7696 40.9998 38.7664ZM40.5122 37.0943L41.0987 38.2259L63.8342 26.4775L63.25 25.3459L40.5122 37.0943Z" fill="#093F68"/>
<path d="M41.3747 51.3867V55.0046C41.3747 55.0046 46.8694 56.058 46.4347 55.2346C46 54.4112 44.2589 53.9466 44.2589 53.9466L44.4038 51.987L41.3747 51.3867Z" fill="#68E1FD"/>
<path d="M45.5239 55.7705C44.7534 55.7705 43.4677 55.6394 41.331 55.23C41.2778 55.2197 41.23 55.191 41.1959 55.1489C41.1619 55.1069 41.1437 55.0541 41.1447 55V51.3867C41.1446 51.3523 41.1522 51.3184 41.1669 51.2873C41.1816 51.2563 41.2031 51.2289 41.2298 51.2073C41.2562 51.186 41.2871 51.1708 41.3201 51.1629C41.3531 51.1549 41.3874 51.1544 41.4207 51.1613L44.4429 51.7685C44.4981 51.7796 44.5473 51.8105 44.5812 51.8554C44.6151 51.9004 44.6314 51.9562 44.6269 52.0123L44.4958 53.7879C44.9742 53.9374 46.2369 54.3974 46.6325 55.1334C46.669 55.1944 46.687 55.2648 46.6841 55.3359C46.6812 55.407 46.6577 55.4757 46.6164 55.5336C46.5336 55.6601 46.2691 55.7705 45.5239 55.7705ZM41.6139 54.8137C43.5413 55.1725 45.701 55.4347 46.1955 55.2737C45.816 54.7079 44.6407 54.287 44.2014 54.1674C44.1516 54.1535 44.108 54.1232 44.0776 54.0815C44.0471 54.0398 44.0316 53.989 44.0335 53.9374L44.1623 52.1802L41.6139 51.6673V54.8137Z" fill="#093F68"/>
<path d="M43.3251 35.381L42.872 34.2885L60.536 25.2725L61.0926 26.2017L43.3251 35.381Z" fill="white"/>
<path d="M43.3251 35.6108C43.2977 35.6111 43.2704 35.6064 43.2446 35.597C43.2149 35.5862 43.1877 35.5694 43.1647 35.5477C43.1418 35.5259 43.1236 35.4996 43.1112 35.4705L42.6512 34.3757C42.6292 34.3226 42.6278 34.2632 42.6474 34.2091C42.6669 34.155 42.7061 34.1103 42.757 34.0836L60.4325 25.0699C60.4845 25.0436 60.5445 25.0381 60.6004 25.0543C60.6563 25.0705 60.704 25.1073 60.7338 25.1573L61.2904 26.0773C61.3062 26.1041 61.3163 26.1338 61.3203 26.1647C61.3243 26.1955 61.3219 26.2268 61.3134 26.2567C61.305 26.2871 61.2905 26.3154 61.2707 26.34C61.2509 26.3645 61.2263 26.3847 61.1984 26.3993L43.4309 35.5786C43.3988 35.5978 43.3625 35.6088 43.3251 35.6108ZM43.1664 34.3964L43.4424 35.0634L60.7683 26.1095L60.4486 25.5759L43.1664 34.3964Z" fill="#093F68"/>
<path d="M44.7304 25.6658L44.0749 26.1189L47.3685 30.8776L48.0332 30.4176L44.7304 25.6658Z" fill="#68E1FD"/>
<path d="M47.38 31.1075C47.3429 31.1074 47.3064 31.0984 47.2735 31.0812C47.2407 31.0639 47.2125 31.039 47.1914 31.0086L43.8978 26.2499C43.8631 26.1998 43.8497 26.1381 43.8604 26.0781C43.8712 26.0182 43.9053 25.965 43.9553 25.9302L44.6108 25.4702C44.6608 25.4355 44.7226 25.4221 44.7825 25.4328C44.8424 25.4436 44.8957 25.4777 44.9305 25.5277L48.2333 30.2795C48.2505 30.3044 48.2626 30.3324 48.2689 30.3621C48.2752 30.3917 48.2756 30.4222 48.2701 30.452C48.258 30.5117 48.2245 30.5649 48.1758 30.6015L47.5111 31.0615C47.4732 31.09 47.4274 31.106 47.38 31.1075ZM44.39 26.1763L47.4237 30.5578L47.7066 30.36L44.6683 25.99L44.39 26.1763Z" fill="#093F68"/>
<path d="M38.0351 32.5865L43.6057 29.5965C43.6057 29.5965 44.1094 28.619 44.4383 28.3568C44.8178 28.0509 45.0915 27.722 45.2111 27.8692C45.3126 27.9867 45.3906 28.1225 45.4411 28.2694C45.4664 28.3499 45.4526 28.4856 45.5377 28.5293C45.7286 28.6305 46.3013 28.182 46.4577 28.0854C46.5198 28.0463 46.5888 27.9911 46.5842 27.9175C46.5796 27.8439 46.4186 27.7634 46.4025 27.6553C46.48 27.61 46.5661 27.5817 46.6553 27.5722C46.7445 27.5627 46.8347 27.5722 46.92 27.6001C46.9812 27.625 47.0366 27.6621 47.083 27.7092C47.1294 27.7562 47.1658 27.8122 47.1898 27.8737C47.2139 27.9352 47.2253 28.001 47.2232 28.067C47.2211 28.1331 47.2056 28.198 47.1776 28.2579C47.0764 28.4879 46.8142 28.6581 46.7452 28.8789C46.7238 28.9653 46.7137 29.0543 46.7153 29.1434C46.7172 29.4625 46.6595 29.7792 46.5451 30.0772C46.2208 30.8362 45.1927 31.0225 44.4751 31.2686C44.4751 31.2686 38.4491 35.9951 37.674 35.9951" fill="#FFC9B0"/>
<path d="M37.6809 36.2181C37.6199 36.2181 37.5614 36.1938 37.5183 36.1507C37.4752 36.1076 37.4509 36.0491 37.4509 35.9881C37.4509 35.9271 37.4752 35.8686 37.5183 35.8254C37.5614 35.7823 37.6199 35.7581 37.6809 35.7581C38.1409 35.7328 41.4322 33.3615 44.3509 31.0799C44.3707 31.0636 44.3933 31.0511 44.4176 31.0431C44.5372 31.0017 44.666 30.9626 44.7994 30.9212C45.4158 30.7303 46.1127 30.5164 46.3427 29.9805C46.4477 29.7101 46.4993 29.4218 46.4945 29.1318C46.4934 29.0208 46.5073 28.9101 46.5359 28.8029C46.5956 28.6487 46.6864 28.5086 46.8027 28.3912C46.8702 28.3225 46.9282 28.2452 46.9752 28.1612C46.9912 28.1249 46.9994 28.0858 46.9994 28.0462C46.9994 28.0066 46.9912 27.9674 46.9752 27.9312C46.9642 27.9033 46.9475 27.878 46.9261 27.857C46.9047 27.836 46.8791 27.8198 46.851 27.8093C46.8309 27.8025 46.8101 27.7979 46.7889 27.7955C46.8032 27.8316 46.8125 27.8695 46.8165 27.9082C46.8174 27.9863 46.7964 28.0631 46.7557 28.1298C46.715 28.1965 46.6564 28.2504 46.5865 28.2854L46.4899 28.3521C46.0713 28.6465 45.701 28.8788 45.4388 28.7385C45.3796 28.7013 45.3305 28.6503 45.2956 28.5897C45.2607 28.5292 45.2412 28.461 45.2387 28.3912C45.2398 28.3751 45.2398 28.359 45.2387 28.3429C45.21 28.26 45.168 28.1824 45.1145 28.1129C45.0501 28.1612 44.9558 28.244 44.8845 28.3107C44.8132 28.3774 44.7028 28.4694 44.6016 28.5407C44.39 28.7086 44.0174 29.3457 43.8311 29.7068C43.8095 29.748 43.7758 29.7817 43.7345 29.8034L38.1639 32.7934C38.1373 32.8085 38.1081 32.8182 38.0777 32.822C38.0474 32.8258 38.0166 32.8235 37.9871 32.8154C37.9577 32.8073 37.9301 32.7935 37.9059 32.7747C37.8818 32.7559 37.8616 32.7326 37.8465 32.706C37.8314 32.6794 37.8217 32.6501 37.8179 32.6198C37.8141 32.5894 37.8164 32.5587 37.8245 32.5292C37.8326 32.4997 37.8464 32.4721 37.8652 32.448C37.884 32.4239 37.9073 32.4037 37.9339 32.3886L43.4539 29.4377C43.5827 29.2077 43.999 28.4418 44.3141 28.1888C44.4107 28.1129 44.4981 28.0347 44.5786 27.9588C44.8086 27.7472 44.9903 27.5954 45.1858 27.6115C45.2302 27.614 45.2736 27.6257 45.3132 27.6459C45.3528 27.6661 45.3878 27.6943 45.4158 27.7288C45.5367 27.869 45.6289 28.0315 45.6872 28.2072C45.697 28.2379 45.704 28.2695 45.7079 28.3015C45.8967 28.2102 46.0762 28.1009 46.2438 27.9749L46.322 27.922C46.2563 27.8612 46.2127 27.7803 46.1978 27.692C46.1915 27.647 46.1986 27.6012 46.2182 27.5603C46.2379 27.5193 46.2692 27.4851 46.3082 27.462C46.4142 27.3958 46.5333 27.3536 46.6573 27.3385C46.7813 27.3234 46.9071 27.3357 47.0258 27.3746C47.1141 27.4058 47.1948 27.4554 47.2625 27.52C47.3303 27.5846 47.3837 27.6628 47.4191 27.7495C47.4595 27.8432 47.4803 27.9441 47.4803 28.0462C47.4803 28.1482 47.4595 28.2492 47.4191 28.3429C47.3547 28.4702 47.2717 28.5872 47.173 28.6902C47.1011 28.7625 47.042 28.8465 46.9982 28.9386C46.9833 28.9987 46.9764 29.0606 46.9775 29.1226C46.9797 29.4763 46.9157 29.8273 46.7889 30.1576C46.4761 30.889 45.6389 31.1489 44.9489 31.3582L44.6177 31.464C43.1296 32.614 38.4675 36.2181 37.6809 36.2181Z" fill="#093F68"/>
<path d="M30.82 31.7077C35.6776 38.7043 39.0241 35.6683 39.0241 35.6683C38.9643 35.298 38.8171 34.5183 38.7435 34.1503C38.6262 33.5385 38.4951 32.9267 38.4031 32.3103L38.042 32.5058C38.042 32.5058 35.6615 30.7348 33.8652 29.1179" fill="white"/>
<path d="M37.03 36.5539C36.8763 36.5544 36.7227 36.5459 36.57 36.5286C34.6242 36.2986 32.6186 34.7277 30.613 31.8389C30.5958 31.8139 30.5837 31.7859 30.5773 31.7563C30.5709 31.7266 30.5705 31.6961 30.5759 31.6663C30.5813 31.6365 30.5926 31.6081 30.609 31.5826C30.6255 31.5572 30.6468 31.5352 30.6717 31.518C30.6966 31.5008 30.7247 31.4886 30.7543 31.4823C30.7839 31.4759 30.8145 31.4754 30.8443 31.4809C30.874 31.4863 30.9025 31.4976 30.9279 31.514C30.9534 31.5305 30.9753 31.5517 30.9925 31.5767C32.8854 34.3045 34.8289 35.8593 36.6091 36.0686C37.3618 36.1773 38.128 36.001 38.7573 35.5741C38.6906 35.1877 38.571 34.5483 38.4997 34.1941L38.4238 33.8077C38.3502 33.4351 38.272 33.0533 38.2099 32.6577L38.1317 32.6991C38.0932 32.7197 38.0496 32.7289 38.006 32.7257C37.9624 32.7224 37.9207 32.7068 37.8856 32.6807C37.8626 32.6623 35.4752 30.8867 33.6927 29.279C33.6474 29.2383 33.6199 29.1814 33.6165 29.1206C33.613 29.0598 33.6338 29.0001 33.6743 28.9547C33.6946 28.932 33.7192 28.9136 33.7467 28.9005C33.7741 28.8875 33.8039 28.88 33.8343 28.8785C33.8646 28.877 33.895 28.8815 33.9236 28.8918C33.9522 28.9021 33.9785 28.918 34.0009 28.9386C35.5442 30.3186 37.5429 31.8481 38.0443 32.2253L38.2743 32.0988C38.3069 32.0814 38.3432 32.0721 38.3801 32.0718C38.4171 32.0714 38.4535 32.0799 38.4865 32.0966C38.5194 32.1133 38.5478 32.1377 38.5694 32.1677C38.5909 32.1977 38.6049 32.2324 38.6101 32.269C38.6814 32.7474 38.778 33.235 38.8723 33.7065L38.9505 34.0929C39.0287 34.4977 39.1805 35.2613 39.2311 35.6201C39.2374 35.6578 39.2341 35.6964 39.2217 35.7326C39.2092 35.7687 39.188 35.8012 39.1598 35.8271C38.5561 36.3098 37.8029 36.5668 37.03 36.5539Z" fill="#093F68"/>
<path d="M47.3685 30.8775L48.3161 31.51L48.0332 30.4175L47.3685 30.8775Z" fill="#68E1FD"/>
<path d="M48.3161 31.74C48.2702 31.7401 48.2254 31.7265 48.1873 31.7009L47.242 31.0684C47.2107 31.0478 47.1849 31.0199 47.1668 30.987C47.1488 30.9541 47.1391 30.9173 47.1385 30.8798C47.1382 30.8424 47.147 30.8054 47.1643 30.7721C47.1815 30.7388 47.2066 30.7103 47.2374 30.6889L47.9021 30.2289C47.9325 30.2082 47.9674 30.1951 48.0039 30.1906C48.0404 30.1862 48.0775 30.1906 48.112 30.2034C48.1464 30.2163 48.1773 30.2372 48.202 30.2644C48.2268 30.2917 48.2446 30.3245 48.254 30.36L48.5392 31.4502C48.5511 31.4955 48.5488 31.5433 48.5328 31.5873C48.5168 31.6313 48.4877 31.6693 48.4495 31.6963C48.4107 31.7244 48.364 31.7397 48.3161 31.74ZM47.7779 30.8729L47.9412 30.9833L47.8929 30.7947L47.7779 30.8729Z" fill="#093F68"/>
<path d="M61.9505 52.6446C61.9505 52.6446 60.4532 49.5902 60.6625 47.5271C61.5084 47.993 62.1463 48.7623 62.4473 49.6799C63.3328 52.1386 63.1373 52.6469 63.1373 52.6469L61.9505 52.6446Z" fill="#70CC40"/>
<path d="M63.1282 52.8769H61.9506C61.9078 52.8766 61.8661 52.8643 61.8299 52.8416C61.7938 52.8188 61.7647 52.7865 61.7459 52.7481C61.6815 52.6216 60.221 49.6109 60.4326 47.5064C60.4365 47.4703 60.449 47.4356 60.469 47.4052C60.489 47.3748 60.5159 47.3496 60.5476 47.3316C60.579 47.3133 60.6144 47.3026 60.6508 47.3006C60.6872 47.2986 60.7236 47.3053 60.7569 47.3201C60.8098 47.3431 62.0564 47.925 62.6636 49.604C63.5353 52.0236 63.3812 52.6354 63.3421 52.7343C63.3247 52.7767 63.295 52.8129 63.2569 52.8383C63.2188 52.8637 63.174 52.8771 63.1282 52.8769ZM62.0978 52.4169H62.9212C62.9212 52.1386 62.8246 51.4026 62.2312 49.7581C61.9762 49.0205 61.502 48.3785 60.8719 47.9181C60.865 49.6316 61.8425 51.8603 62.1001 52.4146L62.0978 52.4169Z" fill="#093F68"/>
<path d="M62.6635 52.4976C62.6635 52.4976 61.5388 48.1437 63.1557 45.2273C63.1557 45.2273 64.0872 46.2945 64.3057 48.8705C64.4256 50.0998 64.1934 51.3377 63.6364 52.4401L62.6635 52.4976Z" fill="#70CC40"/>
<path d="M62.6635 52.7274C62.6113 52.7291 62.5601 52.7129 62.5183 52.6815C62.4765 52.6502 62.4466 52.6055 62.4335 52.5549C62.3875 52.3732 61.3042 48.0768 62.9464 45.1167C62.9644 45.0844 62.9899 45.0568 63.0207 45.0364C63.0516 45.016 63.0869 45.0034 63.1237 44.9995C63.1605 44.9957 63.1977 45.0008 63.2321 45.0144C63.2665 45.028 63.2971 45.0497 63.3213 45.0776C63.3627 45.1236 64.3057 46.2276 64.5311 48.8519C64.6561 50.126 64.4118 51.4091 63.8273 52.548C63.8084 52.5801 63.782 52.6071 63.7504 52.6268C63.7187 52.6464 63.6828 52.658 63.6456 52.6607L62.6727 52.7274H62.6635ZM63.1833 45.6802C62.0494 48.1251 62.6658 51.4302 62.8429 52.2536L63.4938 52.2122C63.9788 51.1762 64.1811 50.0304 64.0803 48.891C63.94 47.1729 63.4593 46.1471 63.1833 45.6802Z" fill="#093F68"/>
<path d="M63.1488 52.3595C63.1488 52.3595 63.4984 49.4546 65.8467 47.5571C65.8467 47.5571 66.5367 49.7214 64.5978 52.6171L63.1488 52.3595Z" fill="#70CC40"/>
<path d="M64.5978 52.847C64.5848 52.8491 64.5716 52.8491 64.5587 52.847L63.1097 52.5917C63.0519 52.5815 63.0002 52.5497 62.9652 52.5026C62.9301 52.4556 62.9143 52.397 62.9211 52.3387C62.9349 52.2145 63.3075 49.3165 65.7018 47.3822C65.731 47.3588 65.7654 47.3428 65.8022 47.3357C65.8389 47.3286 65.8768 47.3306 65.9126 47.3415C65.9484 47.3524 65.981 47.3718 66.0076 47.3981C66.0342 47.4245 66.054 47.4569 66.0652 47.4926C66.0951 47.5846 66.769 49.7926 64.7887 52.7504C64.7671 52.7808 64.7384 52.8054 64.7052 52.8222C64.6719 52.8391 64.635 52.8476 64.5978 52.847ZM63.4133 52.1731L64.4897 52.364C65.8122 50.3262 65.7915 48.684 65.6995 47.994C64.0458 49.4936 63.5398 51.5199 63.4133 52.1731Z" fill="#093F68"/>
<path d="M64.7588 55.6254H61.801L61.364 52.0259H65.1958L64.7588 55.6254Z" fill="#68E1FD"/>
<path d="M64.7588 55.8554H61.801C61.7445 55.8558 61.6898 55.8354 61.6474 55.7981C61.605 55.7607 61.5778 55.7091 61.571 55.653L61.134 52.0535C61.1301 52.0214 61.133 51.9888 61.1425 51.9579C61.152 51.927 61.1679 51.8984 61.1892 51.8741C61.2108 51.8496 61.2373 51.8299 61.2671 51.8164C61.2968 51.8029 61.3291 51.7959 61.3617 51.7959H65.1935C65.2262 51.7959 65.2585 51.8029 65.2882 51.8164C65.3179 51.8299 65.3445 51.8496 65.366 51.8741C65.3873 51.8984 65.4033 51.927 65.4128 51.9579C65.4223 51.9888 65.4252 52.0214 65.4212 52.0535L64.9865 55.6599C64.9783 55.7143 64.9507 55.764 64.909 55.7999C64.8672 55.8358 64.8139 55.8555 64.7588 55.8554ZM61.9988 55.3954H64.5472L64.929 52.2559H61.617L61.9988 55.3954Z" fill="#093F68"/>
<path d="M66.7759 55.8555H25.2241C25.1631 55.8555 25.1046 55.8313 25.0614 55.7881C25.0183 55.745 24.9941 55.6865 24.9941 55.6255C24.9941 55.5645 25.0183 55.506 25.0614 55.4629C25.1046 55.4197 25.1631 55.3955 25.2241 55.3955H66.7759C66.8369 55.3955 66.8954 55.4197 66.9385 55.4629C66.9816 55.506 67.0059 55.5645 67.0059 55.6255C67.0059 55.6865 66.9816 55.745 66.9385 55.7881C66.8954 55.8313 66.8369 55.8555 66.7759 55.8555Z" fill="#093F68"/>
</svg>
