<svg width="35" height="35" viewBox="0 0 35 35" fill="none" xmlns="http://www.w3.org/2000/svg">
<path d="M6.21247 17.5001C5.96717 16.5471 5.83983 15.5676 5.8333 14.5835C5.83983 13.5994 5.96717 12.6198 6.21247 11.6668H11.1416C11.0146 12.634 10.9464 13.608 10.9375 14.5835C10.9464 15.5589 11.0146 16.533 11.1416 17.5001H14.0875C13.9434 16.5344 13.8654 15.5599 13.8541 14.5835C13.8649 13.607 13.9428 12.6325 14.0875 11.6668H20.9125C21.0571 12.6325 21.135 13.607 21.1458 14.5835C21.1345 15.5599 21.0565 16.5344 20.9125 17.5001H23.8583C23.9854 16.533 24.0536 15.5589 24.0625 14.5835C24.0536 13.608 23.9854 12.634 23.8583 11.6668H28.7875C29.0328 12.6198 29.1601 13.5994 29.1666 14.5835C29.1601 15.5676 29.0328 16.5471 28.7875 17.5001H31.79C32.2209 15.3819 32.1755 13.1944 31.6571 11.0958C31.1386 8.99728 30.1602 7.04024 28.7925 5.36631C27.4248 3.69239 25.702 2.34346 23.749 1.41713C21.7959 0.490805 19.6613 0.0102539 17.4997 0.0102539C15.338 0.0102539 13.2034 0.490805 11.2504 1.41713C9.29727 2.34346 7.57454 3.69239 6.20684 5.36631C4.83913 7.04024 3.86066 8.99728 3.34224 11.0958C2.82381 13.1944 2.7784 15.3819 3.20928 17.5001H6.21247ZM27.5916 8.75014H23.2896C22.8331 6.94394 22.1573 5.20041 21.2771 3.55847C23.9372 4.47425 26.1788 6.3172 27.5916 8.75014ZM17.5 2.97514C18.725 4.74249 19.6649 6.69122 20.2854 8.75014H14.7146C15.335 6.69122 16.275 4.74249 17.5 2.97514ZM13.7229 3.55847C12.8426 5.20039 12.1668 6.94392 11.7104 8.75014H7.4083C8.81678 6.3135 11.0599 4.46927 13.7229 3.55847Z" fill="black"/>
<path d="M21.5083 25.5132H18.5917V26.9715H21.5083V25.5132Z" fill="black"/>
<path d="M30.6221 20.4165H4.37796C3.60364 20.4165 2.86103 20.7241 2.3135 21.2716C1.76597 21.8192 1.45837 22.5618 1.45837 23.3361V32.0803C1.45837 32.4637 1.53389 32.8433 1.68061 33.1975C1.82734 33.5517 2.04239 33.8736 2.3135 34.1447C2.58461 34.4158 2.90646 34.6309 3.26068 34.7776C3.6149 34.9243 3.99455 34.9998 4.37796 34.9998H30.6221C31.3964 34.9998 32.1391 34.6922 32.6866 34.1447C33.2341 33.5972 33.5417 32.8546 33.5417 32.0803V23.3361C33.5417 22.5618 33.2341 21.8192 32.6866 21.2716C32.1391 20.7241 31.3964 20.4165 30.6221 20.4165ZM13.4918 32.091H11.3043V23.341H13.4918V32.091ZM23.6958 26.9712C23.7011 27.2599 23.6481 27.5467 23.5401 27.8145C23.432 28.0823 23.2711 28.3256 23.0669 28.5298C22.8627 28.7339 22.6195 28.8949 22.3517 29.0029C22.0839 29.111 21.797 29.164 21.5083 29.1587H18.5917V32.0753H16.4042V23.3253H21.5083C21.797 23.32 22.0839 23.373 22.3517 23.4811C22.6195 23.5891 22.8627 23.7501 23.0669 23.9543C23.2711 24.1585 23.432 24.4017 23.5401 24.6695C23.6481 24.9373 23.7011 25.2241 23.6958 25.5128V26.9712Z" fill="black"/>
</svg>
