<svg width="92" height="69" viewBox="0 0 92 69" fill="none" xmlns="http://www.w3.org/2000/svg">
<path d="M50.5862 25.4334C48.7156 24.4376 46.7296 23.6759 44.6729 23.1656C42.9502 22.7378 40.9055 21.9213 39.2541 22.77C36.6712 24.0994 34.9393 26.5006 34.6794 29.3618C34.5207 31.1029 34.523 32.8325 34.2401 34.5598C33.9641 36.2457 33.7295 37.8074 34.7829 39.3461C35.2796 40.019 35.9051 40.5866 36.6229 41.0159C40.5329 43.5459 45.5055 43.9024 50.1078 43.1963C52.6378 42.8076 55.3058 41.998 56.8422 39.9533C57.3327 39.2987 57.6812 38.549 57.8657 37.7522C58.0349 37.0968 58.0301 36.4087 57.8519 35.7558C57.247 33.7916 54.7906 32.9958 53.8545 31.1558C53.1967 29.8655 53.3945 28.2302 52.5849 27.0158C52.1134 26.3074 51.3475 25.8382 50.5862 25.4334Z" fill="#725858"/>
<path d="M46.0621 43.7459C42.9778 43.7459 39.5209 43.1548 36.5033 41.2159C35.7596 40.7685 35.1103 40.1802 34.592 39.484C33.4696 37.8441 33.7456 36.1582 34.0124 34.5298C34.1739 33.4336 34.2768 32.3296 34.3206 31.2224C34.3574 30.6083 34.3942 29.9735 34.4494 29.3456C34.7139 26.4407 36.4274 23.9728 39.1483 22.5721C40.6134 21.82 42.3476 22.2984 43.8748 22.7216C44.1669 22.8021 44.4521 22.8803 44.7281 22.9516C46.8039 23.47 48.8077 24.2425 50.6943 25.2516C51.4832 25.6702 52.2813 26.1716 52.7827 26.9191C53.2427 27.6091 53.3899 28.4233 53.5348 29.2191C53.6207 29.8623 53.7989 30.4898 54.0638 31.0821C54.4732 31.8825 55.2138 32.4989 55.9314 33.0946C56.8146 33.8306 57.73 34.5896 58.0773 35.7189C58.2701 36.4104 58.2756 37.1406 58.0934 37.8349C57.9017 38.6625 57.5398 39.4411 57.0308 40.1211C55.7313 41.8507 53.4773 42.9409 50.1469 43.4515C48.7948 43.6536 47.4292 43.7521 46.0621 43.7459ZM40.9216 22.6273C40.3799 22.6159 39.8435 22.735 39.3576 22.9746C36.7793 24.3017 35.1578 26.6362 34.9094 29.3824C34.8519 30.0011 34.8151 30.6336 34.7806 31.2431C34.7345 32.3664 34.6301 33.4864 34.4678 34.5988C34.2033 36.2088 33.9526 37.7291 34.9715 39.2172C35.4511 39.8677 36.0565 40.4152 36.7517 40.8272C41.0941 43.624 46.3933 43.5389 50.0756 42.9731C53.3278 42.474 55.4208 41.4712 56.6628 39.8198C57.1327 39.1907 57.4671 38.471 57.6449 37.7061C57.8103 37.0915 57.8103 36.444 57.6449 35.8293C57.3367 34.8311 56.5156 34.148 55.6439 33.4235C54.8918 32.7979 54.1121 32.1493 53.6613 31.2661C53.3768 30.6345 53.1847 29.9653 53.0909 29.2789C52.946 28.5015 52.8126 27.7701 52.4009 27.1583C51.9892 26.5465 51.3291 26.0934 50.4804 25.6403C48.6267 24.6521 46.6585 23.8959 44.62 23.3886C44.3394 23.3196 44.0496 23.2391 43.7552 23.1586C42.803 22.8964 41.8324 22.6273 40.9216 22.6273Z" fill="#093F68"/>
<path d="M54.6825 23.0436C54.4995 23.0436 54.324 22.9709 54.1946 22.8415C54.0652 22.7121 53.9925 22.5366 53.9925 22.3536V20.1318C53.9901 17.8823 53.0954 15.7256 51.5047 14.1349C49.914 12.5442 47.7573 11.6495 45.5078 11.6471H43.47C41.2205 11.6495 39.0638 12.5442 37.4731 14.1349C35.8824 15.7256 34.9877 17.8823 34.9853 20.1318V22.3536C34.9853 22.5366 34.9126 22.7121 34.7832 22.8415C34.6538 22.9709 34.4783 23.0436 34.2953 23.0436C34.1123 23.0436 33.9368 22.9709 33.8074 22.8415C33.678 22.7121 33.6053 22.5366 33.6053 22.3536V20.1318C33.6083 17.5164 34.6486 15.0091 36.498 13.1598C38.3473 11.3104 40.8547 10.2701 43.47 10.2671H45.517C48.1323 10.2701 50.6397 11.3104 52.489 13.1598C54.3384 15.0091 55.3787 17.5164 55.3817 20.1318V22.3536C55.3817 22.445 55.3636 22.5355 55.3283 22.6198C55.2931 22.7041 55.2414 22.7806 55.1764 22.8448C55.1113 22.909 55.0342 22.9596 54.9494 22.9937C54.8646 23.0279 54.7739 23.0448 54.6825 23.0436Z" fill="#F56132"/>
<path d="M54.6825 23.2736C54.4385 23.2736 54.2045 23.1767 54.032 23.0041C53.8594 22.8316 53.7625 22.5976 53.7625 22.3536V20.1318C53.7601 17.9433 52.8896 15.8451 51.3421 14.2975C49.7945 12.75 47.6963 11.8795 45.5078 11.8771H43.47C41.2815 11.8795 39.1833 12.75 37.6357 14.2975C36.0882 15.8451 35.2177 17.9433 35.2153 20.1318V22.3536C35.2153 22.5976 35.1184 22.8316 34.9458 23.0041C34.7733 23.1767 34.5393 23.2736 34.2953 23.2736C34.0513 23.2736 33.8173 23.1767 33.6448 23.0041C33.4722 22.8316 33.3753 22.5976 33.3753 22.3536V20.1318C33.3783 17.4555 34.4429 14.8896 36.3353 12.9971C38.2278 11.1047 40.7937 10.0402 43.47 10.0371H45.517C48.1934 10.0402 50.7592 11.1047 52.6517 12.9971C54.5441 14.8896 55.6087 17.4555 55.6117 20.1318V22.3536C55.6117 22.4752 55.5876 22.5956 55.5408 22.7078C55.494 22.82 55.4254 22.9219 55.339 23.0074C55.2526 23.093 55.1501 23.1605 55.0374 23.2062C54.9247 23.2519 54.8041 23.2748 54.6825 23.2736ZM43.47 11.4171H45.517C47.8274 11.4202 50.0422 12.3393 51.6759 13.9729C53.3095 15.6066 54.2287 17.8215 54.2317 20.1318V22.3536C54.2317 22.4756 54.2802 22.5926 54.3664 22.6789C54.4527 22.7651 54.5697 22.8136 54.6917 22.8136C54.8137 22.8136 54.9307 22.7651 55.017 22.6789C55.1032 22.5926 55.1517 22.4756 55.1517 22.3536V20.1318C55.1487 17.5775 54.1326 15.1286 52.3264 13.3224C50.5202 11.5162 48.0714 10.5002 45.517 10.4971H43.47C40.9157 10.5002 38.4668 11.5162 36.6606 13.3224C34.8544 15.1286 33.8383 17.5775 33.8353 20.1318V22.3536C33.8353 22.4756 33.8838 22.5926 33.97 22.6789C34.0563 22.7651 34.1733 22.8136 34.2953 22.8136C34.4173 22.8136 34.5343 22.7651 34.6206 22.6789C34.7068 22.5926 34.7553 22.4756 34.7553 22.3536V20.1318C34.7577 17.8213 35.6767 15.6061 37.3105 13.9723C38.9443 12.3385 41.1595 11.4195 43.47 11.4171Z" fill="#093F68"/>
<path d="M42.9824 37.9729V36.1421H46.1656V37.9729" fill="#FFC9B0"/>
<path d="M46.1656 38.2031C46.1046 38.2031 46.0461 38.1788 46.003 38.1357C45.9598 38.0926 45.9356 38.0341 45.9356 37.9731V36.3631H43.2124V37.9731C43.2124 38.0341 43.1882 38.0926 43.145 38.1357C43.1019 38.1788 43.0434 38.2031 42.9824 38.2031C42.9214 38.2031 42.8629 38.1788 42.8198 38.1357C42.7766 38.0926 42.7524 38.0341 42.7524 37.9731V36.1331C42.7524 36.0721 42.7766 36.0136 42.8198 35.9704C42.8629 35.9273 42.9214 35.9031 42.9824 35.9031H46.1656C46.2266 35.9031 46.2851 35.9273 46.3282 35.9704C46.3714 36.0136 46.3956 36.0721 46.3956 36.1331V37.9731C46.3956 38.0341 46.3714 38.0926 46.3282 38.1357C46.2851 38.1788 46.2266 38.2031 46.1656 38.2031Z" fill="#093F68"/>
<path d="M44.5671 36.57C39.8728 36.57 36.0571 33.7755 36.0571 28.6235V23.8418C36.0571 21.4889 37.9155 19.6558 40.0476 19.9088C41.8232 20.1181 42.2832 21.3187 45.2479 21.3739C46.4715 21.3992 47.6261 19.8605 48.6473 19.6558C50.7955 19.2211 52.7873 20.9714 52.8977 23.3657L53.0587 28.612C53.0679 33.764 49.2614 36.57 44.5671 36.57Z" fill="#FFC9B0"/>
<path d="M44.5671 36.8C39.3438 36.8 35.8271 33.5156 35.8271 28.6235V23.8418C35.823 23.2296 35.9485 22.6235 36.1955 22.0633C36.4425 21.5032 36.8053 21.0017 37.26 20.5919C37.6389 20.2445 38.0879 19.9826 38.5768 19.8239C39.0657 19.6651 39.583 19.6133 40.0936 19.6719C40.7406 19.7664 41.3645 19.9801 41.9336 20.3021C42.9531 20.8609 44.0991 21.1484 45.2617 21.137C45.8827 21.1508 46.5106 20.6908 47.1224 20.2469C47.633 19.8743 48.1183 19.5224 48.6105 19.4235C49.1218 19.3196 49.6498 19.3299 50.1567 19.4536C50.6635 19.5772 51.1369 19.8112 51.543 20.1388C52.0264 20.5277 52.4194 21.0172 52.6946 21.5732C52.9698 22.1293 53.1208 22.7385 53.1369 23.3588L53.2979 28.6074C53.2979 33.5041 49.7881 36.8 44.5671 36.8ZM39.6612 20.1158C38.8832 20.1176 38.1334 20.4077 37.5567 20.93C37.1537 21.298 36.8331 21.747 36.6159 22.2476C36.3987 22.7483 36.2898 23.2892 36.2963 23.8349V28.612C36.2963 33.9434 40.4501 36.3285 44.5763 36.3285C48.7025 36.3285 52.8563 33.9434 52.8563 28.612L52.6953 23.3726C52.6799 22.8207 52.545 22.2788 52.3 21.784C52.0551 21.2893 51.7058 20.8535 51.2762 20.5068C50.9225 20.2209 50.5101 20.0167 50.0684 19.9086C49.6267 19.8004 49.1666 19.7911 48.7209 19.8812C48.3253 19.9594 47.8814 20.2837 47.4099 20.6241C46.7383 21.114 46.0299 21.6223 45.2709 21.6039C44.0405 21.6133 42.8279 21.3093 41.7473 20.7207C41.2137 20.4184 40.6276 20.2201 40.02 20.1365C39.9009 20.123 39.7811 20.1161 39.6612 20.1158Z" fill="#093F68"/>
<path d="M40.4501 29.1501C40.901 29.1501 41.2666 28.7845 41.2666 28.3336C41.2666 27.8827 40.901 27.5171 40.4501 27.5171C39.9992 27.5171 39.6336 27.8827 39.6336 28.3336C39.6336 28.7845 39.9992 29.1501 40.4501 29.1501Z" fill="#093F68"/>
<path d="M48.8704 29.1501C49.3213 29.1501 49.6869 28.7845 49.6869 28.3336C49.6869 27.8827 49.3213 27.5171 48.8704 27.5171C48.4195 27.5171 48.0539 27.8827 48.0539 28.3336C48.0539 28.7845 48.4195 29.1501 48.8704 29.1501Z" fill="#093F68"/>
<path d="M44.6568 31.0131C44.3918 31.0115 44.1274 30.9899 43.8656 30.9487C43.8046 30.9384 43.7502 30.9042 43.7144 30.8537C43.6786 30.8033 43.6643 30.7406 43.6747 30.6796C43.6851 30.6186 43.7193 30.5643 43.7697 30.5285C43.8202 30.4927 43.8828 30.4784 43.9438 30.4887C44.3529 30.5539 44.7698 30.5539 45.1789 30.4887C45.2502 30.2748 44.9374 29.3778 44.4889 28.5268C44.475 28.5 44.4664 28.4706 44.4639 28.4404C44.4613 28.4103 44.4647 28.3799 44.4739 28.3511C44.4831 28.3222 44.4979 28.2955 44.5174 28.2723C44.537 28.2492 44.5609 28.2302 44.5878 28.2163C44.6416 28.1887 44.704 28.1834 44.7617 28.2014C44.8194 28.2195 44.8676 28.2596 44.896 28.3129C45.126 28.7384 45.816 30.1667 45.586 30.6911C45.5601 30.7485 45.5212 30.799 45.4726 30.8389C45.4239 30.8788 45.3667 30.907 45.3054 30.9211C45.0937 30.9779 44.8759 31.0088 44.6568 31.0131Z" fill="#093F68"/>
<path d="M41.8416 26.5581H38.0535C37.9565 26.5581 37.8635 26.5195 37.7949 26.4509C37.7263 26.3824 37.6878 26.2893 37.6878 26.1924C37.6878 26.0954 37.7263 26.0024 37.7949 25.9338C37.8635 25.8652 37.9565 25.8267 38.0535 25.8267H41.8416C41.9386 25.8267 42.0316 25.8652 42.1002 25.9338C42.1688 26.0024 42.2073 26.0954 42.2073 26.1924C42.2073 26.2893 42.1688 26.3824 42.1002 26.4509C42.0316 26.5195 41.9386 26.5581 41.8416 26.5581Z" fill="#093F68"/>
<path d="M51.2647 26.5581H47.4766C47.3796 26.5581 47.2866 26.5195 47.218 26.4509C47.1494 26.3824 47.1109 26.2893 47.1109 26.1924C47.1109 26.0954 47.1494 26.0024 47.218 25.9338C47.2866 25.8652 47.3796 25.8267 47.4766 25.8267H51.2647C51.3617 25.8267 51.4547 25.8652 51.5233 25.9338C51.5919 26.0024 51.6304 26.0954 51.6304 26.1924C51.6304 26.2893 51.5919 26.3824 51.5233 26.4509C51.4547 26.5195 51.3617 26.5581 51.2647 26.5581Z" fill="#093F68"/>
<path d="M41.1907 31.1051H39.4634C38.8703 31.1051 38.3014 30.8697 37.8818 30.4505C37.4622 30.0313 37.2261 29.4627 37.2255 28.8695V27.7816C37.2261 27.5197 37.3306 27.2688 37.516 27.0838C37.7014 26.8988 37.9526 26.7949 38.2145 26.7949H42.4396C42.7013 26.7949 42.9523 26.8989 43.1373 27.0839C43.3224 27.269 43.4263 27.5199 43.4263 27.7816V28.8695C43.4257 29.4623 43.19 30.0305 42.7708 30.4497C42.3517 30.8688 41.7834 31.1045 41.1907 31.1051ZM38.2145 27.2549C38.0746 27.2549 37.9404 27.3103 37.8413 27.409C37.7421 27.5078 37.6861 27.6417 37.6855 27.7816V28.8695C37.6861 29.3407 37.8737 29.7923 38.2071 30.1252C38.5404 30.4581 38.9923 30.6451 39.4634 30.6451H41.1907C41.6616 30.6451 42.1133 30.4581 42.4462 30.1251C42.7792 29.7921 42.9663 29.3404 42.9663 28.8695V27.7816C42.9657 27.6421 42.91 27.5085 42.8114 27.4099C42.7127 27.3112 42.5791 27.2555 42.4396 27.2549H38.2145Z" fill="#093F68"/>
<path d="M49.3971 31.1051H47.6675C47.0748 31.1045 46.5065 30.8688 46.0874 30.4497C45.6682 30.0305 45.4325 29.4623 45.4319 28.8695V27.7816C45.4325 27.5197 45.537 27.2688 45.7224 27.0838C45.9078 26.8988 46.159 26.7949 46.4209 26.7949H50.646C50.9075 26.7955 51.1581 26.8997 51.343 27.0846C51.5279 27.2695 51.6321 27.5201 51.6327 27.7816V28.8695C51.6321 29.4623 51.3964 30.0305 50.9772 30.4497C50.5581 30.8688 49.9898 31.1045 49.3971 31.1051ZM46.4209 27.2549C46.281 27.2549 46.1468 27.3103 46.0477 27.409C45.9485 27.5078 45.8925 27.6417 45.8919 27.7816V28.8695C45.8925 29.3403 46.0798 29.7915 46.4126 30.1244C46.7455 30.4572 47.1968 30.6445 47.6675 30.6451H49.3971C49.868 30.6451 50.3196 30.4581 50.6526 30.1251C50.9856 29.7921 51.1727 29.3404 51.1727 28.8695V27.7816C51.1721 27.6421 51.1164 27.5085 51.0178 27.4099C50.9191 27.3112 50.7855 27.2555 50.646 27.2549H46.4209Z" fill="#093F68"/>
<path d="M45.5055 28.5637C45.4507 28.5637 45.3977 28.5441 45.356 28.5085C44.4222 27.7058 43.493 28.4763 43.4539 28.5085C43.4309 28.5281 43.4043 28.543 43.3756 28.5524C43.3469 28.5617 43.3166 28.5653 43.2865 28.563C43.2564 28.5606 43.227 28.5524 43.2001 28.5387C43.1732 28.525 43.1492 28.5061 43.1296 28.4832C43.11 28.4602 43.095 28.4336 43.0857 28.4049C43.0763 28.3762 43.0727 28.3459 43.0751 28.3158C43.0774 28.2857 43.0857 28.2563 43.0994 28.2294C43.1131 28.2025 43.1319 28.1785 43.1549 28.1589C43.5017 27.8567 43.9461 27.6902 44.4061 27.6902C44.8661 27.6902 45.3105 27.8567 45.6573 28.1589C45.7033 28.1989 45.7316 28.2555 45.7359 28.3163C45.7402 28.3771 45.7202 28.4371 45.6803 28.4832C45.6587 28.5084 45.6319 28.5287 45.6017 28.5426C45.5715 28.5565 45.5387 28.5637 45.5055 28.5637Z" fill="#093F68"/>
<path d="M37.4555 28.0117C37.4215 28.0115 37.3879 28.0044 37.3566 27.991L34.7668 26.7628C34.7116 26.7366 34.6691 26.6895 34.6486 26.6319C34.6281 26.5743 34.6313 26.511 34.6576 26.4558C34.6838 26.4006 34.7309 26.358 34.7885 26.3376C34.846 26.3171 34.9094 26.3203 34.9646 26.3465L37.5544 27.5747C37.6012 27.5974 37.6389 27.6352 37.6614 27.682C37.6839 27.7288 37.69 27.7818 37.6785 27.8325C37.667 27.8832 37.6387 27.9284 37.5983 27.961C37.5578 27.9935 37.5075 28.0114 37.4555 28.0117Z" fill="#093F68"/>
<path d="M51.52 28.0116C51.4685 28.0113 51.4186 27.9938 51.3783 27.9617C51.3379 27.9297 51.3096 27.885 51.2976 27.8349C51.2857 27.7848 51.2909 27.7322 51.3125 27.6854C51.334 27.6386 51.3707 27.6004 51.4165 27.5769L53.4865 26.5534C53.5414 26.5266 53.6047 26.5227 53.6625 26.5425C53.7203 26.5624 53.7679 26.6043 53.7947 26.6592C53.8215 26.7141 53.8255 26.7775 53.8056 26.8353C53.7858 26.8931 53.7438 26.9406 53.6889 26.9674L51.6189 27.9886C51.5881 28.0036 51.5543 28.0114 51.52 28.0116Z" fill="#093F68"/>
<path d="M43.5252 12.9307H45.4595C47.4774 12.9307 49.4126 13.7323 50.8395 15.1591C52.2663 16.586 53.0679 18.5212 53.0679 20.5391V21.3625H35.9168V20.5391C35.9168 18.5212 36.7184 16.586 38.1453 15.1591C39.5721 13.7323 41.5073 12.9307 43.5252 12.9307Z" fill="#68E1FD"/>
<path d="M53.0679 21.5925H35.9168C35.8558 21.5925 35.7973 21.5683 35.7542 21.5251C35.711 21.482 35.6868 21.4235 35.6868 21.3625V20.5391C35.6892 18.461 36.5158 16.4686 37.9853 14.9992C39.4548 13.5297 41.4471 12.7031 43.5252 12.7007H45.4595C47.5376 12.7031 49.5299 13.5297 50.9994 14.9992C52.4689 16.4686 53.2955 18.461 53.2979 20.5391V21.3625C53.2979 21.4235 53.2737 21.482 53.2305 21.5251C53.1874 21.5683 53.1289 21.5925 53.0679 21.5925ZM36.1468 21.1325H52.8379V20.5391C52.8355 18.583 52.0573 16.7076 50.6741 15.3245C49.2909 13.9413 47.4156 13.1631 45.4595 13.1607H43.5252C41.5691 13.1631 39.6938 13.9413 38.3106 15.3245C36.9274 16.7076 36.1492 18.583 36.1468 20.5391V21.1325Z" fill="#093F68"/>
<path d="M35.0474 22.3538H34.1665C33.4056 22.3538 32.7888 22.9706 32.7888 23.7315V29.3803C32.7888 30.1411 33.4056 30.758 34.1665 30.758H35.0474C35.8083 30.758 36.4251 30.1411 36.4251 29.3803V23.7315C36.4251 22.9706 35.8083 22.3538 35.0474 22.3538Z" fill="#F56132"/>
<path d="M35.0474 30.9878H34.1665C33.7395 30.9878 33.33 30.8182 33.0281 30.5163C32.7261 30.2143 32.5565 29.8048 32.5565 29.3778V23.7313C32.5565 23.3043 32.7261 22.8948 33.0281 22.5929C33.33 22.291 33.7395 22.1213 34.1665 22.1213H35.0474C35.4744 22.1213 35.8839 22.291 36.1858 22.5929C36.4878 22.8948 36.6574 23.3043 36.6574 23.7313V29.3778C36.6574 29.8048 36.4878 30.2143 36.1858 30.5163C35.8839 30.8182 35.4744 30.9878 35.0474 30.9878ZM34.1665 22.5836C33.8615 22.5836 33.569 22.7048 33.3533 22.9205C33.1377 23.1361 33.0165 23.4286 33.0165 23.7336V29.3801C33.0165 29.6851 33.1377 29.9776 33.3533 30.1933C33.569 30.409 33.8615 30.5301 34.1665 30.5301H35.0474C35.3524 30.5301 35.6449 30.409 35.8606 30.1933C36.0762 29.9776 36.1974 29.6851 36.1974 29.3801V23.7313C36.1974 23.4263 36.0762 23.1338 35.8606 22.9182C35.6449 22.7025 35.3524 22.5813 35.0474 22.5813L34.1665 22.5836Z" fill="#093F68"/>
<path d="M55.1218 22.3538H54.2409C53.48 22.3538 52.8632 22.9706 52.8632 23.7315V29.3803C52.8632 30.1411 53.48 30.758 54.2409 30.758H55.1218C55.8827 30.758 56.4995 30.1411 56.4995 29.3803V23.7315C56.4995 22.9706 55.8827 22.3538 55.1218 22.3538Z" fill="#F56132"/>
<path d="M55.1218 30.9878H54.2409C53.8139 30.9878 53.4044 30.8182 53.1025 30.5163C52.8005 30.2143 52.6309 29.8048 52.6309 29.3778V23.7313C52.6309 23.3043 52.8005 22.8948 53.1025 22.5929C53.4044 22.291 53.8139 22.1213 54.2409 22.1213H55.1218C55.5488 22.1213 55.9583 22.291 56.2602 22.5929C56.5622 22.8948 56.7318 23.3043 56.7318 23.7313V29.3778C56.7318 29.8048 56.5622 30.2143 56.2602 30.5163C55.9583 30.8182 55.5488 30.9878 55.1218 30.9878ZM54.2409 22.5836C53.9359 22.5836 53.6434 22.7048 53.4277 22.9205C53.2121 23.1361 53.0909 23.4286 53.0909 23.7336V29.3801C53.0909 29.6851 53.2121 29.9776 53.4277 30.1933C53.6434 30.409 53.9359 30.5301 54.2409 30.5301H55.1218C55.4268 30.5301 55.7193 30.409 55.935 30.1933C56.1506 29.9776 56.2718 29.6851 56.2718 29.3801V23.7313C56.2718 23.4263 56.1506 23.1338 55.935 22.9182C55.7193 22.7025 55.4268 22.5813 55.1218 22.5813L54.2409 22.5836Z" fill="#093F68"/>
<path d="M35.9168 21.3623H53.0679V21.6843C53.0679 22.7579 52.6414 23.7875 51.8823 24.5467C51.1231 25.3058 50.0935 25.7323 49.0199 25.7323H39.9648C38.8912 25.7323 37.8616 25.3058 37.1024 24.5467C36.3433 23.7875 35.9168 22.7579 35.9168 21.6843V21.3623Z" fill="#68E1FD"/>
<path d="M49.0176 25.9623H39.9648C38.8306 25.9611 37.7432 25.51 36.9411 24.708C36.1391 23.906 35.688 22.8185 35.6868 21.6843V21.3623C35.6868 21.3013 35.711 21.2428 35.7542 21.1997C35.7973 21.1566 35.8558 21.1323 35.9168 21.1323H53.0679C53.1289 21.1323 53.1874 21.1566 53.2305 21.1997C53.2737 21.2428 53.2979 21.3013 53.2979 21.3623V21.6843C53.2967 22.8189 52.8453 23.9067 52.0427 24.7088C51.2402 25.5109 50.1522 25.9617 49.0176 25.9623ZM36.1376 21.5923V21.6843C36.1388 22.6965 36.5415 23.667 37.2572 24.3827C37.973 25.0985 38.9434 25.5011 39.9556 25.5023H49.0084C50.0208 25.5011 50.9915 25.0985 51.7076 24.3829C52.4237 23.6672 52.8269 22.6968 52.8287 21.6843V21.5923H36.1376Z" fill="#093F68"/>
<path d="M44.6476 34.1712C44.0387 34.1835 43.4369 34.0393 42.8996 33.7526C42.411 33.4932 42.0197 33.0824 41.7841 32.5819C41.7615 32.5252 41.7624 32.4618 41.7866 32.4057C41.8107 32.3497 41.8562 32.3055 41.9129 32.2829C41.9696 32.2603 42.033 32.2612 42.0891 32.2854C42.1451 32.3095 42.1893 32.355 42.2119 32.4117C42.251 32.5106 43.1917 34.6772 47.0419 33.1891C47.0703 33.178 47.1006 33.1727 47.131 33.1734C47.1615 33.1741 47.1915 33.1809 47.2193 33.1933C47.2471 33.2057 47.2722 33.2235 47.2931 33.2457C47.3139 33.2679 47.3302 33.294 47.3409 33.3225C47.3516 33.3508 47.3567 33.3808 47.3558 33.411C47.3549 33.4412 47.348 33.4709 47.3357 33.4985C47.3233 33.526 47.3056 33.5509 47.2836 33.5716C47.2616 33.5923 47.2357 33.6085 47.2075 33.6192C46.3948 33.9573 45.5274 34.1443 44.6476 34.1712Z" fill="#093F68"/>
<path d="M38.9873 35.1187C37.8741 35.1187 36.3699 34.9922 35.6086 34.3758C34.3275 33.3385 34.3735 30.8821 34.3758 30.7786C34.3758 30.7176 34.4 30.6591 34.4432 30.6159C34.4863 30.5728 34.5448 30.5486 34.6058 30.5486C34.6668 30.5486 34.7253 30.5728 34.7684 30.6159C34.8116 30.6591 34.8358 30.7176 34.8358 30.7786C34.8358 30.8016 34.7921 33.1108 35.8984 33.9986C37.0047 34.8864 40.2684 34.5828 40.3029 34.5805C40.3331 34.5775 40.3636 34.5804 40.3927 34.5892C40.4217 34.598 40.4488 34.6124 40.4723 34.6316C40.4958 34.6508 40.5153 34.6745 40.5296 34.7012C40.544 34.728 40.5529 34.7573 40.5559 34.7875C40.5589 34.8177 40.556 34.8482 40.5472 34.8772C40.5384 34.9063 40.524 34.9334 40.5048 34.9569C40.4856 34.9803 40.4619 34.9998 40.4352 35.0142C40.4084 35.0285 40.3791 35.0375 40.3489 35.0405C40.2937 35.0612 39.7279 35.1187 38.9873 35.1187Z" fill="#093F68"/>
<path d="M40.8756 33.9365H38.6722C38.2352 33.9365 37.881 34.2908 37.881 34.7277C37.881 35.1647 38.2352 35.5189 38.6722 35.5189H40.8756C41.3126 35.5189 41.6668 35.1647 41.6668 34.7277C41.6668 34.2908 41.3126 33.9365 40.8756 33.9365Z" fill="#F56132"/>
<path d="M40.8756 35.7512H38.6722C38.4094 35.7388 38.1616 35.6256 37.98 35.4353C37.7985 35.2449 37.6972 34.9919 37.6972 34.7289C37.6972 34.4658 37.7985 34.2129 37.98 34.0225C38.1616 33.8322 38.4094 33.719 38.6722 33.7065H40.8756C41.1384 33.719 41.3862 33.8322 41.5678 34.0225C41.7493 34.2129 41.8506 34.4658 41.8506 34.7289C41.8506 34.9919 41.7493 35.2449 41.5678 35.4353C41.3862 35.6256 41.1384 35.7388 40.8756 35.7512ZM38.6722 34.1665C38.5293 34.1757 38.3952 34.2389 38.2972 34.3434C38.1992 34.4478 38.1447 34.5857 38.1447 34.7289C38.1447 34.8721 38.1992 35.01 38.2972 35.1144C38.3952 35.2189 38.5293 35.2821 38.6722 35.2912H40.8756C41.0185 35.2821 41.1526 35.2189 41.2506 35.1144C41.3486 35.01 41.4031 34.8721 41.4031 34.7289C41.4031 34.5857 41.3486 34.4478 41.2506 34.3434C41.1526 34.2389 41.0185 34.1757 40.8756 34.1665H38.6722Z" fill="#093F68"/>
<path d="M38.2858 37.9729H50.8599C51.1976 37.9729 51.532 38.0394 51.8439 38.1686C52.1559 38.2979 52.4394 38.4873 52.6782 38.726C52.9169 38.9648 53.1063 39.2483 53.2356 39.5603C53.3648 39.8722 53.4313 40.2066 53.4313 40.5443V54.9469H35.7213V40.5466C35.7207 39.8654 35.9904 39.2118 36.4712 38.7293C36.952 38.2468 37.6046 37.9747 38.2858 37.9729Z" fill="#68E1FD"/>
<path d="M53.4336 55.1769H35.7236C35.6626 55.1769 35.6041 55.1527 35.561 55.1096C35.5178 55.0664 35.4936 55.0079 35.4936 54.9469V40.5466C35.4942 39.8036 35.7895 39.0912 36.3146 38.5656C36.8398 38.04 37.552 37.7441 38.295 37.7429H50.8714C51.6144 37.7441 52.3266 38.04 52.8518 38.5656C53.3769 39.0912 53.6722 39.8036 53.6728 40.5466V54.9469C53.6728 54.9779 53.6666 55.0086 53.6545 55.0371C53.6423 55.0656 53.6246 55.0914 53.6022 55.1129C53.5799 55.1344 53.5534 55.1511 53.5245 55.1621C53.4955 55.1731 53.4646 55.1782 53.4336 55.1769ZM35.9536 54.7169H53.2036V40.5466C53.203 39.9256 52.9562 39.3302 52.5173 38.8909C52.0784 38.4515 51.4832 38.2041 50.8622 38.2029H38.2858C37.6648 38.2041 37.0696 38.4515 36.6307 38.8909C36.1918 39.3302 35.945 39.9256 35.9444 40.5466L35.9536 54.7169Z" fill="#093F68"/>
<path d="M39.9464 37.9729H42.32V45.3237H39.9464V37.9729Z" fill="white"/>
<path d="M42.32 45.5561H39.9464C39.8854 45.5561 39.8269 45.5318 39.7838 45.4887C39.7406 45.4456 39.7164 45.3871 39.7164 45.3261V37.9661C39.7164 37.9051 39.7406 37.8466 39.7838 37.8034C39.8269 37.7603 39.8854 37.7361 39.9464 37.7361H42.32C42.381 37.7361 42.4395 37.7603 42.4826 37.8034C42.5258 37.8466 42.55 37.9051 42.55 37.9661V45.3261C42.55 45.3871 42.5258 45.4456 42.4826 45.4887C42.4395 45.5318 42.381 45.5561 42.32 45.5561ZM40.1764 45.0961H42.09V38.1961H40.1764V45.0961Z" fill="#093F68"/>
<path d="M46.828 37.9729H49.2016V45.3237H46.828V37.9729Z" fill="white"/>
<path d="M49.2016 45.5561H46.828C46.767 45.5561 46.7085 45.5318 46.6654 45.4887C46.6222 45.4456 46.598 45.3871 46.598 45.3261V37.9661C46.598 37.9051 46.6222 37.8466 46.6654 37.8034C46.7085 37.7603 46.767 37.7361 46.828 37.7361H49.2016C49.2626 37.7361 49.3211 37.7603 49.3642 37.8034C49.4074 37.8466 49.4316 37.9051 49.4316 37.9661V45.3261C49.4316 45.3871 49.4074 45.4456 49.3642 45.4887C49.3211 45.5318 49.2626 45.5561 49.2016 45.5561ZM47.058 45.0961H48.9716V38.1961H47.058V45.0961Z" fill="#093F68"/>
<path d="M38.3387 45.3262H50.8116V54.9494H38.3387V45.3262Z" fill="white"/>
<path d="M50.8116 55.1771H38.3387C38.2777 55.1771 38.2192 55.1529 38.1761 55.1097C38.1329 55.0666 38.1087 55.0081 38.1087 54.9471V45.3262C38.1087 45.2652 38.1329 45.2067 38.1761 45.1636C38.2192 45.1204 38.2777 45.0962 38.3387 45.0962H50.8116C50.8726 45.0962 50.9311 45.1204 50.9742 45.1636C51.0174 45.2067 51.0416 45.2652 51.0416 45.3262V54.9471C51.0416 55.0081 51.0174 55.0666 50.9742 55.1097C50.9311 55.1529 50.8726 55.1771 50.8116 55.1771ZM38.5687 54.7171H50.5816V45.5562H38.5687V54.7171Z" fill="#093F68"/>
<path d="M38.3387 45.556C38.2777 45.556 38.2192 45.5318 38.1761 45.4887C38.1329 45.4455 38.1087 45.387 38.1087 45.326V41.1699C38.1087 41.1089 38.1329 41.0504 38.1761 41.0073C38.2192 40.9642 38.2777 40.9399 38.3387 40.9399C38.3997 40.9399 38.4582 40.9642 38.5013 41.0073C38.5445 41.0504 38.5687 41.1089 38.5687 41.1699V45.3099C38.5709 45.3415 38.5666 45.3731 38.556 45.4029C38.5455 45.4327 38.5289 45.46 38.5073 45.4831C38.4857 45.5062 38.4596 45.5246 38.4306 45.5371C38.4016 45.5497 38.3703 45.5561 38.3387 45.556Z" fill="#093F68"/>
<path d="M50.8116 45.556C50.7506 45.556 50.6921 45.5318 50.649 45.4887C50.6058 45.4455 50.5816 45.387 50.5816 45.326V41.1699C50.5816 41.1089 50.6058 41.0504 50.649 41.0073C50.6921 40.9642 50.7506 40.9399 50.8116 40.9399C50.8726 40.9399 50.9311 40.9642 50.9742 41.0073C51.0174 41.0504 51.0416 41.1089 51.0416 41.1699V45.3099C51.0438 45.3415 51.0395 45.3731 51.0289 45.4029C51.0184 45.4327 51.0018 45.46 50.9802 45.4831C50.9586 45.5062 50.9325 45.5246 50.9035 45.5371C50.8745 45.5497 50.8432 45.5561 50.8116 45.556Z" fill="#093F68"/>
<path d="M42.2878 53.4795H56.8192V54.9469H42.2878V53.4795Z" fill="#FFBC0E"/>
<path d="M56.81 55.1769H42.2878C42.2268 55.1769 42.1683 55.1527 42.1252 55.1095C42.082 55.0664 42.0578 55.0079 42.0578 54.9469V53.4795C42.0578 53.4185 42.082 53.36 42.1252 53.3169C42.1683 53.2737 42.2268 53.2495 42.2878 53.2495H56.81C56.871 53.2495 56.9295 53.2737 56.9726 53.3169C57.0158 53.36 57.04 53.4185 57.04 53.4795V54.9469C57.04 55.0079 57.0158 55.0664 56.9726 55.1095C56.9295 55.1527 56.871 55.1769 56.81 55.1769ZM42.5086 54.7169H56.58V53.7095H42.5178L42.5086 54.7169Z" fill="#093F68"/>
<path d="M65.09 54.947H51.5821V53.4796H65.09V54.947Z" fill="#FFBC0E"/>
<path d="M65.09 55.1769H51.5798C51.5188 55.1769 51.4603 55.1527 51.4172 55.1095C51.374 55.0664 51.3498 55.0079 51.3498 54.9469V53.4795C51.3498 53.4185 51.374 53.36 51.4172 53.3169C51.4603 53.2737 51.5188 53.2495 51.5798 53.2495H65.09C65.151 53.2495 65.2095 53.2737 65.2526 53.3169C65.2958 53.36 65.32 53.4185 65.32 53.4795V54.9469C65.32 55.0079 65.2958 55.0664 65.2526 55.1095C65.2095 55.1527 65.151 55.1769 65.09 55.1769ZM51.8121 54.7169H64.86V53.7095H51.8098L51.8121 54.7169Z" fill="#093F68"/>
<path d="M54.9493 45.3262H68.4549L65.0877 53.4797H51.5798L54.9493 45.3262Z" fill="#FFBC0E"/>
<path d="M65.09 53.7097H51.5798C51.5421 53.7098 51.505 53.7006 51.4717 53.6829C51.4384 53.6653 51.41 53.6397 51.3889 53.6085C51.3679 53.577 51.355 53.5407 51.3514 53.503C51.3478 53.4653 51.3536 53.4272 51.3682 53.3923L54.74 45.2388C54.7574 45.1964 54.7871 45.1602 54.8252 45.1348C54.8633 45.1094 54.9081 45.096 54.9539 45.0962H68.4595C68.4974 45.096 68.5347 45.1052 68.5682 45.1229C68.6016 45.1406 68.6302 45.1663 68.6514 45.1977C68.6725 45.2291 68.6856 45.2652 68.6895 45.3029C68.6933 45.3405 68.6878 45.3786 68.6734 45.4136L65.3016 53.5671C65.2843 53.6091 65.255 53.645 65.2174 53.6704C65.1797 53.6958 65.1354 53.7095 65.09 53.7097ZM51.9271 53.2497H64.9359L68.1145 45.5562H55.1011L51.9271 53.2497Z" fill="#093F68"/>
<path d="M44.574 52.2882C43.4611 52.2869 42.3942 51.8443 41.6073 51.0574C40.8203 50.2705 40.3777 49.2035 40.3765 48.0907V47.3294C40.3765 47.2684 40.4007 47.2099 40.4439 47.1667C40.487 47.1236 40.5455 47.0994 40.6065 47.0994H48.5415C48.6025 47.0994 48.661 47.1236 48.7041 47.1667C48.7473 47.2099 48.7715 47.2684 48.7715 47.3294V48.0907C48.7703 49.2035 48.3277 50.2705 47.5407 51.0574C46.7538 51.8443 45.6869 52.2869 44.574 52.2882ZM40.8365 47.5594V48.0907C40.8365 49.0819 41.2303 50.0326 41.9312 50.7335C42.6321 51.4344 43.5827 51.8282 44.574 51.8282C45.5652 51.8282 46.5159 51.4344 47.2168 50.7335C47.9177 50.0326 48.3115 49.0819 48.3115 48.0907V47.5594H40.8365Z" fill="#DFEAEF"/>
<path d="M37.881 51.06C36.7609 49.4638 35.7466 48.3897 34.6265 46.7935C34.1964 46.1794 32.9176 44.3325 32.7037 44.0335C32.5303 43.7216 32.4033 43.3861 32.3265 43.0376C32.3265 43.0376 31.6802 38.5641 30.3922 39.4243C30.3332 39.4679 30.2884 39.5279 30.2634 39.5968C30.1878 39.8368 30.1992 40.0958 30.2956 40.3282C30.3209 40.4064 30.659 41.4506 30.6268 41.4529C29.2031 41.5219 27.1377 41.055 25.7209 41.2229C25.5711 41.2267 25.4266 41.2792 25.3092 41.3724C25.244 41.4477 25.2031 41.541 25.1921 41.6399C25.181 41.7389 25.2002 41.8389 25.2471 41.9267C25.3432 42.0996 25.4759 42.2496 25.6358 42.366C26.818 43.355 28.7293 44.0519 29.5987 45.356L33.7019 54.2317C34.6426 56.1959 36.8759 56.4305 37.881 55.3541C38.7021 54.4571 38.5342 52.0743 37.881 51.06Z" fill="#FFC9B0"/>
<path d="M36.3101 56.2028C36.1653 56.2027 36.0207 56.1912 35.8777 56.1683C35.3581 56.0799 34.8685 55.8641 34.4527 55.5402C34.0369 55.2163 33.7078 54.7944 33.4949 54.3122L29.3963 45.4503C28.8788 44.6844 27.9473 44.1209 27.048 43.5758C26.5032 43.2649 25.982 42.9144 25.4886 42.527C25.2981 42.3906 25.1409 42.2129 25.0286 42.0072C24.9618 41.8766 24.9363 41.7287 24.9556 41.5833C24.975 41.4378 25.0381 41.3017 25.1367 41.193C25.2896 41.0602 25.4839 40.9846 25.6864 40.9791C26.4799 40.8894 27.4597 40.9906 28.4096 41.0872C29.0996 41.1585 29.7505 41.2206 30.3278 41.2229C30.2404 40.9308 30.0978 40.48 30.0679 40.3949C29.9505 40.1115 29.9407 39.795 30.0403 39.5048C30.0826 39.3918 30.158 39.294 30.2565 39.2242C30.3622 39.1456 30.4869 39.0965 30.6179 39.0819C30.7488 39.0674 30.8813 39.0879 31.0017 39.1414C32.0252 39.6014 32.4944 42.6512 32.545 42.9985C32.6143 43.3122 32.7281 43.6142 32.8831 43.8955L33.166 44.3026C33.626 44.9696 34.4724 46.1863 34.8059 46.6624C35.3625 47.4559 35.9007 48.1298 36.4159 48.7853C36.9311 49.4408 37.4877 50.1262 38.0535 50.9312C38.9919 52.3848 38.7044 54.763 38.0282 55.4875C37.8051 55.7168 37.5378 55.8984 37.2425 56.0213C36.9472 56.1443 36.63 56.206 36.3101 56.2028ZM26.381 41.4C26.169 41.3991 25.9571 41.4091 25.7462 41.4299C25.6476 41.431 25.5515 41.4615 25.4702 41.5173C25.4404 41.5592 25.423 41.6086 25.4202 41.6599C25.4173 41.7112 25.4291 41.7623 25.4541 41.8071C25.5375 41.9496 25.6495 42.0734 25.783 42.1705C26.2593 42.5423 26.7621 42.879 27.2872 43.1779C28.2348 43.7529 29.2169 44.3463 29.7896 45.2042L29.8057 45.2364L33.9112 54.1121C34.0913 54.528 34.3717 54.8928 34.7274 55.1737C35.083 55.4547 35.5027 55.6431 35.949 55.7221C36.2645 55.7822 36.5898 55.7648 36.897 55.6714C37.2043 55.5781 37.4843 55.4116 37.7131 55.1862C38.4261 54.4226 38.3088 52.1594 37.6901 51.198C37.1358 50.4068 36.5953 49.7306 36.0801 49.0774C35.5649 48.4242 35.0106 47.7388 34.4448 46.9338C34.1113 46.4577 33.2649 45.2387 32.8026 44.5717L32.5128 44.16C32.3218 43.8242 32.183 43.4612 32.1011 43.0836C31.924 41.86 31.4226 39.8291 30.82 39.56C30.7703 39.539 30.7157 39.5324 30.6624 39.5409C30.6091 39.5495 30.5593 39.5728 30.5187 39.6083C30.4977 39.6266 30.4825 39.6506 30.475 39.6773C30.4191 39.8656 30.4313 40.0676 30.5095 40.2477C30.9143 41.4276 30.8752 41.4874 30.8154 41.5748C30.7954 41.6045 30.7688 41.6291 30.7377 41.6466C30.7065 41.6642 30.6717 41.6743 30.636 41.676C29.878 41.6841 29.1203 41.6403 28.3682 41.5449C27.692 41.4759 26.9974 41.4 26.381 41.4Z" fill="#093F68"/>
<path d="M32.4875 34.4517C32.4832 34.3372 32.4412 34.2273 32.368 34.1391C32.2948 34.0509 32.1945 33.9894 32.0827 33.9641C31.8872 33.9204 31.6894 33.8905 31.4916 33.8583C31.4645 33.8561 31.4388 33.8456 31.4179 33.8284C31.3969 33.8111 31.3817 33.7878 31.3743 33.7617C31.3168 33.603 31.2501 33.4489 31.1811 33.3017C31.1705 33.2834 31.166 33.2623 31.168 33.2412C31.1701 33.2202 31.1787 33.2003 31.1926 33.1844C31.3122 33.0211 31.4226 32.8578 31.5422 32.6876C31.6056 32.5915 31.6354 32.4772 31.6271 32.3624C31.6188 32.2476 31.5728 32.1388 31.4962 32.0528C31.3168 31.855 31.1213 31.6687 30.9327 31.4778C30.8388 31.3726 30.7084 31.3069 30.568 31.2941C30.4275 31.2813 30.2874 31.3223 30.176 31.4088C30.0265 31.5123 29.8793 31.6158 29.7344 31.7239C29.7173 31.7361 29.6968 31.7426 29.6758 31.7426C29.6547 31.7426 29.6342 31.7361 29.6171 31.7239C29.4492 31.6503 29.279 31.5813 29.1088 31.5146C29.088 31.5093 29.0695 31.4975 29.0559 31.481C29.0422 31.4645 29.0342 31.444 29.0329 31.4226C29.0053 31.2432 28.9754 31.0615 28.9432 30.8821C28.9225 30.7566 28.8589 30.6422 28.7633 30.5583C28.6677 30.4744 28.5459 30.4263 28.4188 30.4221C28.1397 30.4221 27.8614 30.4221 27.5839 30.4221C27.4653 30.424 27.3507 30.466 27.2589 30.5411C27.1671 30.6162 27.1033 30.7202 27.0779 30.8361C27.0319 31.0385 27.002 31.2432 26.9675 31.4479C26.9659 31.4692 26.9577 31.4895 26.9441 31.506C26.9305 31.5224 26.9122 31.5343 26.8916 31.5399C26.7283 31.6043 26.5673 31.6733 26.4063 31.7446C26.3905 31.7569 26.3711 31.7636 26.3511 31.7636C26.3311 31.7636 26.3117 31.7569 26.2959 31.7446C26.1349 31.6273 25.9739 31.5146 25.806 31.3973C25.7103 31.3314 25.5951 31.2997 25.4791 31.3072C25.3631 31.3147 25.253 31.361 25.1666 31.4387C24.955 31.6319 24.748 31.8343 24.5525 32.0459C24.46 32.1391 24.4051 32.2631 24.3983 32.3942C24.3915 32.5254 24.4333 32.6544 24.5157 32.7566C24.6261 32.913 24.7457 33.0671 24.8469 33.2166C24.8526 33.2297 24.8555 33.2438 24.8555 33.258C24.8555 33.2723 24.8526 33.2864 24.8469 33.2994C24.7802 33.4742 24.7112 33.649 24.6376 33.8215C24.6305 33.8343 24.621 33.8456 24.6096 33.8547C24.5981 33.8637 24.585 33.8705 24.5709 33.8744C24.3915 33.9089 24.2098 33.9388 24.0281 33.9664C23.9007 33.9808 23.7824 34.0396 23.694 34.1326C23.6057 34.2256 23.553 34.3467 23.5451 34.4747C23.5336 34.7668 23.5451 35.0566 23.5451 35.3464C23.55 35.4598 23.5917 35.5685 23.6639 35.6561C23.7361 35.7437 23.8349 35.8053 23.9453 35.8317C24.1523 35.8777 24.3639 35.9099 24.5732 35.9467C24.5932 35.9486 24.6122 35.9564 24.6278 35.9691C24.6433 35.9818 24.6548 35.9988 24.6606 36.018C24.725 36.1836 24.794 36.3469 24.8676 36.5102C24.879 36.5251 24.8851 36.5433 24.8851 36.562C24.8851 36.5807 24.879 36.5989 24.8676 36.6137C24.7572 36.7632 24.6376 36.915 24.5433 37.0737C24.4606 37.1818 24.4211 37.3169 24.4326 37.4526C24.444 37.5882 24.5057 37.7147 24.6054 37.8074C24.7802 37.9868 24.955 38.1616 25.1344 38.3364C25.2288 38.4401 25.3592 38.5038 25.499 38.5145C25.6388 38.5252 25.7775 38.4821 25.8865 38.3939C26.0383 38.2881 26.1901 38.18 26.3465 38.0696C26.3611 38.0596 26.3783 38.0543 26.396 38.0543C26.4136 38.0543 26.4308 38.0596 26.4454 38.0696C26.5995 38.1363 26.7536 38.203 26.9054 38.2605C26.9297 38.2671 26.9512 38.2814 26.9666 38.3014C26.982 38.3213 26.9904 38.3457 26.9905 38.3709C27.0181 38.548 27.048 38.7274 27.0802 38.9045C27.0983 39.0267 27.1577 39.1389 27.2485 39.2226C27.3394 39.3063 27.4561 39.3564 27.5793 39.3645H28.4579C28.5727 39.3588 28.6825 39.3158 28.7706 39.2418C28.8586 39.1679 28.92 39.0672 28.9455 38.9551C28.9892 38.7573 29.0191 38.5572 29.0513 38.3571C29.0531 38.3335 29.0619 38.311 29.0767 38.2926C29.0915 38.2741 29.1115 38.2605 29.1341 38.2536C29.2974 38.1915 29.4607 38.1225 29.6217 38.0512C29.6373 38.0406 29.6557 38.035 29.6746 38.035C29.6935 38.035 29.7119 38.0406 29.7275 38.0512L30.1875 38.3755C30.2935 38.4524 30.4224 38.4913 30.5532 38.4859C30.6747 38.486 30.7913 38.4381 30.8775 38.3525C31.0707 38.1731 31.2547 37.9845 31.4433 37.7982C31.552 37.7039 31.6197 37.571 31.6321 37.4276C31.6446 37.2843 31.6008 37.1417 31.51 37.03C31.4065 36.8805 31.303 36.7333 31.1972 36.5884C31.1842 36.5743 31.1761 36.5564 31.1741 36.5374C31.172 36.5184 31.1761 36.4992 31.1857 36.4826C31.257 36.3193 31.326 36.156 31.3904 35.9904C31.3962 35.9695 31.4084 35.9509 31.4253 35.9372C31.4422 35.9236 31.463 35.9157 31.4847 35.9145C31.6641 35.8869 31.8458 35.857 32.0252 35.8248C32.1526 35.8086 32.2702 35.7477 32.357 35.6529C32.4437 35.5582 32.494 35.4357 32.499 35.3073C32.4967 35.0244 32.4944 34.73 32.4875 34.4517ZM28.0163 36.8161C27.6347 36.8152 27.262 36.7012 26.9452 36.4885C26.6285 36.2758 26.3818 35.974 26.2366 35.6212C26.0913 35.2683 26.0539 34.8804 26.129 34.5063C26.2042 34.1322 26.3886 33.7888 26.6588 33.5195C26.9291 33.2502 27.2732 33.067 27.6475 32.9932C28.0219 32.9194 28.4097 32.9582 28.762 33.1047C29.1143 33.2513 29.4153 33.499 29.6268 33.8165C29.8384 34.134 29.9511 34.5072 29.9506 34.8887C29.9494 35.4007 29.745 35.8913 29.3823 36.2527C29.0196 36.6141 28.5283 36.8167 28.0163 36.8161Z" fill="#68E1FD" stroke="#093F68" stroke-width="2" stroke-linecap="round" stroke-linejoin="round"/>
<path d="M42.8605 15.0535C42.9961 15.0535 43.1262 15.1072 43.2224 15.2029C43.3185 15.2986 43.3728 15.4284 43.3734 15.5641V19.1889C43.3728 19.3245 43.3185 19.4544 43.2224 19.5501C43.1262 19.6457 42.9961 19.6995 42.8605 19.6995C42.7253 19.6989 42.5957 19.6449 42.5001 19.5492C42.4045 19.4536 42.3505 19.3241 42.3499 19.1889V15.5641C42.3505 15.4288 42.4045 15.2993 42.5001 15.2037C42.5957 15.1081 42.7253 15.0541 42.8605 15.0535Z" fill="#093F68"/>
<path d="M45.2042 15.9598H44.3325C44.2105 15.9598 44.0935 15.9113 44.0072 15.8251C43.921 15.7388 43.8725 15.6218 43.8725 15.4998C43.8725 15.3778 43.921 15.2608 44.0072 15.1745C44.0935 15.0883 44.2105 15.0398 44.3325 15.0398H47.0925C47.2145 15.0398 47.3315 15.0883 47.4178 15.1745C47.504 15.2608 47.5525 15.3778 47.5525 15.4998C47.5525 15.6218 47.504 15.7388 47.4178 15.8251C47.3315 15.9113 47.2145 15.9598 47.0925 15.9598H46.23V19.2465C46.23 19.3685 46.1815 19.4855 46.0953 19.5718C46.009 19.658 45.892 19.7065 45.77 19.7065H45.6527C45.5307 19.7065 45.4137 19.658 45.3274 19.5718C45.2412 19.4855 45.1927 19.3685 45.1927 19.2465L45.2042 15.9598Z" fill="#093F68"/>
</svg>
