<svg width="35" height="35" viewBox="0 0 35 35" fill="none" xmlns="http://www.w3.org/2000/svg">
<path d="M32.0833 29.1668H2.91667C1.30582 29.1668 0 27.861 0 26.2502V8.75016C0 7.13931 1.30582 5.8335 2.91667 5.8335H32.0833C33.6942 5.8335 35 7.13931 35 8.75016V26.2502C35 27.861 33.6942 29.1668 32.0833 29.1668ZM7.77778 12.8821V10.4516C7.77778 10.0489 7.45129 9.72238 7.04861 9.72238H4.61806C4.21537 9.72238 3.88889 10.0489 3.88889 10.4516V12.8821C3.88889 13.2848 4.21537 13.6113 4.61806 13.6113H7.04861C7.45129 13.6113 7.77778 13.2848 7.77778 12.8821ZM13.6111 12.8821V10.4516C13.6111 10.0489 13.2846 9.72238 12.8819 9.72238H10.4514C10.0487 9.72238 9.72222 10.0489 9.72222 10.4516V12.8821C9.72222 13.2848 10.0487 13.6113 10.4514 13.6113H12.8819C13.2846 13.6113 13.6111 13.2848 13.6111 12.8821ZM19.4444 12.8821V10.4516C19.4444 10.0489 19.118 9.72238 18.7153 9.72238H16.2847C15.882 9.72238 15.5556 10.0489 15.5556 10.4516V12.8821C15.5556 13.2848 15.882 13.6113 16.2847 13.6113H18.7153C19.118 13.6113 19.4444 13.2848 19.4444 12.8821ZM25.2778 12.8821V10.4516C25.2778 10.0489 24.9513 9.72238 24.5486 9.72238H22.1181C21.7154 9.72238 21.3889 10.0489 21.3889 10.4516V12.8821C21.3889 13.2848 21.7154 13.6113 22.1181 13.6113H24.5486C24.9513 13.6113 25.2778 13.2848 25.2778 12.8821ZM31.1111 12.8821V10.4516C31.1111 10.0489 30.7846 9.72238 30.3819 9.72238H27.9514C27.5487 9.72238 27.2222 10.0489 27.2222 10.4516V12.8821C27.2222 13.2848 27.5487 13.6113 27.9514 13.6113H30.3819C30.7846 13.6113 31.1111 13.2848 31.1111 12.8821ZM10.6944 18.7154V16.2849C10.6944 15.8822 10.368 15.5557 9.96528 15.5557H7.53472C7.13204 15.5557 6.80556 15.8822 6.80556 16.2849V18.7154C6.80556 19.1181 7.13204 19.4446 7.53472 19.4446H9.96528C10.368 19.4446 10.6944 19.1181 10.6944 18.7154ZM16.5278 18.7154V16.2849C16.5278 15.8822 16.2013 15.5557 15.7986 15.5557H13.3681C12.9654 15.5557 12.6389 15.8822 12.6389 16.2849V18.7154C12.6389 19.1181 12.9654 19.4446 13.3681 19.4446H15.7986C16.2013 19.4446 16.5278 19.1181 16.5278 18.7154ZM22.3611 18.7154V16.2849C22.3611 15.8822 22.0346 15.5557 21.6319 15.5557H19.2014C18.7987 15.5557 18.4722 15.8822 18.4722 16.2849V18.7154C18.4722 19.1181 18.7987 19.4446 19.2014 19.4446H21.6319C22.0346 19.4446 22.3611 19.1181 22.3611 18.7154ZM28.1944 18.7154V16.2849C28.1944 15.8822 27.868 15.5557 27.4653 15.5557H25.0347C24.632 15.5557 24.3056 15.8822 24.3056 16.2849V18.7154C24.3056 19.1181 24.632 19.4446 25.0347 19.4446H27.4653C27.868 19.4446 28.1944 19.1181 28.1944 18.7154ZM7.77778 24.5488V22.1182C7.77778 21.7155 7.45129 21.3891 7.04861 21.3891H4.61806C4.21537 21.3891 3.88889 21.7155 3.88889 22.1182V24.5488C3.88889 24.9515 4.21537 25.2779 4.61806 25.2779H7.04861C7.45129 25.2779 7.77778 24.9515 7.77778 24.5488ZM25.2778 24.5488V22.1182C25.2778 21.7155 24.9513 21.3891 24.5486 21.3891H10.4514C10.0487 21.3891 9.72222 21.7155 9.72222 22.1182V24.5488C9.72222 24.9515 10.0487 25.2779 10.4514 25.2779H24.5486C24.9513 25.2779 25.2778 24.9515 25.2778 24.5488ZM31.1111 24.5488V22.1182C31.1111 21.7155 30.7846 21.3891 30.3819 21.3891H27.9514C27.5487 21.3891 27.2222 21.7155 27.2222 22.1182V24.5488C27.2222 24.9515 27.5487 25.2779 27.9514 25.2779H30.3819C30.7846 25.2779 31.1111 24.9515 31.1111 24.5488Z" fill="black"/>
</svg>
