<svg width="35" height="35" viewBox="0 0 35 35" fill="none" xmlns="http://www.w3.org/2000/svg">
<path d="M34.125 26.25H20.8655C20.825 27.3334 20.061 28 19.075 28H15.75C14.7279 28 13.9442 27.0446 13.9579 26.25H0.875C0.39375 26.25 0 26.6437 0 27.125V28C0 29.925 1.575 31.5 3.5 31.5H31.5C33.425 31.5 35 29.925 35 28V27.125C35 26.6437 34.6063 26.25 34.125 26.25ZM31.5 6.125C31.5 4.68125 30.3188 3.5 28.875 3.5H6.125C4.68125 3.5 3.5 4.68125 3.5 6.125V24.5H31.5V6.125ZM28 21H7V7H28V21Z" fill="black"/>
</svg>
