<svg width="35" height="36" viewBox="0 0 35 36" fill="none" xmlns="http://www.w3.org/2000/svg">
<path d="M35 18.4375V17.5625C35 17.0791 34.6084 16.6875 34.125 16.6875H18.8125V14.5H22.75C23.7163 14.5 24.5 13.7163 24.5 12.75V5.75C24.5 4.78367 23.7163 4 22.75 4H12.25C11.2837 4 10.5 4.78367 10.5 5.75V12.75C10.5 13.7163 11.2837 14.5 12.25 14.5H16.1875V16.6875H0.875C0.391562 16.6875 0 17.0791 0 17.5625V18.4375C0 18.9209 0.391562 19.3125 0.875 19.3125H6.5625V21.5H3.5C2.53367 21.5 1.75 22.2837 1.75 23.25V30.25C1.75 31.2163 2.53367 32 3.5 32H12.25C13.2163 32 14 31.2163 14 30.25V23.25C14 22.2837 13.2163 21.5 12.25 21.5H9.1875V19.3125H25.8125V21.5H22.75C21.7837 21.5 21 22.2837 21 23.25V30.25C21 31.2163 21.7837 32 22.75 32H31.5C32.4663 32 33.25 31.2163 33.25 30.25V23.25C33.25 22.2837 32.4663 21.5 31.5 21.5H28.4375V19.3125H34.125C34.6084 19.3125 35 18.9209 35 18.4375ZM14 11V7.5H21V11H14ZM10.5 28.5H5.25V25H10.5V28.5ZM29.75 28.5H24.5V25H29.75V28.5Z" fill="black"/>
</svg>
