<svg width="35" height="35" viewBox="0 0 35 35" fill="none" xmlns="http://www.w3.org/2000/svg">
<path d="M35 17.9375V17.0625C35 16.5791 34.6084 16.1875 34.125 16.1875H18.8125V14H22.75C23.7163 14 24.5 13.2163 24.5 12.25V5.25C24.5 4.28367 23.7163 3.5 22.75 3.5H12.25C11.2837 3.5 10.5 4.28367 10.5 5.25V12.25C10.5 13.2163 11.2837 14 12.25 14H16.1875V16.1875H0.875C0.391562 16.1875 0 16.5791 0 17.0625V17.9375C0 18.4209 0.391562 18.8125 0.875 18.8125H6.5625V21H3.5C2.53367 21 1.75 21.7837 1.75 22.75V29.75C1.75 30.7163 2.53367 31.5 3.5 31.5H12.25C13.2163 31.5 14 30.7163 14 29.75V22.75C14 21.7837 13.2163 21 12.25 21H9.1875V18.8125H25.8125V21H22.75C21.7837 21 21 21.7837 21 22.75V29.75C21 30.7163 21.7837 31.5 22.75 31.5H31.5C32.4663 31.5 33.25 30.7163 33.25 29.75V22.75C33.25 21.7837 32.4663 21 31.5 21H28.4375V18.8125H34.125C34.6084 18.8125 35 18.4209 35 17.9375ZM14 10.5V7H21V10.5H14ZM10.5 28H5.25V24.5H10.5V28ZM29.75 28H24.5V24.5H29.75V28Z" fill="black"/>
</svg>
