<svg viewBox="0 0 32 32" xmlns="http://www.w3.org/2000/svg"><path d="m16 2-13.034 4.648 1.988 17.234 11.046 6.118 11.046-6.118 1.988-17.234z" fill="#dd0031"/><path d="m16 2v3.108-.014 14.182 10.724l11.046-6.118 1.988-17.234z" fill="#c3002f"/><path d="m16 5.094-8.148 18.27h3.038l1.638-4.088h6.916l1.638 4.088h3.038zm2.38 11.662h-4.76l2.38-5.726z" fill="#fff"/><path d="m16 23a4.726 4.726 0 0 1 5-4c4 0 4.5 3 6.5 3.5a3.208 3.208 0 0 0 3.5-1.5 4.726 4.726 0 0 1 -5 4c-4 0-4.5-3-6.5-3.5a3.208 3.208 0 0 0 -3.5 1.5zm-5 6a4.726 4.726 0 0 1 5-4c4 0 4.5 3 6.5 3.5a3.208 3.208 0 0 0 3.5-1.5 4.726 4.726 0 0 1 -5 4c-4 0-4.5-3-6.5-3.5a3.208 3.208 0 0 0 -3.5 1.5z" fill="#44a8b3"/></svg>