<svg width="92" height="69" viewBox="0 0 92 69" fill="none" xmlns="http://www.w3.org/2000/svg">
<path d="M50.6644 37.306H54.671C56.1802 37.3085 57.6489 37.7945 58.8617 38.6927C60.0745 39.5909 60.9676 40.8541 61.41 42.297L63.5743 49.3557C63.6521 49.6078 63.6696 49.8746 63.6254 50.1347C63.5812 50.3948 63.4767 50.6409 63.32 50.8533C63.1634 51.0656 62.9592 51.2382 62.7237 51.3572C62.4883 51.4762 62.2282 51.5382 61.9643 51.5384H43.3573C43.0935 51.5382 42.8334 51.4762 42.598 51.3572C42.3625 51.2382 42.1583 51.0656 42.0016 50.8533C41.845 50.6409 41.7404 50.3948 41.6963 50.1347C41.6521 49.8746 41.6696 49.6078 41.7473 49.3557L43.9116 42.297C44.3548 40.8519 45.25 39.5871 46.4655 38.6886C47.6811 37.7902 49.1529 37.3056 50.6644 37.306Z" fill="#68E1FD"/>
<path d="M61.9712 51.7684H43.3642C43.0638 51.7693 42.7674 51.6996 42.4989 51.565C42.2303 51.4304 41.9972 51.2346 41.8181 50.9933C41.6391 50.7521 41.5193 50.4722 41.4682 50.1762C41.4172 49.8801 41.4364 49.5763 41.5242 49.289L43.7 42.2303C44.1521 40.7355 45.0745 39.4265 46.3301 38.4978C47.5856 37.5692 49.1074 37.0705 50.669 37.076H54.671C56.2327 37.0705 57.7544 37.5692 59.01 38.4978C60.2656 39.4265 61.188 40.7355 61.64 42.2303L63.8043 49.289C63.8922 49.5763 63.9114 49.8801 63.8604 50.1762C63.8093 50.4722 63.6895 50.7521 63.5104 50.9933C63.3314 51.2346 63.0982 51.4304 62.8297 51.565C62.5611 51.6996 62.2647 51.7693 61.9643 51.7684H61.9712ZM50.6644 37.536C49.2011 37.5309 47.7752 37.9981 46.5988 38.8684C45.4223 39.7386 44.5581 40.9653 44.1347 42.366L41.9704 49.4247C41.904 49.6427 41.8896 49.8733 41.9282 50.0979C41.9669 50.3225 42.0576 50.5349 42.193 50.7182C42.3285 50.9015 42.505 51.0506 42.7083 51.1535C42.9117 51.2563 43.1363 51.3102 43.3642 51.3107H61.9712C62.1992 51.3102 62.4238 51.2563 62.6272 51.1535C62.8305 51.0506 63.007 50.9015 63.1425 50.7182C63.2779 50.5349 63.3686 50.3225 63.4072 50.0979C63.4459 49.8733 63.4314 49.6427 63.365 49.4247L61.2007 42.366C60.7773 40.9653 59.9132 39.7386 58.7367 38.8684C57.5603 37.9981 56.1344 37.5309 54.671 37.536H50.6644Z" fill="#093F68"/>
<path d="M51.4441 36.5102H53.8913V37.9178C53.8913 38.0543 53.8644 38.1895 53.8121 38.3156C53.7599 38.4418 53.6833 38.5564 53.5868 38.6529C53.4902 38.7494 53.3756 38.826 53.2495 38.8783C53.1234 38.9305 52.9882 38.9574 52.8517 38.9574H52.4814C52.2057 38.9574 51.9412 38.8479 51.7463 38.6529C51.5513 38.4579 51.4418 38.1935 51.4418 37.9178V36.5102H51.4441Z" fill="#FFC9B0"/>
<path d="M52.8517 39.1851H52.4837C52.1474 39.1851 51.8248 39.0516 51.5868 38.8141C51.3488 38.5765 51.2147 38.2541 51.2141 37.9178V36.5102C51.2141 36.4492 51.2383 36.3907 51.2815 36.3476C51.3246 36.3044 51.3831 36.2802 51.4441 36.2802H53.8913C53.9523 36.2802 54.0108 36.3044 54.0539 36.3476C54.0971 36.3907 54.1213 36.4492 54.1213 36.5102V37.9178C54.1207 38.2541 53.9867 38.5765 53.7486 38.8141C53.5106 39.0516 53.188 39.1851 52.8517 39.1851ZM51.6741 36.7402V37.9178C51.6747 38.1321 51.7603 38.3375 51.912 38.4888C52.0638 38.6401 52.2694 38.7251 52.4837 38.7251H52.8517C53.066 38.7251 53.2716 38.6401 53.4234 38.4888C53.5751 38.3375 53.6607 38.1321 53.6613 37.9178V36.7402H51.6741Z" fill="#093F68"/>
<path d="M44.222 29.7229C43.0858 29.2928 43.1548 28.4234 42.9846 27.3102C42.8142 26.2072 42.709 25.0952 42.6695 23.9798C42.6258 22.7125 42.6695 21.4107 43.1525 20.2354C43.7712 18.7243 44.9925 17.7491 46.6232 17.8825C46.5749 15.6561 47.9112 13.5677 50.2779 13.4412C54.0706 13.2388 56.2579 17.3121 58.3762 17.0085C60.4945 16.7049 61.0626 15.7619 61.0626 15.7619C61.4186 16.4431 61.5648 17.2144 61.483 17.9786C61.4011 18.7428 61.0948 19.4657 60.6026 20.056C60.6026 20.056 62.2747 19.5684 62.4771 21.7925C62.6796 24.0166 61.3478 29.9276 61.3478 29.9276L59.8367 29.67C59.1996 29.5573 58.4038 29.7137 57.7667 29.7344L53.0264 29.8816C50.6482 29.9483 46.8026 30.6981 44.222 29.7229Z" fill="#725858"/>
<path d="M47.6399 30.4474C46.3933 30.4474 45.1674 30.3255 44.1393 29.9368C43.0376 29.5182 42.9364 28.7224 42.8191 27.8001C42.8007 27.6468 42.78 27.4934 42.757 27.3401C42.5856 26.2279 42.4796 25.1067 42.4396 23.9821C42.3982 22.793 42.4258 21.4038 42.941 20.1457C43.5965 18.5357 44.8201 17.6364 46.322 17.6364H46.3933C46.4439 15.4951 47.7572 13.34 50.2665 13.2066C52.4722 13.0916 54.1765 14.3773 55.5381 15.41C56.5915 16.2081 57.5023 16.8958 58.3418 16.7762C60.3083 16.4956 60.8718 15.6469 60.8718 15.6377C60.8928 15.6042 60.922 15.5767 60.9566 15.5578C60.9912 15.5388 61.0302 15.5291 61.0696 15.5296C61.1096 15.5296 61.1488 15.54 61.1835 15.5598C61.2181 15.5795 61.2471 15.608 61.2674 15.6423C61.2789 15.663 62.4312 17.6939 61.0926 19.7823C61.3783 19.7952 61.6551 19.8859 61.893 20.0445C62.353 20.3665 62.6405 20.9461 62.7141 21.7718C62.9188 24.0074 61.6377 29.7344 61.5825 29.9782C61.5693 30.0357 61.5345 30.0859 61.4852 30.1185C61.436 30.151 61.3761 30.1634 61.318 30.153L59.8 29.9C59.351 29.8501 58.8975 29.8563 58.4499 29.9184C58.2199 29.9414 57.9899 29.9621 57.7599 29.969L53.0196 30.1162C52.4285 30.1346 51.7339 30.1967 51.0002 30.2611C49.9629 30.3439 48.7922 30.4474 47.6399 30.4474ZM44.3026 29.5067C46.184 30.2197 48.8359 29.9828 50.9726 29.7919C51.7132 29.7252 52.4147 29.6631 53.0196 29.6447L57.7599 29.4975C57.96 29.4975 58.1785 29.4699 58.4085 29.4492C58.8966 29.3816 59.3913 29.3769 59.8805 29.4354C59.961 29.4354 60.2232 29.4929 61.18 29.6654C61.41 28.589 62.4312 23.7429 62.2564 21.8155C62.1943 21.1255 61.9873 20.6655 61.6377 20.4355C61.4957 20.3475 61.3374 20.2887 61.1724 20.2627C61.0073 20.2366 60.8386 20.2438 60.6763 20.2837C60.6293 20.2972 60.5792 20.2953 60.5332 20.2784C60.4873 20.2614 60.448 20.2302 60.421 20.1894C60.3942 20.1486 60.3811 20.1002 60.3836 20.0514C60.3861 20.0026 60.404 19.9559 60.4348 19.918C60.8659 19.409 61.1477 18.7907 61.2492 18.1315C61.3507 17.4723 61.2678 16.7979 61.0098 16.1828C60.6579 16.514 59.892 17.0315 58.4131 17.2431C57.3827 17.388 56.4006 16.6474 55.2644 15.7895C53.8844 14.7476 52.3319 13.57 50.2964 13.6781C47.9826 13.8 46.8142 15.8884 46.8579 17.8848C46.8585 17.9171 46.8522 17.9492 46.8395 17.9789C46.8268 18.0086 46.808 18.0353 46.7843 18.0573C46.7609 18.0795 46.7329 18.0965 46.7024 18.1072C46.6719 18.1179 46.6395 18.1221 46.6072 18.1194C45.172 17.9998 43.9921 18.8094 43.3711 20.3297C42.8904 21.5096 42.8651 22.8367 42.9111 23.9775C42.95 25.0836 43.0536 26.1864 43.2216 27.2803C43.2469 27.4436 43.2676 27.5977 43.286 27.7403C43.3964 28.6097 43.47 29.1847 44.3141 29.5044L44.3026 29.5067Z" fill="#093F68"/>
<path d="M45.6757 32.2023C46.9879 32.2023 48.0516 31.2858 48.0516 30.1553C48.0516 29.0248 46.9879 28.1083 45.6757 28.1083C44.3635 28.1083 43.2998 29.0248 43.2998 30.1553C43.2998 31.2858 44.3635 32.2023 45.6757 32.2023Z" fill="#FFC9B0"/>
<path d="M45.6757 32.43C44.2382 32.43 43.0698 31.4088 43.0698 30.153C43.0698 28.8972 44.2382 27.8737 45.6757 27.8737C47.1132 27.8737 48.2839 28.8972 48.2839 30.153C48.2839 31.4088 47.1132 32.43 45.6757 32.43ZM45.6757 28.3337C44.4935 28.3337 43.5298 29.1502 43.5298 30.153C43.5298 31.1558 44.4935 31.97 45.6757 31.97C46.8579 31.97 47.8239 31.1558 47.8239 30.153C47.8239 29.1502 46.8602 28.336 45.6757 28.336V28.3337Z" fill="#093F68"/>
<path d="M59.5332 32.2023C60.8454 32.2023 61.9092 31.2858 61.9092 30.1553C61.9092 29.0248 60.8454 28.1083 59.5332 28.1083C58.2211 28.1083 57.1573 29.0248 57.1573 30.1553C57.1573 31.2858 58.2211 32.2023 59.5332 32.2023Z" fill="#FFC9B0"/>
<path d="M59.5332 32.43C58.0957 32.43 56.925 31.4088 56.925 30.153C56.925 28.8972 58.0957 27.8737 59.5332 27.8737C60.9707 27.8737 62.1392 28.8972 62.1392 30.153C62.1392 31.4088 60.9707 32.43 59.5332 32.43ZM59.5332 28.3337C58.3487 28.3337 57.385 29.1502 57.385 30.153C57.385 31.1558 58.3487 31.97 59.5332 31.97C60.7177 31.97 61.6792 31.1558 61.6792 30.153C61.6792 29.1502 60.72 28.336 59.5332 28.336V28.3337Z" fill="#093F68"/>
<path d="M52.6701 36.8299C50.7699 36.8305 48.9472 36.0767 47.6025 34.7342C46.2578 33.3916 45.5011 31.5702 45.4987 29.67V24.4582C45.9173 25.1482 47.3088 24.8722 49.3489 21.3739C56.9849 25.2425 59.8369 23.0253 59.8369 23.0253V29.67C59.8344 31.5694 59.0783 33.3902 57.7346 34.7326C56.3909 36.075 54.5694 36.8293 52.6701 36.8299Z" fill="#FFC9B0"/>
<path d="M52.67 37.0599C50.7094 37.0587 48.8292 36.2801 47.4418 34.8948C46.0543 33.5095 45.2728 31.6306 45.2686 29.67V24.4582C45.2681 24.4076 45.2843 24.3583 45.3146 24.3178C45.345 24.2774 45.3879 24.2481 45.4366 24.2344C45.4853 24.2208 45.5372 24.2236 45.5842 24.2425C45.6311 24.2613 45.6706 24.2951 45.6964 24.3386C45.7316 24.3999 45.7832 24.4502 45.8453 24.4839C45.9074 24.5176 45.9777 24.5334 46.0483 24.5295C46.3289 24.5295 47.3823 24.2834 49.1464 21.2566C49.1747 21.2044 49.2221 21.1652 49.2787 21.1472C49.3353 21.1292 49.3967 21.1338 49.45 21.16C56.8284 24.8975 59.6666 22.8551 59.6942 22.8344C59.7283 22.8081 59.7692 22.7919 59.8121 22.7877C59.855 22.7835 59.8982 22.7915 59.9368 22.8107C59.9754 22.8299 60.0079 22.8595 60.0304 22.8962C60.053 22.933 60.0648 22.9753 60.0645 23.0184V29.67C60.0602 31.6294 59.2796 33.5073 57.8937 34.8924C56.5077 36.2775 54.6294 37.0569 52.67 37.0599ZM45.7309 24.9343V29.67C45.7309 31.5104 46.4619 33.2754 47.7633 34.5767C49.0646 35.878 50.8296 36.6091 52.67 36.6091C54.5103 36.6091 56.2753 35.878 57.5766 34.5767C58.878 33.2754 59.6091 31.5104 59.6091 29.67V23.4209C58.6155 23.8809 55.5634 24.7273 49.4408 21.6752C48.1712 23.8073 46.9729 24.9826 46.0598 24.9895C45.9467 24.995 45.8337 24.9762 45.7286 24.9343H45.7309Z" fill="#093F68"/>
<path d="M57.27 49.8456C57.209 49.8456 57.1505 49.8214 57.1074 49.7782C57.0643 49.7351 57.04 49.6766 57.04 49.6156V41.2022C57.04 41.1412 57.0643 41.0827 57.1074 41.0396C57.1505 40.9964 57.209 40.9722 57.27 40.9722C57.331 40.9722 57.3895 40.9964 57.4327 41.0396C57.4758 41.0827 57.5 41.1412 57.5 41.2022V49.6156C57.5 49.6766 57.4758 49.7351 57.4327 49.7782C57.3895 49.8214 57.331 49.8456 57.27 49.8456Z" fill="#093F68"/>
<path d="M48.07 49.8456C48.009 49.8456 47.9505 49.8214 47.9073 49.7782C47.8642 49.7351 47.84 49.6766 47.84 49.6156V41.2022C47.84 41.1412 47.8642 41.0827 47.9073 41.0396C47.9505 40.9964 48.009 40.9722 48.07 40.9722C48.131 40.9722 48.1895 40.9964 48.2326 41.0396C48.2757 41.0827 48.3 41.1412 48.3 41.2022V49.6156C48.3 49.6766 48.2757 49.7351 48.2326 49.7782C48.1895 49.8214 48.131 49.8456 48.07 49.8456Z" fill="#093F68"/>
<path d="M52.6515 30.9787C52.4104 30.977 52.1698 30.957 51.9316 30.9189C51.8706 30.9082 51.8164 30.8738 51.7808 30.8231C51.7452 30.7724 51.7312 30.7096 51.7419 30.6486C51.7526 30.5876 51.787 30.5334 51.8377 30.4978C51.8884 30.4622 51.9512 30.4482 52.0122 30.4589C52.3741 30.5158 52.7427 30.5158 53.1047 30.4589C53.1507 30.2473 52.8747 29.4584 52.4837 28.7155C52.4701 28.6881 52.4622 28.6582 52.4604 28.6277C52.4585 28.5972 52.4628 28.5666 52.4729 28.5378C52.483 28.509 52.4988 28.4824 52.5193 28.4597C52.5397 28.437 52.5645 28.4187 52.5922 28.4057C52.6199 28.3927 52.6499 28.3853 52.6804 28.384C52.7109 28.3828 52.7414 28.3876 52.7701 28.3982C52.7987 28.4089 52.825 28.4251 52.8473 28.446C52.8696 28.4669 52.8875 28.4921 52.9 28.52C53.1576 29.0145 53.7349 30.2151 53.5233 30.6866C53.4996 30.7429 53.4632 30.793 53.4169 30.8329C53.3706 30.8728 53.3157 30.9015 53.2565 30.9166C53.0581 30.9621 52.855 30.983 52.6515 30.9787Z" fill="#093F68"/>
<path d="M51.06 25.4679H47.5456C47.4236 25.4679 47.3066 25.4194 47.2203 25.3332C47.134 25.2469 47.0856 25.1299 47.0856 25.0079C47.0856 24.8859 47.134 24.7689 47.2203 24.6826C47.3066 24.5964 47.4236 24.5479 47.5456 24.5479H51.0623C51.1843 24.5479 51.3013 24.5964 51.3875 24.6826C51.4738 24.7689 51.5223 24.8859 51.5223 25.0079C51.5223 25.1299 51.4738 25.2469 51.3875 25.3332C51.3013 25.4194 51.1843 25.4679 51.0623 25.4679H51.06Z" fill="#093F68"/>
<path d="M57.5575 25.4679H54.0431C53.9211 25.4679 53.8041 25.4194 53.7179 25.3332C53.6316 25.2469 53.5831 25.1299 53.5831 25.0079C53.5831 24.8859 53.6316 24.7689 53.7179 24.6826C53.8041 24.5964 53.9211 24.5479 54.0431 24.5479H57.5575C57.6795 24.5479 57.7965 24.5964 57.8828 24.6826C57.9691 24.7689 58.0175 24.8859 58.0175 25.0079C58.0175 25.1299 57.9691 25.2469 57.8828 25.3332C57.7965 25.4194 57.6795 25.4679 57.5575 25.4679Z" fill="#093F68"/>
<path d="M47.2397 26.7283H51.3797C51.5358 26.7283 51.6856 26.7903 51.796 26.9008C51.9064 27.0112 51.9685 27.1609 51.9685 27.3171V27.7012C51.9685 28.2276 51.7593 28.7325 51.3871 29.1047C51.0149 29.477 50.51 29.6861 49.9836 29.6861H48.6335C48.107 29.6861 47.6022 29.477 47.2299 29.1047C46.8577 28.7325 46.6486 28.2276 46.6486 27.7012V27.3171C46.6486 27.2396 46.6639 27.1628 46.6936 27.0913C46.7233 27.0197 46.7669 26.9547 46.8218 26.8999C46.8767 26.8452 46.9419 26.8019 47.0136 26.7725C47.0853 26.743 47.1621 26.728 47.2397 26.7283Z" fill="white"/>
<path d="M49.9859 29.9184H48.6381C48.0509 29.9178 47.4879 29.6842 47.0726 29.269C46.6574 28.8538 46.4238 28.2907 46.4232 27.7035V27.3171C46.4232 27.1003 46.5092 26.8924 46.6622 26.7389C46.8153 26.5854 47.023 26.4989 47.2397 26.4983H51.3797C51.5967 26.4989 51.8046 26.5854 51.958 26.7388C52.1115 26.8922 52.1979 27.1001 52.1985 27.3171V27.7035C52.1979 28.2903 51.9647 28.853 51.5499 29.2682C51.1352 29.6834 50.5728 29.9172 49.9859 29.9184ZM47.2397 26.9583C47.1927 26.9583 47.1462 26.9676 47.1028 26.9857C47.0594 27.0037 47.02 27.0302 46.9868 27.0635C46.9537 27.0969 46.9275 27.1365 46.9097 27.18C46.8919 27.2235 46.8829 27.2701 46.8832 27.3171V27.7035C46.8838 28.1687 47.0689 28.6148 47.3979 28.9437C47.7269 29.2727 48.1729 29.4578 48.6381 29.4584H49.9859C50.4514 29.4578 50.8976 29.2728 51.227 28.9439C51.5563 28.615 51.7419 28.169 51.7431 27.7035V27.3171C51.7431 27.2219 51.7053 27.1307 51.638 27.0634C51.5707 26.9961 51.4795 26.9583 51.3843 26.9583H47.2397Z" fill="#093F68"/>
<path d="M53.9235 26.7283H58.0635C58.2197 26.7283 58.3694 26.7903 58.4798 26.9008C58.5903 27.0112 58.6523 27.1609 58.6523 27.3171V27.7012C58.6523 28.2276 58.4432 28.7325 58.0709 29.1047C57.6987 29.477 57.1938 29.6861 56.6674 29.6861H55.3173C54.7909 29.6861 54.286 29.477 53.9138 29.1047C53.5415 28.7325 53.3324 28.2276 53.3324 27.7012V27.3171C53.3324 27.2396 53.3477 27.1628 53.3774 27.0913C53.4072 27.0197 53.4507 26.9547 53.5057 26.8999C53.5606 26.8452 53.6258 26.8019 53.6975 26.7725C53.7692 26.743 53.846 26.728 53.9235 26.7283Z" fill="white"/>
<path d="M56.6697 29.9184H55.3219C54.7343 29.9184 54.1707 29.6851 53.755 29.2698C53.3392 28.8545 53.1053 28.2911 53.1047 27.7035V27.3171C53.1053 27.1001 53.1918 26.8922 53.3452 26.7388C53.4986 26.5854 53.7066 26.4989 53.9235 26.4983H58.0635C58.2803 26.4989 58.488 26.5854 58.641 26.7389C58.7941 26.8924 58.88 27.1003 58.88 27.3171V27.7035C58.8794 28.29 58.6465 28.8523 58.2323 29.2674C57.818 29.6825 57.2562 29.9166 56.6697 29.9184ZM53.9235 26.9583C53.8284 26.9583 53.7371 26.9961 53.6698 27.0634C53.6025 27.1307 53.5647 27.2219 53.5647 27.3171V27.7035C53.566 28.169 53.7516 28.615 54.0809 28.9439C54.4102 29.2728 54.8565 29.4578 55.3219 29.4584H56.6697C57.135 29.4578 57.581 29.2727 57.91 28.9437C58.2389 28.6148 58.424 28.1687 58.4246 27.7035V27.3171C58.4249 27.2701 58.4159 27.2235 58.3982 27.18C58.3804 27.1365 58.3542 27.0969 58.321 27.0635C58.2879 27.0302 58.2485 27.0037 58.2051 26.9857C58.1617 26.9676 58.1151 26.9583 58.0681 26.9583H53.9235Z" fill="#093F68"/>
<path d="M46.6533 27.9335H45.3101C45.2491 27.9335 45.1906 27.9093 45.1474 27.8661C45.1043 27.823 45.0801 27.7645 45.0801 27.7035C45.0801 27.6425 45.1043 27.584 45.1474 27.5409C45.1906 27.4977 45.2491 27.4735 45.3101 27.4735H46.6464C46.7074 27.4735 46.7659 27.4977 46.809 27.5409C46.8521 27.584 46.8764 27.6425 46.8764 27.7035C46.8764 27.7645 46.8521 27.823 46.809 27.8661C46.7659 27.9093 46.7074 27.9335 46.6464 27.9335H46.6533Z" fill="#093F68"/>
<path d="M60.0576 27.9335H58.7237C58.6627 27.9335 58.6042 27.9093 58.561 27.8661C58.5179 27.823 58.4937 27.7645 58.4937 27.7035C58.4937 27.6425 58.5179 27.584 58.561 27.5409C58.6042 27.4977 58.6627 27.4735 58.7237 27.4735H60.0576C60.1186 27.4735 60.1772 27.4977 60.2203 27.5409C60.2634 27.584 60.2876 27.6425 60.2876 27.7035C60.2876 27.7645 60.2634 27.823 60.2203 27.8661C60.1772 27.9093 60.1186 27.9335 60.0576 27.9335Z" fill="#093F68"/>
<path d="M53.3347 27.9335H51.98C51.919 27.9335 51.8605 27.9093 51.8174 27.8661C51.7742 27.823 51.75 27.7645 51.75 27.7035C51.75 27.6425 51.7742 27.584 51.8174 27.5409C51.8605 27.4977 51.919 27.4735 51.98 27.4735H53.3416C53.4026 27.4735 53.4611 27.4977 53.5042 27.5409C53.5474 27.584 53.5716 27.6425 53.5716 27.7035C53.5716 27.7645 53.5474 27.823 53.5042 27.8661C53.4611 27.9093 53.4026 27.9335 53.3416 27.9335H53.3347Z" fill="#093F68"/>
<path d="M52.5159 33.1959C51.6952 33.1991 50.8811 33.0502 50.1147 32.7566C50.0576 32.7346 50.0117 32.6909 49.9869 32.6351C49.9621 32.5792 49.9605 32.5158 49.9824 32.4587C50.0044 32.4017 50.0481 32.3557 50.104 32.3309C50.1598 32.3061 50.2232 32.3045 50.2803 32.3265C51.75 32.8546 53.3577 32.8546 54.8274 32.3265C54.8553 32.3149 54.8853 32.3089 54.9155 32.3088C54.9458 32.3088 54.9758 32.3147 55.0038 32.3262C55.0317 32.3377 55.0572 32.3547 55.0786 32.376C55.1 32.3974 55.1171 32.4228 55.1287 32.4507C55.1403 32.4786 55.1463 32.5086 55.1464 32.5389C55.1464 32.5691 55.1405 32.5991 55.129 32.6271C55.1175 32.6551 55.1005 32.6805 55.0792 32.7019C55.0578 32.7234 55.0324 32.7404 55.0045 32.752C54.2086 33.0491 53.3654 33.1995 52.5159 33.1959Z" fill="#093F68"/>
<path d="M58.9743 47.9136C58.9205 47.9147 58.868 47.8969 58.826 47.8633C58.7839 47.8296 58.755 47.7823 58.7443 47.7296C58.7382 47.7 58.7381 47.6695 58.7438 47.6398C58.7496 47.6102 58.7611 47.5819 58.7778 47.5567C58.7944 47.5315 58.8159 47.5099 58.8409 47.493C58.866 47.4761 58.8941 47.4642 58.9237 47.4582L61.4675 46.9384C61.5285 46.9262 61.5918 46.9387 61.6436 46.9732C61.6953 47.0078 61.7313 47.0614 61.7435 47.1224C61.7557 47.1834 61.7431 47.2468 61.7086 47.2985C61.6741 47.3503 61.6205 47.3862 61.5595 47.3984L59.0157 47.9159C59.0018 47.9171 58.9879 47.9163 58.9743 47.9136Z" fill="#093F68"/>
<path d="M46.3611 47.9136C46.3459 47.916 46.3304 47.916 46.3151 47.9136L43.7713 47.38C43.7411 47.374 43.7124 47.362 43.6868 47.3449C43.6612 47.3278 43.6392 47.3057 43.6222 47.2801C43.6051 47.2545 43.5932 47.2257 43.5872 47.1955C43.5812 47.1653 43.5813 47.1342 43.5873 47.104C43.5934 47.0738 43.6053 47.0451 43.6224 47.0195C43.6396 46.9939 43.6616 46.9719 43.6872 46.9548C43.7128 46.9378 43.7416 46.9259 43.7718 46.9199C43.802 46.9139 43.8331 46.914 43.8633 46.92L46.4071 47.4398C46.4367 47.4458 46.4648 47.4576 46.4899 47.4746C46.5149 47.4915 46.5364 47.5131 46.553 47.5383C46.5697 47.5635 46.5812 47.5918 46.587 47.6214C46.5927 47.6511 46.5926 47.6816 46.5865 47.7112C46.5798 47.7665 46.5533 47.8175 46.5118 47.8548C46.4704 47.892 46.4168 47.9129 46.3611 47.9136Z" fill="#093F68"/>
<path d="M46.1748 43.0928H59.133C59.4245 43.0928 59.7042 43.2086 59.9104 43.4148C60.1165 43.621 60.2324 43.9006 60.2324 44.1922V51.75H45.08V44.1922C45.08 43.9014 45.1951 43.6225 45.4003 43.4164C45.6055 43.2104 45.884 43.094 46.1748 43.0928Z" fill="#F56132"/>
<path d="M60.2324 51.98H45.08C45.019 51.98 44.9605 51.9558 44.9173 51.9126C44.8742 51.8695 44.85 51.811 44.85 51.75V44.1922C44.85 43.8396 44.99 43.5015 45.2393 43.2522C45.4887 43.0029 45.8268 42.8628 46.1794 42.8628H59.133C59.4856 42.8628 59.8237 43.0029 60.073 43.2522C60.3223 43.5015 60.4624 43.8396 60.4624 44.1922V51.75C60.4624 51.811 60.4381 51.8695 60.395 51.9126C60.3519 51.9558 60.2934 51.98 60.2324 51.98ZM45.31 51.52H60.007V44.1922C60.0064 43.9618 59.9146 43.741 59.7517 43.5781C59.5888 43.4152 59.368 43.3234 59.1376 43.3228H46.1748C45.9444 43.3234 45.7236 43.4152 45.5607 43.5781C45.3978 43.741 45.306 43.9618 45.3054 44.1922L45.31 51.52Z" fill="#093F68"/>
<path d="M44.3394 51.75H60.9707C60.9707 52.044 60.8539 52.326 60.646 52.5339C60.4381 52.7418 60.1561 52.8586 59.8621 52.8586H45.448C45.1539 52.8586 44.872 52.7418 44.6641 52.5339C44.4562 52.326 44.3394 52.044 44.3394 51.75Z" fill="#F56132"/>
<path d="M59.8598 53.0932H45.448C45.0931 53.0926 44.753 52.9514 44.5021 52.7005C44.2512 52.4496 44.11 52.1094 44.1094 51.7546C44.1094 51.6936 44.1336 51.6351 44.1767 51.592C44.2199 51.5488 44.2784 51.5246 44.3394 51.5246H60.9684C61.0294 51.5246 61.0879 51.5488 61.131 51.592C61.1741 51.6351 61.1984 51.6936 61.1984 51.7546C61.1978 52.1094 61.0565 52.4496 60.8056 52.7005C60.5547 52.9514 60.2146 53.0926 59.8598 53.0932ZM44.5993 51.98C44.6502 52.1661 44.7608 52.3304 44.9141 52.4476C45.0674 52.5648 45.255 52.6284 45.448 52.6286H59.8598C60.0547 52.6309 60.2449 52.5685 60.4006 52.4511C60.5562 52.3337 60.6686 52.1681 60.72 51.98H44.5993Z" fill="#093F68"/>
<path d="M52.4837 43.3228C52.4227 43.3228 52.3642 43.2986 52.321 43.2554C52.2779 43.2123 52.2537 43.1538 52.2537 43.0928V38.9528C52.2537 38.8918 52.2779 38.8333 52.321 38.7902C52.3642 38.747 52.4227 38.7228 52.4837 38.7228C52.5447 38.7228 52.6032 38.747 52.6463 38.7902C52.6894 38.8333 52.7137 38.8918 52.7137 38.9528V43.0928C52.7137 43.1538 52.6894 43.2123 52.6463 43.2554C52.6032 43.2986 52.5447 43.3228 52.4837 43.3228Z" fill="#093F68"/>
<path d="M30.6729 46.2093H37.1129V50.7495C37.1129 51.3101 36.8902 51.8477 36.4938 52.2441C36.0974 52.6405 35.5597 52.8632 34.9992 52.8632H32.7866C32.226 52.8632 31.6883 52.6405 31.2919 52.2441C30.8955 51.8477 30.6729 51.3101 30.6729 50.7495V46.2093Z" fill="#FFBC0E"/>
<path d="M34.999 53.0932H32.7864C32.165 53.0926 31.5693 52.8455 31.1299 52.4061C30.6905 51.9667 30.4434 51.3709 30.4427 50.7495V46.2093C30.4427 46.1483 30.467 46.0898 30.5101 46.0467C30.5532 46.0035 30.6117 45.9793 30.6727 45.9793H37.1127C37.1737 45.9793 37.2323 46.0035 37.2754 46.0467C37.3185 46.0898 37.3427 46.1483 37.3427 46.2093V50.7495C37.3421 51.3709 37.095 51.9667 36.6556 52.4061C36.2162 52.8455 35.6204 53.0926 34.999 53.0932ZM30.9027 46.4393V50.7495C30.9027 51.2491 31.1012 51.7282 31.4545 52.0815C31.8077 52.4347 32.2869 52.6332 32.7864 52.6332H34.999C35.4984 52.6326 35.9772 52.4339 36.3304 52.0808C36.6835 51.7277 36.8821 51.2489 36.8827 50.7495V46.4393H30.9027Z" fill="#093F68"/>
<path d="M65.2304 52.8632H26.7698C26.0228 52.8632 25.4174 53.4682 25.4174 54.2144C25.4174 54.9607 26.0228 55.5657 26.7698 55.5657H65.2304C65.9773 55.5657 66.5828 54.9607 66.5828 54.2144C66.5828 53.4682 65.9773 52.8632 65.2304 52.8632Z" fill="#725858"/>
<path d="M65.2303 55.7957H26.7697C26.5569 55.8038 26.3448 55.7689 26.1458 55.6931C25.9469 55.6173 25.7653 55.5021 25.612 55.3545C25.4586 55.2069 25.3366 55.0298 25.2532 54.8339C25.1699 54.638 25.127 54.4273 25.127 54.2144C25.127 54.0016 25.1699 53.7909 25.2532 53.595C25.3366 53.3991 25.4586 53.222 25.612 53.0744C25.7653 52.9268 25.9469 52.8116 26.1458 52.7358C26.3448 52.66 26.5569 52.6251 26.7697 52.6332H65.2303C65.443 52.6251 65.6552 52.66 65.8541 52.7358C66.053 52.8116 66.2346 52.9268 66.388 53.0744C66.5414 53.222 66.6634 53.3991 66.7467 53.595C66.83 53.7909 66.873 54.0016 66.873 54.2144C66.873 54.4273 66.83 54.638 66.7467 54.8339C66.6634 55.0298 66.5414 55.2069 66.388 55.3545C66.2346 55.5021 66.053 55.6173 65.8541 55.6931C65.6552 55.7689 65.443 55.8038 65.2303 55.7957ZM26.7697 53.0932C26.6182 53.0863 26.4668 53.1103 26.3248 53.1635C26.1828 53.2168 26.053 53.2982 25.9434 53.403C25.8337 53.5078 25.7465 53.6338 25.6868 53.7732C25.6272 53.9127 25.5965 54.0628 25.5965 54.2144C25.5965 54.3661 25.6272 54.5162 25.6868 54.6557C25.7465 54.7951 25.8337 54.9211 25.9434 55.0259C26.053 55.1307 26.1828 55.2121 26.3248 55.2654C26.4668 55.3186 26.6182 55.3426 26.7697 55.3357H65.2303C65.3818 55.3426 65.5331 55.3186 65.6751 55.2654C65.8172 55.2121 65.9469 55.1307 66.0566 55.0259C66.1662 54.9211 66.2535 54.7951 66.3131 54.6557C66.3727 54.5162 66.4035 54.3661 66.4035 54.2144C66.4035 54.0628 66.3727 53.9127 66.3131 53.7732C66.2535 53.6338 66.1662 53.5078 66.0566 53.403C65.9469 53.2982 65.8172 53.2168 65.6751 53.1635C65.5331 53.1103 65.3818 53.0863 65.2303 53.0932H26.7697Z" fill="#093F68"/>
<path d="M37.49 50.83H37.1151C37.0541 50.83 36.9956 50.8058 36.9525 50.7626C36.9094 50.7195 36.8851 50.661 36.8851 50.6V46.9499C36.8851 46.8889 36.9094 46.8304 36.9525 46.7873C36.9956 46.7441 37.0541 46.7199 37.1151 46.7199H37.49C37.7807 46.6848 38.0755 46.7117 38.355 46.7989C38.6345 46.8862 38.8924 47.0317 39.1115 47.2259C39.3306 47.4202 39.506 47.6587 39.6261 47.9257C39.7463 48.1927 39.8084 48.4822 39.8084 48.775C39.8084 49.0678 39.7463 49.3572 39.6261 49.6242C39.506 49.8913 39.3306 50.1298 39.1115 50.324C38.8924 50.5182 38.6345 50.6637 38.355 50.751C38.0755 50.8382 37.7807 50.8651 37.49 50.83ZM37.3451 50.37H37.49C37.7154 50.3957 37.9436 50.3735 38.1598 50.3048C38.3759 50.2361 38.5752 50.1225 38.7444 49.9715C38.9136 49.8205 39.049 49.6354 39.1417 49.4284C39.2344 49.2214 39.2823 48.9972 39.2823 48.7704C39.2823 48.5435 39.2344 48.3193 39.1417 48.1123C39.049 47.9053 38.9136 47.7202 38.7444 47.5692C38.5752 47.4182 38.3759 47.3046 38.1598 47.2359C37.9436 47.1673 37.7154 47.145 37.49 47.1707H37.3451V50.37Z" fill="#093F68"/>
<path d="M40.25 25.9854H26.6156C26.2981 25.9854 26.0406 26.2428 26.0406 26.5604V37.8465C26.0406 38.1641 26.2981 38.4215 26.6156 38.4215H40.25C40.5676 38.4215 40.825 38.1641 40.825 37.8465V26.5604C40.825 26.2428 40.5676 25.9854 40.25 25.9854Z" fill="white"/>
<path d="M40.2499 38.6515H26.6132C26.4001 38.6509 26.196 38.5658 26.0455 38.4149C25.895 38.264 25.8105 38.0596 25.8105 37.8465V26.5581C25.8105 26.3452 25.8951 26.141 26.0457 25.9905C26.1962 25.84 26.4004 25.7554 26.6132 25.7554H40.2499C40.463 25.7554 40.6675 25.8399 40.8184 25.9904C40.9693 26.1408 41.0543 26.345 41.0549 26.5581V37.8465C41.0549 38.06 40.9701 38.2648 40.8192 38.4157C40.6682 38.5667 40.4634 38.6515 40.2499 38.6515ZM26.6132 26.22C26.5224 26.22 26.4352 26.2561 26.3709 26.3204C26.3067 26.3846 26.2705 26.4718 26.2705 26.5627V37.8511C26.2705 37.9422 26.3066 38.0296 26.3708 38.0942C26.435 38.1589 26.5221 38.1955 26.6132 38.1961H40.2499C40.3414 38.1961 40.4292 38.1598 40.4939 38.0951C40.5586 38.0304 40.5949 37.9426 40.5949 37.8511V26.5581C40.5931 26.4678 40.556 26.3818 40.4915 26.3186C40.427 26.2554 40.3403 26.22 40.2499 26.22H26.6132Z" fill="#093F68"/>
<path d="M26.6133 25.99H40.25C40.4025 25.99 40.5488 26.0506 40.6566 26.1584C40.7645 26.2663 40.825 26.4125 40.825 26.565V27.5609H26.0406V26.565C26.0406 26.4129 26.1009 26.267 26.2082 26.1592C26.3156 26.0515 26.4612 25.9906 26.6133 25.99Z" fill="#68E1FD"/>
<path d="M40.8249 27.7863H26.0405C25.9795 27.7863 25.921 27.7621 25.8779 27.7189C25.8348 27.6758 25.8105 27.6173 25.8105 27.5563V26.5581C25.8105 26.3452 25.8951 26.141 26.0457 25.9905C26.1962 25.84 26.4004 25.7554 26.6132 25.7554H40.2499C40.463 25.7554 40.6675 25.8399 40.8184 25.9904C40.9693 26.1408 41.0543 26.345 41.0549 26.5581V27.5563C41.0549 27.6173 41.0307 27.6758 40.9876 27.7189C40.9444 27.7621 40.8859 27.7863 40.8249 27.7863ZM26.2705 27.3263H40.5949V26.5581C40.5931 26.4678 40.556 26.3818 40.4915 26.3186C40.427 26.2554 40.3403 26.22 40.2499 26.22H26.6132C26.5224 26.22 26.4352 26.2561 26.3709 26.3204C26.3067 26.3846 26.2705 26.4718 26.2705 26.5627V27.3263Z" fill="#093F68"/>
<path d="M27.1883 27.0779C27.3585 27.0779 27.4965 26.9399 27.4965 26.7697C27.4965 26.5995 27.3585 26.4615 27.1883 26.4615C27.0181 26.4615 26.8801 26.5995 26.8801 26.7697C26.8801 26.9399 27.0181 27.0779 27.1883 27.0779Z" fill="#093F68"/>
<path d="M28.0508 27.0779C28.221 27.0779 28.359 26.9399 28.359 26.7697C28.359 26.5995 28.221 26.4615 28.0508 26.4615C27.8805 26.4615 27.7426 26.5995 27.7426 26.7697C27.7426 26.9399 27.8805 27.0779 28.0508 27.0779Z" fill="#093F68"/>
<path d="M28.9156 27.0779C29.0858 27.0779 29.2238 26.9399 29.2238 26.7697C29.2238 26.5995 29.0858 26.4615 28.9156 26.4615C28.7454 26.4615 28.6074 26.5995 28.6074 26.7697C28.6074 26.9399 28.7454 27.0779 28.9156 27.0779Z" fill="#093F68"/>
<path d="M31.5306 31.8895L29.4031 32.8601V32.8762L31.5306 33.8468V34.9094L28.1335 33.3615V32.3748L31.5306 30.82V31.8895Z" fill="#093F68"/>
<path d="M34.0538 29.2859L34.8174 29.5596L32.8049 35.65L32.0459 35.3763L34.0538 29.2859Z" fill="#093F68"/>
<path d="M35.335 33.8468L37.4625 32.8762V32.8601L35.335 31.8895V30.82L38.7298 32.3679V33.3546L35.335 34.9025V33.8468Z" fill="#093F68"/>
</svg>
