<svg width="35" height="35" viewBox="0 0 35 35" fill="none" xmlns="http://www.w3.org/2000/svg">
<g clip-path="url(#clip0_15_399)">
<path d="M34.7217 11.97C25.0327 3.00836 9.96353 3.01164 0.278374 11.97C-0.0858449 12.3069 -0.0929543 12.8773 0.259233 13.2267L2.13173 15.0845C2.46751 15.418 3.00783 15.4252 3.35673 15.1052C11.3367 7.79461 23.6622 7.79297 31.6438 15.1052C31.9927 15.4252 32.5331 15.4175 32.8688 15.0845L34.7413 13.2267C35.093 12.8773 35.0859 12.3069 34.7217 11.97ZM17.5 22.75C15.5668 22.75 14 24.3168 14 26.25C14 28.1832 15.5668 29.75 17.5 29.75C19.4332 29.75 21 28.1832 21 26.25C21 24.3168 19.4332 22.75 17.5 22.75ZM28.5835 18.1787C22.2802 12.6044 12.7127 12.6104 6.4165 18.1787C6.03915 18.5123 6.02712 19.0914 6.38533 19.4447L8.26876 21.3035C8.59689 21.6273 9.12517 21.6491 9.47462 21.3473C14.0656 17.3786 20.9448 17.3873 25.5249 21.3473C25.8743 21.6491 26.4026 21.6278 26.7307 21.3035L28.6142 19.4447C28.9729 19.0914 28.9603 18.5117 28.5835 18.1787Z" fill="black"/>
</g>
<defs>
<clipPath id="clip0_15_399">
<rect width="35" height="35" fill="white"/>
</clipPath>
</defs>
</svg>
